<svg width="77" height="24" viewBox="0 0 77 24" fill="none" xmlns="http://www.w3.org/2000/svg">
<path d="M18.264 10.104C18.264 12.504 17.552 14.416 16.128 15.84C14.528 17.536 12.424 18.384 9.816 18.384C7.32 18.384 5.208 17.52 3.48 15.792C1.752 14.064 0.888 11.936 0.888 9.408C0.888 6.88 1.752 4.752 3.48 3.024C5.208 1.296 7.32 0.431999 9.816 0.431999C11.08 0.431999 12.272 0.655999 13.392 1.104C14.512 1.552 15.432 2.184 16.152 3L14.568 4.584C14.04 3.944 13.352 3.448 12.504 3.096C11.672 2.728 10.776 2.544 9.816 2.544C7.944 2.544 6.36 3.192 5.064 4.488C3.784 5.8 3.144 7.44 3.144 9.408C3.144 11.376 3.784 13.016 5.064 14.328C6.36 15.624 7.944 16.272 9.816 16.272C11.528 16.272 12.952 15.792 14.088 14.832C15.224 13.872 15.88 12.552 16.056 10.872H9.816V8.808H18.144C18.224 9.256 18.264 9.688 18.264 10.104ZM19.7736 12.12C19.7736 10.312 20.3416 8.816 21.4776 7.632C22.6296 6.448 24.0776 5.856 25.8216 5.856C27.5656 5.856 29.0056 6.448 30.1416 7.632C31.2936 8.816 31.8696 10.312 31.8696 12.12C31.8696 13.944 31.2936 15.44 30.1416 16.608C29.0056 17.792 27.5656 18.384 25.8216 18.384C24.0776 18.384 22.6296 17.792 21.4776 16.608C20.3416 15.424 19.7736 13.928 19.7736 12.12ZM21.9816 12.12C21.9816 13.384 22.3496 14.408 23.0856 15.192C23.8216 15.976 24.7336 16.368 25.8216 16.368C26.9096 16.368 27.8216 15.976 28.5576 15.192C29.2936 14.408 29.6616 13.384 29.6616 12.12C29.6616 10.872 29.2936 9.856 28.5576 9.072C27.8056 8.272 26.8936 7.872 25.8216 7.872C24.7496 7.872 23.8376 8.272 23.0856 9.072C22.3496 9.856 21.9816 10.872 21.9816 12.12ZM33.2033 12.12C33.2033 10.312 33.7713 8.816 34.9073 7.632C36.0593 6.448 37.5073 5.856 39.2513 5.856C40.9953 5.856 42.4353 6.448 43.5713 7.632C44.7233 8.816 45.2993 10.312 45.2993 12.12C45.2993 13.944 44.7233 15.44 43.5713 16.608C42.4353 17.792 40.9953 18.384 39.2513 18.384C37.5073 18.384 36.0593 17.792 34.9073 16.608C33.7713 15.424 33.2033 13.928 33.2033 12.12ZM35.4113 12.12C35.4113 13.384 35.7793 14.408 36.5153 15.192C37.2513 15.976 38.1633 16.368 39.2513 16.368C40.3393 16.368 41.2513 15.976 41.9873 15.192C42.7233 14.408 43.0913 13.384 43.0913 12.12C43.0913 10.872 42.7233 9.856 41.9873 9.072C41.2353 8.272 40.3233 7.872 39.2513 7.872C38.1793 7.872 37.2673 8.272 36.5153 9.072C35.7793 9.856 35.4113 10.872 35.4113 12.12ZM52.5849 16.368C53.6729 16.368 54.5609 15.976 55.2489 15.192C55.9689 14.408 56.3289 13.384 56.3289 12.12C56.3289 10.888 55.9689 9.872 55.2489 9.072C54.5449 8.272 53.6569 7.872 52.5849 7.872C51.5289 7.872 50.6409 8.272 49.9209 9.072C49.2009 9.872 48.8409 10.888 48.8409 12.12C48.8409 13.368 49.2009 14.384 49.9209 15.168C50.6409 15.968 51.5289 16.368 52.5849 16.368ZM52.5129 23.568C51.8569 23.568 51.2409 23.48 50.6649 23.304C50.0889 23.144 49.5609 22.912 49.0809 22.608C48.6169 22.304 48.2169 21.944 47.8809 21.528C47.5449 21.112 47.2889 20.648 47.1129 20.136L49.2009 19.272C49.4409 19.96 49.8569 20.512 50.4489 20.928C51.0409 21.344 51.7289 21.552 52.5129 21.552C53.7129 21.552 54.6489 21.192 55.3209 20.472C55.9929 19.752 56.3289 18.76 56.3289 17.496V16.368H56.2329C55.8169 16.992 55.2489 17.488 54.5289 17.856C53.8249 18.208 53.0569 18.384 52.2249 18.384C50.6889 18.384 49.3689 17.784 48.2649 16.584C47.1769 15.352 46.6329 13.864 46.6329 12.12C46.6329 10.376 47.1769 8.896 48.2649 7.68C49.3689 6.464 50.6889 5.856 52.2249 5.856C53.0569 5.856 53.8249 6.04 54.5289 6.408C55.2489 6.76 55.8169 7.248 56.2329 7.872H56.3289V6.24H58.4409V17.496C58.4409 19.384 57.9049 20.864 56.8329 21.936C55.7449 23.024 54.3049 23.568 52.5129 23.568ZM63.3411 0.816V18H61.1331V0.816H63.3411ZM71.1943 18.384C69.4663 18.384 68.0423 17.792 66.9223 16.608C65.8023 15.424 65.2423 13.928 65.2423 12.12C65.2423 10.328 65.7863 8.84 66.8743 7.656C67.9623 6.456 69.3543 5.856 71.0503 5.856C72.7943 5.856 74.1783 6.424 75.2023 7.56C76.2423 8.68 76.7623 10.256 76.7623 12.288L76.7383 12.528H67.4983C67.5303 13.68 67.9143 14.608 68.6503 15.312C69.3863 16.016 70.2663 16.368 71.2903 16.368C72.6983 16.368 73.8023 15.664 74.6023 14.256L76.5703 15.216C76.0423 16.208 75.3063 16.984 74.3623 17.544C73.4343 18.104 72.3783 18.384 71.1943 18.384ZM67.6663 10.704H74.4103C74.3463 9.888 74.0103 9.216 73.4023 8.688C72.8103 8.144 72.0103 7.872 71.0023 7.872C70.1703 7.872 69.4503 8.128 68.8423 8.64C68.2503 9.152 67.8583 9.84 67.6663 10.704Z" fill="#363636"/>
</svg>
