<svg width="346" height="183" viewBox="0 0 346 183" fill="none" xmlns="http://www.w3.org/2000/svg">
<path d="M2.14648 12.9395L1.2793 12.7168L1.70703 8.46875H6.08398V9.4707H2.62695L2.36914 11.791C2.52539 11.7012 2.72266 11.6172 2.96094 11.5391C3.20312 11.4609 3.48047 11.4219 3.79297 11.4219C4.1875 11.4219 4.54102 11.4902 4.85352 11.627C5.16602 11.7598 5.43164 11.9512 5.65039 12.2012C5.87305 12.4512 6.04297 12.752 6.16016 13.1035C6.27734 13.4551 6.33594 13.8477 6.33594 14.2812C6.33594 14.6914 6.2793 15.0684 6.16602 15.4121C6.05664 15.7559 5.89062 16.0566 5.66797 16.3145C5.44531 16.5684 5.16406 16.7656 4.82422 16.9062C4.48828 17.0469 4.0918 17.1172 3.63477 17.1172C3.29102 17.1172 2.96484 17.0703 2.65625 16.9766C2.35156 16.8789 2.07812 16.7324 1.83594 16.5371C1.59766 16.3379 1.40234 16.0918 1.25 15.7988C1.10156 15.502 1.00781 15.1543 0.96875 14.7559H2C2.04688 15.0762 2.14062 15.3457 2.28125 15.5645C2.42188 15.7832 2.60547 15.9492 2.83203 16.0625C3.0625 16.1719 3.33008 16.2266 3.63477 16.2266C3.89258 16.2266 4.12109 16.1816 4.32031 16.0918C4.51953 16.002 4.6875 15.873 4.82422 15.7051C4.96094 15.5371 5.06445 15.334 5.13477 15.0957C5.20898 14.8574 5.24609 14.5898 5.24609 14.293C5.24609 14.0234 5.20898 13.7734 5.13477 13.543C5.06055 13.3125 4.94922 13.1113 4.80078 12.9395C4.65625 12.7676 4.47852 12.6348 4.26758 12.541C4.05664 12.4434 3.81445 12.3945 3.54102 12.3945C3.17773 12.3945 2.90234 12.4434 2.71484 12.541C2.53125 12.6387 2.3418 12.7715 2.14648 12.9395ZM9.10742 12.2012H9.88086C10.2598 12.2012 10.5723 12.1387 10.8184 12.0137C11.0684 11.8848 11.2539 11.7109 11.375 11.4922C11.5 11.2695 11.5625 11.0195 11.5625 10.7422C11.5625 10.4141 11.5078 10.1387 11.3984 9.91602C11.2891 9.69336 11.125 9.52539 10.9062 9.41211C10.6875 9.29883 10.4102 9.24219 10.0742 9.24219C9.76953 9.24219 9.5 9.30273 9.26562 9.42383C9.03516 9.54102 8.85352 9.70898 8.7207 9.92773C8.5918 10.1465 8.52734 10.4043 8.52734 10.7012H7.44336C7.44336 10.2676 7.55273 9.87305 7.77148 9.51758C7.99023 9.16211 8.29688 8.87891 8.69141 8.66797C9.08984 8.45703 9.55078 8.35156 10.0742 8.35156C10.5898 8.35156 11.041 8.44336 11.4277 8.62695C11.8145 8.80664 12.1152 9.07617 12.3301 9.43555C12.5449 9.79102 12.6523 10.2344 12.6523 10.7656C12.6523 10.9805 12.6016 11.2109 12.5 11.457C12.4023 11.6992 12.248 11.9258 12.0371 12.1367C11.8301 12.3477 11.5605 12.5215 11.2285 12.6582C10.8965 12.791 10.498 12.8574 10.0332 12.8574H9.10742V12.2012ZM9.10742 13.0918V12.4414H10.0332C10.5762 12.4414 11.0254 12.5059 11.3809 12.6348C11.7363 12.7637 12.0156 12.9355 12.2188 13.1504C12.4258 13.3652 12.5703 13.6016 12.6523 13.8594C12.7383 14.1133 12.7812 14.3672 12.7812 14.6211C12.7812 15.0195 12.7129 15.373 12.5762 15.6816C12.4434 15.9902 12.2539 16.252 12.0078 16.4668C11.7656 16.6816 11.4805 16.8438 11.1523 16.9531C10.8242 17.0625 10.4668 17.1172 10.0801 17.1172C9.70898 17.1172 9.35938 17.0645 9.03125 16.959C8.70703 16.8535 8.41992 16.7012 8.16992 16.502C7.91992 16.2988 7.72461 16.0508 7.58398 15.7578C7.44336 15.4609 7.37305 15.123 7.37305 14.7441H8.45703C8.45703 15.041 8.52148 15.3008 8.65039 15.5234C8.7832 15.7461 8.9707 15.9199 9.21289 16.0449C9.45898 16.166 9.74805 16.2266 10.0801 16.2266C10.4121 16.2266 10.6973 16.1699 10.9355 16.0566C11.1777 15.9395 11.3633 15.7637 11.4922 15.5293C11.625 15.2949 11.6914 15 11.6914 14.6445C11.6914 14.2891 11.6172 13.998 11.4688 13.7715C11.3203 13.541 11.1094 13.3711 10.8359 13.2617C10.5664 13.1484 10.248 13.0918 9.88086 13.0918H9.10742ZM19.6309 12.0547V13.3555C19.6309 14.0547 19.5684 14.6445 19.4434 15.125C19.3184 15.6055 19.1387 15.9922 18.9043 16.2852C18.6699 16.5781 18.3867 16.791 18.0547 16.9238C17.7266 17.0527 17.3555 17.1172 16.9414 17.1172C16.6133 17.1172 16.3105 17.0762 16.0332 16.9941C15.7559 16.9121 15.5059 16.7812 15.2832 16.6016C15.0645 16.418 14.877 16.1797 14.7207 15.8867C14.5645 15.5938 14.4453 15.2383 14.3633 14.8203C14.2812 14.4023 14.2402 13.9141 14.2402 13.3555V12.0547C14.2402 11.3555 14.3027 10.7695 14.4277 10.2969C14.5566 9.82422 14.7383 9.44531 14.9727 9.16016C15.207 8.87109 15.4883 8.66406 15.8164 8.53906C16.1484 8.41406 16.5195 8.35156 16.9297 8.35156C17.2617 8.35156 17.5664 8.39258 17.8438 8.47461C18.125 8.55273 18.375 8.67969 18.5938 8.85547C18.8125 9.02734 18.998 9.25781 19.1504 9.54688C19.3066 9.83203 19.4258 10.1816 19.5078 10.5957C19.5898 11.0098 19.6309 11.4961 19.6309 12.0547ZM18.541 13.5312V11.873C18.541 11.4902 18.5176 11.1543 18.4707 10.8652C18.4277 10.5723 18.3633 10.3223 18.2773 10.1152C18.1914 9.9082 18.082 9.74023 17.9492 9.61133C17.8203 9.48242 17.6699 9.38867 17.498 9.33008C17.3301 9.26758 17.1406 9.23633 16.9297 9.23633C16.6719 9.23633 16.4434 9.28516 16.2441 9.38281C16.0449 9.47656 15.877 9.62695 15.7402 9.83398C15.6074 10.041 15.5059 10.3125 15.4355 10.6484C15.3652 10.9844 15.3301 11.3926 15.3301 11.873V13.5312C15.3301 13.9141 15.3516 14.252 15.3945 14.5449C15.4414 14.8379 15.5098 15.0918 15.5996 15.3066C15.6895 15.5176 15.7988 15.6914 15.9277 15.8281C16.0566 15.9648 16.2051 16.0664 16.373 16.1328C16.5449 16.1953 16.7344 16.2266 16.9414 16.2266C17.207 16.2266 17.4395 16.1758 17.6387 16.0742C17.8379 15.9727 18.0039 15.8145 18.1367 15.5996C18.2734 15.3809 18.375 15.1016 18.4414 14.7617C18.5078 14.418 18.541 14.0078 18.541 13.5312ZM22.127 15.7109V16.584C22.127 16.9395 22.0371 17.3145 21.8574 17.709C21.6777 18.1074 21.4258 18.4395 21.1016 18.7051L20.4863 18.2773C20.6113 18.1055 20.7168 17.9297 20.8027 17.75C20.8887 17.5742 20.9531 17.3906 20.9961 17.1992C21.043 17.0117 21.0664 16.8125 21.0664 16.6016V15.7109H22.127ZM28.748 12.0547V13.3555C28.748 14.0547 28.6855 14.6445 28.5605 15.125C28.4355 15.6055 28.2559 15.9922 28.0215 16.2852C27.7871 16.5781 27.5039 16.791 27.1719 16.9238C26.8438 17.0527 26.4727 17.1172 26.0586 17.1172C25.7305 17.1172 25.4277 17.0762 25.1504 16.9941C24.873 16.9121 24.623 16.7812 24.4004 16.6016C24.1816 16.418 23.9941 16.1797 23.8379 15.8867C23.6816 15.5938 23.5625 15.2383 23.4805 14.8203C23.3984 14.4023 23.3574 13.9141 23.3574 13.3555V12.0547C23.3574 11.3555 23.4199 10.7695 23.5449 10.2969C23.6738 9.82422 23.8555 9.44531 24.0898 9.16016C24.3242 8.87109 24.6055 8.66406 24.9336 8.53906C25.2656 8.41406 25.6367 8.35156 26.0469 8.35156C26.3789 8.35156 26.6836 8.39258 26.9609 8.47461C27.2422 8.55273 27.4922 8.67969 27.7109 8.85547C27.9297 9.02734 28.1152 9.25781 28.2676 9.54688C28.4238 9.83203 28.543 10.1816 28.625 10.5957C28.707 11.0098 28.748 11.4961 28.748 12.0547ZM27.6582 13.5312V11.873C27.6582 11.4902 27.6348 11.1543 27.5879 10.8652C27.5449 10.5723 27.4805 10.3223 27.3945 10.1152C27.3086 9.9082 27.1992 9.74023 27.0664 9.61133C26.9375 9.48242 26.7871 9.38867 26.6152 9.33008C26.4473 9.26758 26.2578 9.23633 26.0469 9.23633C25.7891 9.23633 25.5605 9.28516 25.3613 9.38281C25.1621 9.47656 24.9941 9.62695 24.8574 9.83398C24.7246 10.041 24.623 10.3125 24.5527 10.6484C24.4824 10.9844 24.4473 11.3926 24.4473 11.873V13.5312C24.4473 13.9141 24.4688 14.252 24.5117 14.5449C24.5586 14.8379 24.627 15.0918 24.7168 15.3066C24.8066 15.5176 24.916 15.6914 25.0449 15.8281C25.1738 15.9648 25.3223 16.0664 25.4902 16.1328C25.6621 16.1953 25.8516 16.2266 26.0586 16.2266C26.3242 16.2266 26.5566 16.1758 26.7559 16.0742C26.9551 15.9727 27.1211 15.8145 27.2539 15.5996C27.3906 15.3809 27.4922 15.1016 27.5586 14.7617C27.625 14.418 27.6582 14.0078 27.6582 13.5312ZM35.498 12.0547V13.3555C35.498 14.0547 35.4355 14.6445 35.3105 15.125C35.1855 15.6055 35.0059 15.9922 34.7715 16.2852C34.5371 16.5781 34.2539 16.791 33.9219 16.9238C33.5938 17.0527 33.2227 17.1172 32.8086 17.1172C32.4805 17.1172 32.1777 17.0762 31.9004 16.9941C31.623 16.9121 31.373 16.7812 31.1504 16.6016C30.9316 16.418 30.7441 16.1797 30.5879 15.8867C30.4316 15.5938 30.3125 15.2383 30.2305 14.8203C30.1484 14.4023 30.1074 13.9141 30.1074 13.3555V12.0547C30.1074 11.3555 30.1699 10.7695 30.2949 10.2969C30.4238 9.82422 30.6055 9.44531 30.8398 9.16016C31.0742 8.87109 31.3555 8.66406 31.6836 8.53906C32.0156 8.41406 32.3867 8.35156 32.7969 8.35156C33.1289 8.35156 33.4336 8.39258 33.7109 8.47461C33.9922 8.55273 34.2422 8.67969 34.4609 8.85547C34.6797 9.02734 34.8652 9.25781 35.0176 9.54688C35.1738 9.83203 35.293 10.1816 35.375 10.5957C35.457 11.0098 35.498 11.4961 35.498 12.0547ZM34.4082 13.5312V11.873C34.4082 11.4902 34.3848 11.1543 34.3379 10.8652C34.2949 10.5723 34.2305 10.3223 34.1445 10.1152C34.0586 9.9082 33.9492 9.74023 33.8164 9.61133C33.6875 9.48242 33.5371 9.38867 33.3652 9.33008C33.1973 9.26758 33.0078 9.23633 32.7969 9.23633C32.5391 9.23633 32.3105 9.28516 32.1113 9.38281C31.9121 9.47656 31.7441 9.62695 31.6074 9.83398C31.4746 10.041 31.373 10.3125 31.3027 10.6484C31.2324 10.9844 31.1973 11.3926 31.1973 11.873V13.5312C31.1973 13.9141 31.2188 14.252 31.2617 14.5449C31.3086 14.8379 31.377 15.0918 31.4668 15.3066C31.5566 15.5176 31.666 15.6914 31.7949 15.8281C31.9238 15.9648 32.0723 16.0664 32.2402 16.1328C32.4121 16.1953 32.6016 16.2266 32.8086 16.2266C33.0742 16.2266 33.3066 16.1758 33.5059 16.0742C33.7051 15.9727 33.8711 15.8145 34.0039 15.5996C34.1406 15.3809 34.2422 15.1016 34.3086 14.7617C34.375 14.418 34.4082 14.0078 34.4082 13.5312ZM42.248 12.0547V13.3555C42.248 14.0547 42.1855 14.6445 42.0605 15.125C41.9355 15.6055 41.7559 15.9922 41.5215 16.2852C41.2871 16.5781 41.0039 16.791 40.6719 16.9238C40.3438 17.0527 39.9727 17.1172 39.5586 17.1172C39.2305 17.1172 38.9277 17.0762 38.6504 16.9941C38.373 16.9121 38.123 16.7812 37.9004 16.6016C37.6816 16.418 37.4941 16.1797 37.3379 15.8867C37.1816 15.5938 37.0625 15.2383 36.9805 14.8203C36.8984 14.4023 36.8574 13.9141 36.8574 13.3555V12.0547C36.8574 11.3555 36.9199 10.7695 37.0449 10.2969C37.1738 9.82422 37.3555 9.44531 37.5898 9.16016C37.8242 8.87109 38.1055 8.66406 38.4336 8.53906C38.7656 8.41406 39.1367 8.35156 39.5469 8.35156C39.8789 8.35156 40.1836 8.39258 40.4609 8.47461C40.7422 8.55273 40.9922 8.67969 41.2109 8.85547C41.4297 9.02734 41.6152 9.25781 41.7676 9.54688C41.9238 9.83203 42.043 10.1816 42.125 10.5957C42.207 11.0098 42.248 11.4961 42.248 12.0547ZM41.1582 13.5312V11.873C41.1582 11.4902 41.1348 11.1543 41.0879 10.8652C41.0449 10.5723 40.9805 10.3223 40.8945 10.1152C40.8086 9.9082 40.6992 9.74023 40.5664 9.61133C40.4375 9.48242 40.2871 9.38867 40.1152 9.33008C39.9473 9.26758 39.7578 9.23633 39.5469 9.23633C39.2891 9.23633 39.0605 9.28516 38.8613 9.38281C38.6621 9.47656 38.4941 9.62695 38.3574 9.83398C38.2246 10.041 38.123 10.3125 38.0527 10.6484C37.9824 10.9844 37.9473 11.3926 37.9473 11.873V13.5312C37.9473 13.9141 37.9688 14.252 38.0117 14.5449C38.0586 14.8379 38.127 15.0918 38.2168 15.3066C38.3066 15.5176 38.416 15.6914 38.5449 15.8281C38.6738 15.9648 38.8223 16.0664 38.9902 16.1328C39.1621 16.1953 39.3516 16.2266 39.5586 16.2266C39.8242 16.2266 40.0566 16.1758 40.2559 16.0742C40.4551 15.9727 40.6211 15.8145 40.7539 15.5996C40.8906 15.3809 40.9922 15.1016 41.0586 14.7617C41.125 14.418 41.1582 14.0078 41.1582 13.5312Z" fill="#606368"/>
<path d="M2.14648 36.9395L1.2793 36.7168L1.70703 32.4688H6.08398V33.4707H2.62695L2.36914 35.791C2.52539 35.7012 2.72266 35.6172 2.96094 35.5391C3.20312 35.4609 3.48047 35.4219 3.79297 35.4219C4.1875 35.4219 4.54102 35.4902 4.85352 35.627C5.16602 35.7598 5.43164 35.9512 5.65039 36.2012C5.87305 36.4512 6.04297 36.752 6.16016 37.1035C6.27734 37.4551 6.33594 37.8477 6.33594 38.2812C6.33594 38.6914 6.2793 39.0684 6.16602 39.4121C6.05664 39.7559 5.89062 40.0566 5.66797 40.3145C5.44531 40.5684 5.16406 40.7656 4.82422 40.9062C4.48828 41.0469 4.0918 41.1172 3.63477 41.1172C3.29102 41.1172 2.96484 41.0703 2.65625 40.9766C2.35156 40.8789 2.07812 40.7324 1.83594 40.5371C1.59766 40.3379 1.40234 40.0918 1.25 39.7988C1.10156 39.502 1.00781 39.1543 0.96875 38.7559H2C2.04688 39.0762 2.14062 39.3457 2.28125 39.5645C2.42188 39.7832 2.60547 39.9492 2.83203 40.0625C3.0625 40.1719 3.33008 40.2266 3.63477 40.2266C3.89258 40.2266 4.12109 40.1816 4.32031 40.0918C4.51953 40.002 4.6875 39.873 4.82422 39.7051C4.96094 39.5371 5.06445 39.334 5.13477 39.0957C5.20898 38.8574 5.24609 38.5898 5.24609 38.293C5.24609 38.0234 5.20898 37.7734 5.13477 37.543C5.06055 37.3125 4.94922 37.1113 4.80078 36.9395C4.65625 36.7676 4.47852 36.6348 4.26758 36.541C4.05664 36.4434 3.81445 36.3945 3.54102 36.3945C3.17773 36.3945 2.90234 36.4434 2.71484 36.541C2.53125 36.6387 2.3418 36.7715 2.14648 36.9395ZM9.10742 36.2012H9.88086C10.2598 36.2012 10.5723 36.1387 10.8184 36.0137C11.0684 35.8848 11.2539 35.7109 11.375 35.4922C11.5 35.2695 11.5625 35.0195 11.5625 34.7422C11.5625 34.4141 11.5078 34.1387 11.3984 33.916C11.2891 33.6934 11.125 33.5254 10.9062 33.4121C10.6875 33.2988 10.4102 33.2422 10.0742 33.2422C9.76953 33.2422 9.5 33.3027 9.26562 33.4238C9.03516 33.541 8.85352 33.709 8.7207 33.9277C8.5918 34.1465 8.52734 34.4043 8.52734 34.7012H7.44336C7.44336 34.2676 7.55273 33.873 7.77148 33.5176C7.99023 33.1621 8.29688 32.8789 8.69141 32.668C9.08984 32.457 9.55078 32.3516 10.0742 32.3516C10.5898 32.3516 11.041 32.4434 11.4277 32.627C11.8145 32.8066 12.1152 33.0762 12.3301 33.4355C12.5449 33.791 12.6523 34.2344 12.6523 34.7656C12.6523 34.9805 12.6016 35.2109 12.5 35.457C12.4023 35.6992 12.248 35.9258 12.0371 36.1367C11.8301 36.3477 11.5605 36.5215 11.2285 36.6582C10.8965 36.791 10.498 36.8574 10.0332 36.8574H9.10742V36.2012ZM9.10742 37.0918V36.4414H10.0332C10.5762 36.4414 11.0254 36.5059 11.3809 36.6348C11.7363 36.7637 12.0156 36.9355 12.2188 37.1504C12.4258 37.3652 12.5703 37.6016 12.6523 37.8594C12.7383 38.1133 12.7812 38.3672 12.7812 38.6211C12.7812 39.0195 12.7129 39.373 12.5762 39.6816C12.4434 39.9902 12.2539 40.252 12.0078 40.4668C11.7656 40.6816 11.4805 40.8438 11.1523 40.9531C10.8242 41.0625 10.4668 41.1172 10.0801 41.1172C9.70898 41.1172 9.35938 41.0645 9.03125 40.959C8.70703 40.8535 8.41992 40.7012 8.16992 40.502C7.91992 40.2988 7.72461 40.0508 7.58398 39.7578C7.44336 39.4609 7.37305 39.123 7.37305 38.7441H8.45703C8.45703 39.041 8.52148 39.3008 8.65039 39.5234C8.7832 39.7461 8.9707 39.9199 9.21289 40.0449C9.45898 40.166 9.74805 40.2266 10.0801 40.2266C10.4121 40.2266 10.6973 40.1699 10.9355 40.0566C11.1777 39.9395 11.3633 39.7637 11.4922 39.5293C11.625 39.2949 11.6914 39 11.6914 38.6445C11.6914 38.2891 11.6172 37.998 11.4688 37.7715C11.3203 37.541 11.1094 37.3711 10.8359 37.2617C10.5664 37.1484 10.248 37.0918 9.88086 37.0918H9.10742ZM19.6309 36.0547V37.3555C19.6309 38.0547 19.5684 38.6445 19.4434 39.125C19.3184 39.6055 19.1387 39.9922 18.9043 40.2852C18.6699 40.5781 18.3867 40.791 18.0547 40.9238C17.7266 41.0527 17.3555 41.1172 16.9414 41.1172C16.6133 41.1172 16.3105 41.0762 16.0332 40.9941C15.7559 40.9121 15.5059 40.7812 15.2832 40.6016C15.0645 40.418 14.877 40.1797 14.7207 39.8867C14.5645 39.5938 14.4453 39.2383 14.3633 38.8203C14.2812 38.4023 14.2402 37.9141 14.2402 37.3555V36.0547C14.2402 35.3555 14.3027 34.7695 14.4277 34.2969C14.5566 33.8242 14.7383 33.4453 14.9727 33.1602C15.207 32.8711 15.4883 32.6641 15.8164 32.5391C16.1484 32.4141 16.5195 32.3516 16.9297 32.3516C17.2617 32.3516 17.5664 32.3926 17.8438 32.4746C18.125 32.5527 18.375 32.6797 18.5938 32.8555C18.8125 33.0273 18.998 33.2578 19.1504 33.5469C19.3066 33.832 19.4258 34.1816 19.5078 34.5957C19.5898 35.0098 19.6309 35.4961 19.6309 36.0547ZM18.541 37.5312V35.873C18.541 35.4902 18.5176 35.1543 18.4707 34.8652C18.4277 34.5723 18.3633 34.3223 18.2773 34.1152C18.1914 33.9082 18.082 33.7402 17.9492 33.6113C17.8203 33.4824 17.6699 33.3887 17.498 33.3301C17.3301 33.2676 17.1406 33.2363 16.9297 33.2363C16.6719 33.2363 16.4434 33.2852 16.2441 33.3828C16.0449 33.4766 15.877 33.627 15.7402 33.834C15.6074 34.041 15.5059 34.3125 15.4355 34.6484C15.3652 34.9844 15.3301 35.3926 15.3301 35.873V37.5312C15.3301 37.9141 15.3516 38.252 15.3945 38.5449C15.4414 38.8379 15.5098 39.0918 15.5996 39.3066C15.6895 39.5176 15.7988 39.6914 15.9277 39.8281C16.0566 39.9648 16.2051 40.0664 16.373 40.1328C16.5449 40.1953 16.7344 40.2266 16.9414 40.2266C17.207 40.2266 17.4395 40.1758 17.6387 40.0742C17.8379 39.9727 18.0039 39.8145 18.1367 39.5996C18.2734 39.3809 18.375 39.1016 18.4414 38.7617C18.5078 38.418 18.541 38.0078 18.541 37.5312ZM22.127 39.7109V40.584C22.127 40.9395 22.0371 41.3145 21.8574 41.709C21.6777 42.1074 21.4258 42.4395 21.1016 42.7051L20.4863 42.2773C20.6113 42.1055 20.7168 41.9297 20.8027 41.75C20.8887 41.5742 20.9531 41.3906 20.9961 41.1992C21.043 41.0117 21.0664 40.8125 21.0664 40.6016V39.7109H22.127ZM28.748 36.0547V37.3555C28.748 38.0547 28.6855 38.6445 28.5605 39.125C28.4355 39.6055 28.2559 39.9922 28.0215 40.2852C27.7871 40.5781 27.5039 40.791 27.1719 40.9238C26.8438 41.0527 26.4727 41.1172 26.0586 41.1172C25.7305 41.1172 25.4277 41.0762 25.1504 40.9941C24.873 40.9121 24.623 40.7812 24.4004 40.6016C24.1816 40.418 23.9941 40.1797 23.8379 39.8867C23.6816 39.5938 23.5625 39.2383 23.4805 38.8203C23.3984 38.4023 23.3574 37.9141 23.3574 37.3555V36.0547C23.3574 35.3555 23.4199 34.7695 23.5449 34.2969C23.6738 33.8242 23.8555 33.4453 24.0898 33.1602C24.3242 32.8711 24.6055 32.6641 24.9336 32.5391C25.2656 32.4141 25.6367 32.3516 26.0469 32.3516C26.3789 32.3516 26.6836 32.3926 26.9609 32.4746C27.2422 32.5527 27.4922 32.6797 27.7109 32.8555C27.9297 33.0273 28.1152 33.2578 28.2676 33.5469C28.4238 33.832 28.543 34.1816 28.625 34.5957C28.707 35.0098 28.748 35.4961 28.748 36.0547ZM27.6582 37.5312V35.873C27.6582 35.4902 27.6348 35.1543 27.5879 34.8652C27.5449 34.5723 27.4805 34.3223 27.3945 34.1152C27.3086 33.9082 27.1992 33.7402 27.0664 33.6113C26.9375 33.4824 26.7871 33.3887 26.6152 33.3301C26.4473 33.2676 26.2578 33.2363 26.0469 33.2363C25.7891 33.2363 25.5605 33.2852 25.3613 33.3828C25.1621 33.4766 24.9941 33.627 24.8574 33.834C24.7246 34.041 24.623 34.3125 24.5527 34.6484C24.4824 34.9844 24.4473 35.3926 24.4473 35.873V37.5312C24.4473 37.9141 24.4688 38.252 24.5117 38.5449C24.5586 38.8379 24.627 39.0918 24.7168 39.3066C24.8066 39.5176 24.916 39.6914 25.0449 39.8281C25.1738 39.9648 25.3223 40.0664 25.4902 40.1328C25.6621 40.1953 25.8516 40.2266 26.0586 40.2266C26.3242 40.2266 26.5566 40.1758 26.7559 40.0742C26.9551 39.9727 27.1211 39.8145 27.2539 39.5996C27.3906 39.3809 27.4922 39.1016 27.5586 38.7617C27.625 38.418 27.6582 38.0078 27.6582 37.5312ZM35.498 36.0547V37.3555C35.498 38.0547 35.4355 38.6445 35.3105 39.125C35.1855 39.6055 35.0059 39.9922 34.7715 40.2852C34.5371 40.5781 34.2539 40.791 33.9219 40.9238C33.5938 41.0527 33.2227 41.1172 32.8086 41.1172C32.4805 41.1172 32.1777 41.0762 31.9004 40.9941C31.623 40.9121 31.373 40.7812 31.1504 40.6016C30.9316 40.418 30.7441 40.1797 30.5879 39.8867C30.4316 39.5938 30.3125 39.2383 30.2305 38.8203C30.1484 38.4023 30.1074 37.9141 30.1074 37.3555V36.0547C30.1074 35.3555 30.1699 34.7695 30.2949 34.2969C30.4238 33.8242 30.6055 33.4453 30.8398 33.1602C31.0742 32.8711 31.3555 32.6641 31.6836 32.5391C32.0156 32.4141 32.3867 32.3516 32.7969 32.3516C33.1289 32.3516 33.4336 32.3926 33.7109 32.4746C33.9922 32.5527 34.2422 32.6797 34.4609 32.8555C34.6797 33.0273 34.8652 33.2578 35.0176 33.5469C35.1738 33.832 35.293 34.1816 35.375 34.5957C35.457 35.0098 35.498 35.4961 35.498 36.0547ZM34.4082 37.5312V35.873C34.4082 35.4902 34.3848 35.1543 34.3379 34.8652C34.2949 34.5723 34.2305 34.3223 34.1445 34.1152C34.0586 33.9082 33.9492 33.7402 33.8164 33.6113C33.6875 33.4824 33.5371 33.3887 33.3652 33.3301C33.1973 33.2676 33.0078 33.2363 32.7969 33.2363C32.5391 33.2363 32.3105 33.2852 32.1113 33.3828C31.9121 33.4766 31.7441 33.627 31.6074 33.834C31.4746 34.041 31.373 34.3125 31.3027 34.6484C31.2324 34.9844 31.1973 35.3926 31.1973 35.873V37.5312C31.1973 37.9141 31.2188 38.252 31.2617 38.5449C31.3086 38.8379 31.377 39.0918 31.4668 39.3066C31.5566 39.5176 31.666 39.6914 31.7949 39.8281C31.9238 39.9648 32.0723 40.0664 32.2402 40.1328C32.4121 40.1953 32.6016 40.2266 32.8086 40.2266C33.0742 40.2266 33.3066 40.1758 33.5059 40.0742C33.7051 39.9727 33.8711 39.8145 34.0039 39.5996C34.1406 39.3809 34.2422 39.1016 34.3086 38.7617C34.375 38.418 34.4082 38.0078 34.4082 37.5312ZM42.248 36.0547V37.3555C42.248 38.0547 42.1855 38.6445 42.0605 39.125C41.9355 39.6055 41.7559 39.9922 41.5215 40.2852C41.2871 40.5781 41.0039 40.791 40.6719 40.9238C40.3438 41.0527 39.9727 41.1172 39.5586 41.1172C39.2305 41.1172 38.9277 41.0762 38.6504 40.9941C38.373 40.9121 38.123 40.7812 37.9004 40.6016C37.6816 40.418 37.4941 40.1797 37.3379 39.8867C37.1816 39.5938 37.0625 39.2383 36.9805 38.8203C36.8984 38.4023 36.8574 37.9141 36.8574 37.3555V36.0547C36.8574 35.3555 36.9199 34.7695 37.0449 34.2969C37.1738 33.8242 37.3555 33.4453 37.5898 33.1602C37.8242 32.8711 38.1055 32.6641 38.4336 32.5391C38.7656 32.4141 39.1367 32.3516 39.5469 32.3516C39.8789 32.3516 40.1836 32.3926 40.4609 32.4746C40.7422 32.5527 40.9922 32.6797 41.2109 32.8555C41.4297 33.0273 41.6152 33.2578 41.7676 33.5469C41.9238 33.832 42.043 34.1816 42.125 34.5957C42.207 35.0098 42.248 35.4961 42.248 36.0547ZM41.1582 37.5312V35.873C41.1582 35.4902 41.1348 35.1543 41.0879 34.8652C41.0449 34.5723 40.9805 34.3223 40.8945 34.1152C40.8086 33.9082 40.6992 33.7402 40.5664 33.6113C40.4375 33.4824 40.2871 33.3887 40.1152 33.3301C39.9473 33.2676 39.7578 33.2363 39.5469 33.2363C39.2891 33.2363 39.0605 33.2852 38.8613 33.3828C38.6621 33.4766 38.4941 33.627 38.3574 33.834C38.2246 34.041 38.123 34.3125 38.0527 34.6484C37.9824 34.9844 37.9473 35.3926 37.9473 35.873V37.5312C37.9473 37.9141 37.9688 38.252 38.0117 38.5449C38.0586 38.8379 38.127 39.0918 38.2168 39.3066C38.3066 39.5176 38.416 39.6914 38.5449 39.8281C38.6738 39.9648 38.8223 40.0664 38.9902 40.1328C39.1621 40.1953 39.3516 40.2266 39.5586 40.2266C39.8242 40.2266 40.0566 40.1758 40.2559 40.0742C40.4551 39.9727 40.6211 39.8145 40.7539 39.5996C40.8906 39.3809 40.9922 39.1016 41.0586 38.7617C41.125 38.418 41.1582 38.0078 41.1582 37.5312Z" fill="#606368"/>
<path d="M2.14648 60.9395L1.2793 60.7168L1.70703 56.4688H6.08398V57.4707H2.62695L2.36914 59.791C2.52539 59.7012 2.72266 59.6172 2.96094 59.5391C3.20312 59.4609 3.48047 59.4219 3.79297 59.4219C4.1875 59.4219 4.54102 59.4902 4.85352 59.627C5.16602 59.7598 5.43164 59.9512 5.65039 60.2012C5.87305 60.4512 6.04297 60.752 6.16016 61.1035C6.27734 61.4551 6.33594 61.8477 6.33594 62.2812C6.33594 62.6914 6.2793 63.0684 6.16602 63.4121C6.05664 63.7559 5.89062 64.0566 5.66797 64.3145C5.44531 64.5684 5.16406 64.7656 4.82422 64.9062C4.48828 65.0469 4.0918 65.1172 3.63477 65.1172C3.29102 65.1172 2.96484 65.0703 2.65625 64.9766C2.35156 64.8789 2.07812 64.7324 1.83594 64.5371C1.59766 64.3379 1.40234 64.0918 1.25 63.7988C1.10156 63.502 1.00781 63.1543 0.96875 62.7559H2C2.04688 63.0762 2.14062 63.3457 2.28125 63.5645C2.42188 63.7832 2.60547 63.9492 2.83203 64.0625C3.0625 64.1719 3.33008 64.2266 3.63477 64.2266C3.89258 64.2266 4.12109 64.1816 4.32031 64.0918C4.51953 64.002 4.6875 63.873 4.82422 63.7051C4.96094 63.5371 5.06445 63.334 5.13477 63.0957C5.20898 62.8574 5.24609 62.5898 5.24609 62.293C5.24609 62.0234 5.20898 61.7734 5.13477 61.543C5.06055 61.3125 4.94922 61.1113 4.80078 60.9395C4.65625 60.7676 4.47852 60.6348 4.26758 60.541C4.05664 60.4434 3.81445 60.3945 3.54102 60.3945C3.17773 60.3945 2.90234 60.4434 2.71484 60.541C2.53125 60.6387 2.3418 60.7715 2.14648 60.9395ZM9.10742 60.2012H9.88086C10.2598 60.2012 10.5723 60.1387 10.8184 60.0137C11.0684 59.8848 11.2539 59.7109 11.375 59.4922C11.5 59.2695 11.5625 59.0195 11.5625 58.7422C11.5625 58.4141 11.5078 58.1387 11.3984 57.916C11.2891 57.6934 11.125 57.5254 10.9062 57.4121C10.6875 57.2988 10.4102 57.2422 10.0742 57.2422C9.76953 57.2422 9.5 57.3027 9.26562 57.4238C9.03516 57.541 8.85352 57.709 8.7207 57.9277C8.5918 58.1465 8.52734 58.4043 8.52734 58.7012H7.44336C7.44336 58.2676 7.55273 57.873 7.77148 57.5176C7.99023 57.1621 8.29688 56.8789 8.69141 56.668C9.08984 56.457 9.55078 56.3516 10.0742 56.3516C10.5898 56.3516 11.041 56.4434 11.4277 56.627C11.8145 56.8066 12.1152 57.0762 12.3301 57.4355C12.5449 57.791 12.6523 58.2344 12.6523 58.7656C12.6523 58.9805 12.6016 59.2109 12.5 59.457C12.4023 59.6992 12.248 59.9258 12.0371 60.1367C11.8301 60.3477 11.5605 60.5215 11.2285 60.6582C10.8965 60.791 10.498 60.8574 10.0332 60.8574H9.10742V60.2012ZM9.10742 61.0918V60.4414H10.0332C10.5762 60.4414 11.0254 60.5059 11.3809 60.6348C11.7363 60.7637 12.0156 60.9355 12.2188 61.1504C12.4258 61.3652 12.5703 61.6016 12.6523 61.8594C12.7383 62.1133 12.7812 62.3672 12.7812 62.6211C12.7812 63.0195 12.7129 63.373 12.5762 63.6816C12.4434 63.9902 12.2539 64.252 12.0078 64.4668C11.7656 64.6816 11.4805 64.8438 11.1523 64.9531C10.8242 65.0625 10.4668 65.1172 10.0801 65.1172C9.70898 65.1172 9.35938 65.0645 9.03125 64.959C8.70703 64.8535 8.41992 64.7012 8.16992 64.502C7.91992 64.2988 7.72461 64.0508 7.58398 63.7578C7.44336 63.4609 7.37305 63.123 7.37305 62.7441H8.45703C8.45703 63.041 8.52148 63.3008 8.65039 63.5234C8.7832 63.7461 8.9707 63.9199 9.21289 64.0449C9.45898 64.166 9.74805 64.2266 10.0801 64.2266C10.4121 64.2266 10.6973 64.1699 10.9355 64.0566C11.1777 63.9395 11.3633 63.7637 11.4922 63.5293C11.625 63.2949 11.6914 63 11.6914 62.6445C11.6914 62.2891 11.6172 61.998 11.4688 61.7715C11.3203 61.541 11.1094 61.3711 10.8359 61.2617C10.5664 61.1484 10.248 61.0918 9.88086 61.0918H9.10742ZM19.6309 60.0547V61.3555C19.6309 62.0547 19.5684 62.6445 19.4434 63.125C19.3184 63.6055 19.1387 63.9922 18.9043 64.2852C18.6699 64.5781 18.3867 64.791 18.0547 64.9238C17.7266 65.0527 17.3555 65.1172 16.9414 65.1172C16.6133 65.1172 16.3105 65.0762 16.0332 64.9941C15.7559 64.9121 15.5059 64.7812 15.2832 64.6016C15.0645 64.418 14.877 64.1797 14.7207 63.8867C14.5645 63.5938 14.4453 63.2383 14.3633 62.8203C14.2812 62.4023 14.2402 61.9141 14.2402 61.3555V60.0547C14.2402 59.3555 14.3027 58.7695 14.4277 58.2969C14.5566 57.8242 14.7383 57.4453 14.9727 57.1602C15.207 56.8711 15.4883 56.6641 15.8164 56.5391C16.1484 56.4141 16.5195 56.3516 16.9297 56.3516C17.2617 56.3516 17.5664 56.3926 17.8438 56.4746C18.125 56.5527 18.375 56.6797 18.5938 56.8555C18.8125 57.0273 18.998 57.2578 19.1504 57.5469C19.3066 57.832 19.4258 58.1816 19.5078 58.5957C19.5898 59.0098 19.6309 59.4961 19.6309 60.0547ZM18.541 61.5312V59.873C18.541 59.4902 18.5176 59.1543 18.4707 58.8652C18.4277 58.5723 18.3633 58.3223 18.2773 58.1152C18.1914 57.9082 18.082 57.7402 17.9492 57.6113C17.8203 57.4824 17.6699 57.3887 17.498 57.3301C17.3301 57.2676 17.1406 57.2363 16.9297 57.2363C16.6719 57.2363 16.4434 57.2852 16.2441 57.3828C16.0449 57.4766 15.877 57.627 15.7402 57.834C15.6074 58.041 15.5059 58.3125 15.4355 58.6484C15.3652 58.9844 15.3301 59.3926 15.3301 59.873V61.5312C15.3301 61.9141 15.3516 62.252 15.3945 62.5449C15.4414 62.8379 15.5098 63.0918 15.5996 63.3066C15.6895 63.5176 15.7988 63.6914 15.9277 63.8281C16.0566 63.9648 16.2051 64.0664 16.373 64.1328C16.5449 64.1953 16.7344 64.2266 16.9414 64.2266C17.207 64.2266 17.4395 64.1758 17.6387 64.0742C17.8379 63.9727 18.0039 63.8145 18.1367 63.5996C18.2734 63.3809 18.375 63.1016 18.4414 62.7617C18.5078 62.418 18.541 62.0078 18.541 61.5312ZM22.127 63.7109V64.584C22.127 64.9395 22.0371 65.3145 21.8574 65.709C21.6777 66.1074 21.4258 66.4395 21.1016 66.7051L20.4863 66.2773C20.6113 66.1055 20.7168 65.9297 20.8027 65.75C20.8887 65.5742 20.9531 65.3906 20.9961 65.1992C21.043 65.0117 21.0664 64.8125 21.0664 64.6016V63.7109H22.127ZM28.748 60.0547V61.3555C28.748 62.0547 28.6855 62.6445 28.5605 63.125C28.4355 63.6055 28.2559 63.9922 28.0215 64.2852C27.7871 64.5781 27.5039 64.791 27.1719 64.9238C26.8438 65.0527 26.4727 65.1172 26.0586 65.1172C25.7305 65.1172 25.4277 65.0762 25.1504 64.9941C24.873 64.9121 24.623 64.7812 24.4004 64.6016C24.1816 64.418 23.9941 64.1797 23.8379 63.8867C23.6816 63.5938 23.5625 63.2383 23.4805 62.8203C23.3984 62.4023 23.3574 61.9141 23.3574 61.3555V60.0547C23.3574 59.3555 23.4199 58.7695 23.5449 58.2969C23.6738 57.8242 23.8555 57.4453 24.0898 57.1602C24.3242 56.8711 24.6055 56.6641 24.9336 56.5391C25.2656 56.4141 25.6367 56.3516 26.0469 56.3516C26.3789 56.3516 26.6836 56.3926 26.9609 56.4746C27.2422 56.5527 27.4922 56.6797 27.7109 56.8555C27.9297 57.0273 28.1152 57.2578 28.2676 57.5469C28.4238 57.832 28.543 58.1816 28.625 58.5957C28.707 59.0098 28.748 59.4961 28.748 60.0547ZM27.6582 61.5312V59.873C27.6582 59.4902 27.6348 59.1543 27.5879 58.8652C27.5449 58.5723 27.4805 58.3223 27.3945 58.1152C27.3086 57.9082 27.1992 57.7402 27.0664 57.6113C26.9375 57.4824 26.7871 57.3887 26.6152 57.3301C26.4473 57.2676 26.2578 57.2363 26.0469 57.2363C25.7891 57.2363 25.5605 57.2852 25.3613 57.3828C25.1621 57.4766 24.9941 57.627 24.8574 57.834C24.7246 58.041 24.623 58.3125 24.5527 58.6484C24.4824 58.9844 24.4473 59.3926 24.4473 59.873V61.5312C24.4473 61.9141 24.4688 62.252 24.5117 62.5449C24.5586 62.8379 24.627 63.0918 24.7168 63.3066C24.8066 63.5176 24.916 63.6914 25.0449 63.8281C25.1738 63.9648 25.3223 64.0664 25.4902 64.1328C25.6621 64.1953 25.8516 64.2266 26.0586 64.2266C26.3242 64.2266 26.5566 64.1758 26.7559 64.0742C26.9551 63.9727 27.1211 63.8145 27.2539 63.5996C27.3906 63.3809 27.4922 63.1016 27.5586 62.7617C27.625 62.418 27.6582 62.0078 27.6582 61.5312ZM35.498 60.0547V61.3555C35.498 62.0547 35.4355 62.6445 35.3105 63.125C35.1855 63.6055 35.0059 63.9922 34.7715 64.2852C34.5371 64.5781 34.2539 64.791 33.9219 64.9238C33.5938 65.0527 33.2227 65.1172 32.8086 65.1172C32.4805 65.1172 32.1777 65.0762 31.9004 64.9941C31.623 64.9121 31.373 64.7812 31.1504 64.6016C30.9316 64.418 30.7441 64.1797 30.5879 63.8867C30.4316 63.5938 30.3125 63.2383 30.2305 62.8203C30.1484 62.4023 30.1074 61.9141 30.1074 61.3555V60.0547C30.1074 59.3555 30.1699 58.7695 30.2949 58.2969C30.4238 57.8242 30.6055 57.4453 30.8398 57.1602C31.0742 56.8711 31.3555 56.6641 31.6836 56.5391C32.0156 56.4141 32.3867 56.3516 32.7969 56.3516C33.1289 56.3516 33.4336 56.3926 33.7109 56.4746C33.9922 56.5527 34.2422 56.6797 34.4609 56.8555C34.6797 57.0273 34.8652 57.2578 35.0176 57.5469C35.1738 57.832 35.293 58.1816 35.375 58.5957C35.457 59.0098 35.498 59.4961 35.498 60.0547ZM34.4082 61.5312V59.873C34.4082 59.4902 34.3848 59.1543 34.3379 58.8652C34.2949 58.5723 34.2305 58.3223 34.1445 58.1152C34.0586 57.9082 33.9492 57.7402 33.8164 57.6113C33.6875 57.4824 33.5371 57.3887 33.3652 57.3301C33.1973 57.2676 33.0078 57.2363 32.7969 57.2363C32.5391 57.2363 32.3105 57.2852 32.1113 57.3828C31.9121 57.4766 31.7441 57.627 31.6074 57.834C31.4746 58.041 31.373 58.3125 31.3027 58.6484C31.2324 58.9844 31.1973 59.3926 31.1973 59.873V61.5312C31.1973 61.9141 31.2188 62.252 31.2617 62.5449C31.3086 62.8379 31.377 63.0918 31.4668 63.3066C31.5566 63.5176 31.666 63.6914 31.7949 63.8281C31.9238 63.9648 32.0723 64.0664 32.2402 64.1328C32.4121 64.1953 32.6016 64.2266 32.8086 64.2266C33.0742 64.2266 33.3066 64.1758 33.5059 64.0742C33.7051 63.9727 33.8711 63.8145 34.0039 63.5996C34.1406 63.3809 34.2422 63.1016 34.3086 62.7617C34.375 62.418 34.4082 62.0078 34.4082 61.5312ZM42.248 60.0547V61.3555C42.248 62.0547 42.1855 62.6445 42.0605 63.125C41.9355 63.6055 41.7559 63.9922 41.5215 64.2852C41.2871 64.5781 41.0039 64.791 40.6719 64.9238C40.3438 65.0527 39.9727 65.1172 39.5586 65.1172C39.2305 65.1172 38.9277 65.0762 38.6504 64.9941C38.373 64.9121 38.123 64.7812 37.9004 64.6016C37.6816 64.418 37.4941 64.1797 37.3379 63.8867C37.1816 63.5938 37.0625 63.2383 36.9805 62.8203C36.8984 62.4023 36.8574 61.9141 36.8574 61.3555V60.0547C36.8574 59.3555 36.9199 58.7695 37.0449 58.2969C37.1738 57.8242 37.3555 57.4453 37.5898 57.1602C37.8242 56.8711 38.1055 56.6641 38.4336 56.5391C38.7656 56.4141 39.1367 56.3516 39.5469 56.3516C39.8789 56.3516 40.1836 56.3926 40.4609 56.4746C40.7422 56.5527 40.9922 56.6797 41.2109 56.8555C41.4297 57.0273 41.6152 57.2578 41.7676 57.5469C41.9238 57.832 42.043 58.1816 42.125 58.5957C42.207 59.0098 42.248 59.4961 42.248 60.0547ZM41.1582 61.5312V59.873C41.1582 59.4902 41.1348 59.1543 41.0879 58.8652C41.0449 58.5723 40.9805 58.3223 40.8945 58.1152C40.8086 57.9082 40.6992 57.7402 40.5664 57.6113C40.4375 57.4824 40.2871 57.3887 40.1152 57.3301C39.9473 57.2676 39.7578 57.2363 39.5469 57.2363C39.2891 57.2363 39.0605 57.2852 38.8613 57.3828C38.6621 57.4766 38.4941 57.627 38.3574 57.834C38.2246 58.041 38.123 58.3125 38.0527 58.6484C37.9824 58.9844 37.9473 59.3926 37.9473 59.873V61.5312C37.9473 61.9141 37.9688 62.252 38.0117 62.5449C38.0586 62.8379 38.127 63.0918 38.2168 63.3066C38.3066 63.5176 38.416 63.6914 38.5449 63.8281C38.6738 63.9648 38.8223 64.0664 38.9902 64.1328C39.1621 64.1953 39.3516 64.2266 39.5586 64.2266C39.8242 64.2266 40.0566 64.1758 40.2559 64.0742C40.4551 63.9727 40.6211 63.8145 40.7539 63.5996C40.8906 63.3809 40.9922 63.1016 41.0586 62.7617C41.125 62.418 41.1582 62.0078 41.1582 61.5312Z" fill="#606368"/>
<path d="M2.14648 84.9395L1.2793 84.7168L1.70703 80.4688H6.08398V81.4707H2.62695L2.36914 83.791C2.52539 83.7012 2.72266 83.6172 2.96094 83.5391C3.20312 83.4609 3.48047 83.4219 3.79297 83.4219C4.1875 83.4219 4.54102 83.4902 4.85352 83.627C5.16602 83.7598 5.43164 83.9512 5.65039 84.2012C5.87305 84.4512 6.04297 84.752 6.16016 85.1035C6.27734 85.4551 6.33594 85.8477 6.33594 86.2812C6.33594 86.6914 6.2793 87.0684 6.16602 87.4121C6.05664 87.7559 5.89062 88.0566 5.66797 88.3145C5.44531 88.5684 5.16406 88.7656 4.82422 88.9062C4.48828 89.0469 4.0918 89.1172 3.63477 89.1172C3.29102 89.1172 2.96484 89.0703 2.65625 88.9766C2.35156 88.8789 2.07812 88.7324 1.83594 88.5371C1.59766 88.3379 1.40234 88.0918 1.25 87.7988C1.10156 87.502 1.00781 87.1543 0.96875 86.7559H2C2.04688 87.0762 2.14062 87.3457 2.28125 87.5645C2.42188 87.7832 2.60547 87.9492 2.83203 88.0625C3.0625 88.1719 3.33008 88.2266 3.63477 88.2266C3.89258 88.2266 4.12109 88.1816 4.32031 88.0918C4.51953 88.002 4.6875 87.873 4.82422 87.7051C4.96094 87.5371 5.06445 87.334 5.13477 87.0957C5.20898 86.8574 5.24609 86.5898 5.24609 86.293C5.24609 86.0234 5.20898 85.7734 5.13477 85.543C5.06055 85.3125 4.94922 85.1113 4.80078 84.9395C4.65625 84.7676 4.47852 84.6348 4.26758 84.541C4.05664 84.4434 3.81445 84.3945 3.54102 84.3945C3.17773 84.3945 2.90234 84.4434 2.71484 84.541C2.53125 84.6387 2.3418 84.7715 2.14648 84.9395ZM9.10742 84.2012H9.88086C10.2598 84.2012 10.5723 84.1387 10.8184 84.0137C11.0684 83.8848 11.2539 83.7109 11.375 83.4922C11.5 83.2695 11.5625 83.0195 11.5625 82.7422C11.5625 82.4141 11.5078 82.1387 11.3984 81.916C11.2891 81.6934 11.125 81.5254 10.9062 81.4121C10.6875 81.2988 10.4102 81.2422 10.0742 81.2422C9.76953 81.2422 9.5 81.3027 9.26562 81.4238C9.03516 81.541 8.85352 81.709 8.7207 81.9277C8.5918 82.1465 8.52734 82.4043 8.52734 82.7012H7.44336C7.44336 82.2676 7.55273 81.873 7.77148 81.5176C7.99023 81.1621 8.29688 80.8789 8.69141 80.668C9.08984 80.457 9.55078 80.3516 10.0742 80.3516C10.5898 80.3516 11.041 80.4434 11.4277 80.627C11.8145 80.8066 12.1152 81.0762 12.3301 81.4355C12.5449 81.791 12.6523 82.2344 12.6523 82.7656C12.6523 82.9805 12.6016 83.2109 12.5 83.457C12.4023 83.6992 12.248 83.9258 12.0371 84.1367C11.8301 84.3477 11.5605 84.5215 11.2285 84.6582C10.8965 84.791 10.498 84.8574 10.0332 84.8574H9.10742V84.2012ZM9.10742 85.0918V84.4414H10.0332C10.5762 84.4414 11.0254 84.5059 11.3809 84.6348C11.7363 84.7637 12.0156 84.9355 12.2188 85.1504C12.4258 85.3652 12.5703 85.6016 12.6523 85.8594C12.7383 86.1133 12.7812 86.3672 12.7812 86.6211C12.7812 87.0195 12.7129 87.373 12.5762 87.6816C12.4434 87.9902 12.2539 88.252 12.0078 88.4668C11.7656 88.6816 11.4805 88.8438 11.1523 88.9531C10.8242 89.0625 10.4668 89.1172 10.0801 89.1172C9.70898 89.1172 9.35938 89.0645 9.03125 88.959C8.70703 88.8535 8.41992 88.7012 8.16992 88.502C7.91992 88.2988 7.72461 88.0508 7.58398 87.7578C7.44336 87.4609 7.37305 87.123 7.37305 86.7441H8.45703C8.45703 87.041 8.52148 87.3008 8.65039 87.5234C8.7832 87.7461 8.9707 87.9199 9.21289 88.0449C9.45898 88.166 9.74805 88.2266 10.0801 88.2266C10.4121 88.2266 10.6973 88.1699 10.9355 88.0566C11.1777 87.9395 11.3633 87.7637 11.4922 87.5293C11.625 87.2949 11.6914 87 11.6914 86.6445C11.6914 86.2891 11.6172 85.998 11.4688 85.7715C11.3203 85.541 11.1094 85.3711 10.8359 85.2617C10.5664 85.1484 10.248 85.0918 9.88086 85.0918H9.10742ZM19.6309 84.0547V85.3555C19.6309 86.0547 19.5684 86.6445 19.4434 87.125C19.3184 87.6055 19.1387 87.9922 18.9043 88.2852C18.6699 88.5781 18.3867 88.791 18.0547 88.9238C17.7266 89.0527 17.3555 89.1172 16.9414 89.1172C16.6133 89.1172 16.3105 89.0762 16.0332 88.9941C15.7559 88.9121 15.5059 88.7812 15.2832 88.6016C15.0645 88.418 14.877 88.1797 14.7207 87.8867C14.5645 87.5938 14.4453 87.2383 14.3633 86.8203C14.2812 86.4023 14.2402 85.9141 14.2402 85.3555V84.0547C14.2402 83.3555 14.3027 82.7695 14.4277 82.2969C14.5566 81.8242 14.7383 81.4453 14.9727 81.1602C15.207 80.8711 15.4883 80.6641 15.8164 80.5391C16.1484 80.4141 16.5195 80.3516 16.9297 80.3516C17.2617 80.3516 17.5664 80.3926 17.8438 80.4746C18.125 80.5527 18.375 80.6797 18.5938 80.8555C18.8125 81.0273 18.998 81.2578 19.1504 81.5469C19.3066 81.832 19.4258 82.1816 19.5078 82.5957C19.5898 83.0098 19.6309 83.4961 19.6309 84.0547ZM18.541 85.5312V83.873C18.541 83.4902 18.5176 83.1543 18.4707 82.8652C18.4277 82.5723 18.3633 82.3223 18.2773 82.1152C18.1914 81.9082 18.082 81.7402 17.9492 81.6113C17.8203 81.4824 17.6699 81.3887 17.498 81.3301C17.3301 81.2676 17.1406 81.2363 16.9297 81.2363C16.6719 81.2363 16.4434 81.2852 16.2441 81.3828C16.0449 81.4766 15.877 81.627 15.7402 81.834C15.6074 82.041 15.5059 82.3125 15.4355 82.6484C15.3652 82.9844 15.3301 83.3926 15.3301 83.873V85.5312C15.3301 85.9141 15.3516 86.252 15.3945 86.5449C15.4414 86.8379 15.5098 87.0918 15.5996 87.3066C15.6895 87.5176 15.7988 87.6914 15.9277 87.8281C16.0566 87.9648 16.2051 88.0664 16.373 88.1328C16.5449 88.1953 16.7344 88.2266 16.9414 88.2266C17.207 88.2266 17.4395 88.1758 17.6387 88.0742C17.8379 87.9727 18.0039 87.8145 18.1367 87.5996C18.2734 87.3809 18.375 87.1016 18.4414 86.7617C18.5078 86.418 18.541 86.0078 18.541 85.5312ZM22.127 87.7109V88.584C22.127 88.9395 22.0371 89.3145 21.8574 89.709C21.6777 90.1074 21.4258 90.4395 21.1016 90.7051L20.4863 90.2773C20.6113 90.1055 20.7168 89.9297 20.8027 89.75C20.8887 89.5742 20.9531 89.3906 20.9961 89.1992C21.043 89.0117 21.0664 88.8125 21.0664 88.6016V87.7109H22.127ZM28.748 84.0547V85.3555C28.748 86.0547 28.6855 86.6445 28.5605 87.125C28.4355 87.6055 28.2559 87.9922 28.0215 88.2852C27.7871 88.5781 27.5039 88.791 27.1719 88.9238C26.8438 89.0527 26.4727 89.1172 26.0586 89.1172C25.7305 89.1172 25.4277 89.0762 25.1504 88.9941C24.873 88.9121 24.623 88.7812 24.4004 88.6016C24.1816 88.418 23.9941 88.1797 23.8379 87.8867C23.6816 87.5938 23.5625 87.2383 23.4805 86.8203C23.3984 86.4023 23.3574 85.9141 23.3574 85.3555V84.0547C23.3574 83.3555 23.4199 82.7695 23.5449 82.2969C23.6738 81.8242 23.8555 81.4453 24.0898 81.1602C24.3242 80.8711 24.6055 80.6641 24.9336 80.5391C25.2656 80.4141 25.6367 80.3516 26.0469 80.3516C26.3789 80.3516 26.6836 80.3926 26.9609 80.4746C27.2422 80.5527 27.4922 80.6797 27.7109 80.8555C27.9297 81.0273 28.1152 81.2578 28.2676 81.5469C28.4238 81.832 28.543 82.1816 28.625 82.5957C28.707 83.0098 28.748 83.4961 28.748 84.0547ZM27.6582 85.5312V83.873C27.6582 83.4902 27.6348 83.1543 27.5879 82.8652C27.5449 82.5723 27.4805 82.3223 27.3945 82.1152C27.3086 81.9082 27.1992 81.7402 27.0664 81.6113C26.9375 81.4824 26.7871 81.3887 26.6152 81.3301C26.4473 81.2676 26.2578 81.2363 26.0469 81.2363C25.7891 81.2363 25.5605 81.2852 25.3613 81.3828C25.1621 81.4766 24.9941 81.627 24.8574 81.834C24.7246 82.041 24.623 82.3125 24.5527 82.6484C24.4824 82.9844 24.4473 83.3926 24.4473 83.873V85.5312C24.4473 85.9141 24.4688 86.252 24.5117 86.5449C24.5586 86.8379 24.627 87.0918 24.7168 87.3066C24.8066 87.5176 24.916 87.6914 25.0449 87.8281C25.1738 87.9648 25.3223 88.0664 25.4902 88.1328C25.6621 88.1953 25.8516 88.2266 26.0586 88.2266C26.3242 88.2266 26.5566 88.1758 26.7559 88.0742C26.9551 87.9727 27.1211 87.8145 27.2539 87.5996C27.3906 87.3809 27.4922 87.1016 27.5586 86.7617C27.625 86.418 27.6582 86.0078 27.6582 85.5312ZM35.498 84.0547V85.3555C35.498 86.0547 35.4355 86.6445 35.3105 87.125C35.1855 87.6055 35.0059 87.9922 34.7715 88.2852C34.5371 88.5781 34.2539 88.791 33.9219 88.9238C33.5938 89.0527 33.2227 89.1172 32.8086 89.1172C32.4805 89.1172 32.1777 89.0762 31.9004 88.9941C31.623 88.9121 31.373 88.7812 31.1504 88.6016C30.9316 88.418 30.7441 88.1797 30.5879 87.8867C30.4316 87.5938 30.3125 87.2383 30.2305 86.8203C30.1484 86.4023 30.1074 85.9141 30.1074 85.3555V84.0547C30.1074 83.3555 30.1699 82.7695 30.2949 82.2969C30.4238 81.8242 30.6055 81.4453 30.8398 81.1602C31.0742 80.8711 31.3555 80.6641 31.6836 80.5391C32.0156 80.4141 32.3867 80.3516 32.7969 80.3516C33.1289 80.3516 33.4336 80.3926 33.7109 80.4746C33.9922 80.5527 34.2422 80.6797 34.4609 80.8555C34.6797 81.0273 34.8652 81.2578 35.0176 81.5469C35.1738 81.832 35.293 82.1816 35.375 82.5957C35.457 83.0098 35.498 83.4961 35.498 84.0547ZM34.4082 85.5312V83.873C34.4082 83.4902 34.3848 83.1543 34.3379 82.8652C34.2949 82.5723 34.2305 82.3223 34.1445 82.1152C34.0586 81.9082 33.9492 81.7402 33.8164 81.6113C33.6875 81.4824 33.5371 81.3887 33.3652 81.3301C33.1973 81.2676 33.0078 81.2363 32.7969 81.2363C32.5391 81.2363 32.3105 81.2852 32.1113 81.3828C31.9121 81.4766 31.7441 81.627 31.6074 81.834C31.4746 82.041 31.373 82.3125 31.3027 82.6484C31.2324 82.9844 31.1973 83.3926 31.1973 83.873V85.5312C31.1973 85.9141 31.2188 86.252 31.2617 86.5449C31.3086 86.8379 31.377 87.0918 31.4668 87.3066C31.5566 87.5176 31.666 87.6914 31.7949 87.8281C31.9238 87.9648 32.0723 88.0664 32.2402 88.1328C32.4121 88.1953 32.6016 88.2266 32.8086 88.2266C33.0742 88.2266 33.3066 88.1758 33.5059 88.0742C33.7051 87.9727 33.8711 87.8145 34.0039 87.5996C34.1406 87.3809 34.2422 87.1016 34.3086 86.7617C34.375 86.418 34.4082 86.0078 34.4082 85.5312ZM42.248 84.0547V85.3555C42.248 86.0547 42.1855 86.6445 42.0605 87.125C41.9355 87.6055 41.7559 87.9922 41.5215 88.2852C41.2871 88.5781 41.0039 88.791 40.6719 88.9238C40.3438 89.0527 39.9727 89.1172 39.5586 89.1172C39.2305 89.1172 38.9277 89.0762 38.6504 88.9941C38.373 88.9121 38.123 88.7812 37.9004 88.6016C37.6816 88.418 37.4941 88.1797 37.3379 87.8867C37.1816 87.5938 37.0625 87.2383 36.9805 86.8203C36.8984 86.4023 36.8574 85.9141 36.8574 85.3555V84.0547C36.8574 83.3555 36.9199 82.7695 37.0449 82.2969C37.1738 81.8242 37.3555 81.4453 37.5898 81.1602C37.8242 80.8711 38.1055 80.6641 38.4336 80.5391C38.7656 80.4141 39.1367 80.3516 39.5469 80.3516C39.8789 80.3516 40.1836 80.3926 40.4609 80.4746C40.7422 80.5527 40.9922 80.6797 41.2109 80.8555C41.4297 81.0273 41.6152 81.2578 41.7676 81.5469C41.9238 81.832 42.043 82.1816 42.125 82.5957C42.207 83.0098 42.248 83.4961 42.248 84.0547ZM41.1582 85.5312V83.873C41.1582 83.4902 41.1348 83.1543 41.0879 82.8652C41.0449 82.5723 40.9805 82.3223 40.8945 82.1152C40.8086 81.9082 40.6992 81.7402 40.5664 81.6113C40.4375 81.4824 40.2871 81.3887 40.1152 81.3301C39.9473 81.2676 39.7578 81.2363 39.5469 81.2363C39.2891 81.2363 39.0605 81.2852 38.8613 81.3828C38.6621 81.4766 38.4941 81.627 38.3574 81.834C38.2246 82.041 38.123 82.3125 38.0527 82.6484C37.9824 82.9844 37.9473 83.3926 37.9473 83.873V85.5312C37.9473 85.9141 37.9688 86.252 38.0117 86.5449C38.0586 86.8379 38.127 87.0918 38.2168 87.3066C38.3066 87.5176 38.416 87.6914 38.5449 87.8281C38.6738 87.9648 38.8223 88.0664 38.9902 88.1328C39.1621 88.1953 39.3516 88.2266 39.5586 88.2266C39.8242 88.2266 40.0566 88.1758 40.2559 88.0742C40.4551 87.9727 40.6211 87.8145 40.7539 87.5996C40.8906 87.3809 40.9922 87.1016 41.0586 86.7617C41.125 86.418 41.1582 86.0078 41.1582 85.5312Z" fill="#606368"/>
<path d="M2.14648 108.939L1.2793 108.717L1.70703 104.469H6.08398V105.471H2.62695L2.36914 107.791C2.52539 107.701 2.72266 107.617 2.96094 107.539C3.20312 107.461 3.48047 107.422 3.79297 107.422C4.1875 107.422 4.54102 107.49 4.85352 107.627C5.16602 107.76 5.43164 107.951 5.65039 108.201C5.87305 108.451 6.04297 108.752 6.16016 109.104C6.27734 109.455 6.33594 109.848 6.33594 110.281C6.33594 110.691 6.2793 111.068 6.16602 111.412C6.05664 111.756 5.89062 112.057 5.66797 112.314C5.44531 112.568 5.16406 112.766 4.82422 112.906C4.48828 113.047 4.0918 113.117 3.63477 113.117C3.29102 113.117 2.96484 113.07 2.65625 112.977C2.35156 112.879 2.07812 112.732 1.83594 112.537C1.59766 112.338 1.40234 112.092 1.25 111.799C1.10156 111.502 1.00781 111.154 0.96875 110.756H2C2.04688 111.076 2.14062 111.346 2.28125 111.564C2.42188 111.783 2.60547 111.949 2.83203 112.062C3.0625 112.172 3.33008 112.227 3.63477 112.227C3.89258 112.227 4.12109 112.182 4.32031 112.092C4.51953 112.002 4.6875 111.873 4.82422 111.705C4.96094 111.537 5.06445 111.334 5.13477 111.096C5.20898 110.857 5.24609 110.59 5.24609 110.293C5.24609 110.023 5.20898 109.773 5.13477 109.543C5.06055 109.312 4.94922 109.111 4.80078 108.939C4.65625 108.768 4.47852 108.635 4.26758 108.541C4.05664 108.443 3.81445 108.395 3.54102 108.395C3.17773 108.395 2.90234 108.443 2.71484 108.541C2.53125 108.639 2.3418 108.771 2.14648 108.939ZM9.10742 108.201H9.88086C10.2598 108.201 10.5723 108.139 10.8184 108.014C11.0684 107.885 11.2539 107.711 11.375 107.492C11.5 107.27 11.5625 107.02 11.5625 106.742C11.5625 106.414 11.5078 106.139 11.3984 105.916C11.2891 105.693 11.125 105.525 10.9062 105.412C10.6875 105.299 10.4102 105.242 10.0742 105.242C9.76953 105.242 9.5 105.303 9.26562 105.424C9.03516 105.541 8.85352 105.709 8.7207 105.928C8.5918 106.146 8.52734 106.404 8.52734 106.701H7.44336C7.44336 106.268 7.55273 105.873 7.77148 105.518C7.99023 105.162 8.29688 104.879 8.69141 104.668C9.08984 104.457 9.55078 104.352 10.0742 104.352C10.5898 104.352 11.041 104.443 11.4277 104.627C11.8145 104.807 12.1152 105.076 12.3301 105.436C12.5449 105.791 12.6523 106.234 12.6523 106.766C12.6523 106.98 12.6016 107.211 12.5 107.457C12.4023 107.699 12.248 107.926 12.0371 108.137C11.8301 108.348 11.5605 108.521 11.2285 108.658C10.8965 108.791 10.498 108.857 10.0332 108.857H9.10742V108.201ZM9.10742 109.092V108.441H10.0332C10.5762 108.441 11.0254 108.506 11.3809 108.635C11.7363 108.764 12.0156 108.936 12.2188 109.15C12.4258 109.365 12.5703 109.602 12.6523 109.859C12.7383 110.113 12.7812 110.367 12.7812 110.621C12.7812 111.02 12.7129 111.373 12.5762 111.682C12.4434 111.99 12.2539 112.252 12.0078 112.467C11.7656 112.682 11.4805 112.844 11.1523 112.953C10.8242 113.062 10.4668 113.117 10.0801 113.117C9.70898 113.117 9.35938 113.064 9.03125 112.959C8.70703 112.854 8.41992 112.701 8.16992 112.502C7.91992 112.299 7.72461 112.051 7.58398 111.758C7.44336 111.461 7.37305 111.123 7.37305 110.744H8.45703C8.45703 111.041 8.52148 111.301 8.65039 111.523C8.7832 111.746 8.9707 111.92 9.21289 112.045C9.45898 112.166 9.74805 112.227 10.0801 112.227C10.4121 112.227 10.6973 112.17 10.9355 112.057C11.1777 111.939 11.3633 111.764 11.4922 111.529C11.625 111.295 11.6914 111 11.6914 110.645C11.6914 110.289 11.6172 109.998 11.4688 109.771C11.3203 109.541 11.1094 109.371 10.8359 109.262C10.5664 109.148 10.248 109.092 9.88086 109.092H9.10742ZM19.6309 108.055V109.355C19.6309 110.055 19.5684 110.645 19.4434 111.125C19.3184 111.605 19.1387 111.992 18.9043 112.285C18.6699 112.578 18.3867 112.791 18.0547 112.924C17.7266 113.053 17.3555 113.117 16.9414 113.117C16.6133 113.117 16.3105 113.076 16.0332 112.994C15.7559 112.912 15.5059 112.781 15.2832 112.602C15.0645 112.418 14.877 112.18 14.7207 111.887C14.5645 111.594 14.4453 111.238 14.3633 110.82C14.2812 110.402 14.2402 109.914 14.2402 109.355V108.055C14.2402 107.355 14.3027 106.77 14.4277 106.297C14.5566 105.824 14.7383 105.445 14.9727 105.16C15.207 104.871 15.4883 104.664 15.8164 104.539C16.1484 104.414 16.5195 104.352 16.9297 104.352C17.2617 104.352 17.5664 104.393 17.8438 104.475C18.125 104.553 18.375 104.68 18.5938 104.855C18.8125 105.027 18.998 105.258 19.1504 105.547C19.3066 105.832 19.4258 106.182 19.5078 106.596C19.5898 107.01 19.6309 107.496 19.6309 108.055ZM18.541 109.531V107.873C18.541 107.49 18.5176 107.154 18.4707 106.865C18.4277 106.572 18.3633 106.322 18.2773 106.115C18.1914 105.908 18.082 105.74 17.9492 105.611C17.8203 105.482 17.6699 105.389 17.498 105.33C17.3301 105.268 17.1406 105.236 16.9297 105.236C16.6719 105.236 16.4434 105.285 16.2441 105.383C16.0449 105.477 15.877 105.627 15.7402 105.834C15.6074 106.041 15.5059 106.312 15.4355 106.648C15.3652 106.984 15.3301 107.393 15.3301 107.873V109.531C15.3301 109.914 15.3516 110.252 15.3945 110.545C15.4414 110.838 15.5098 111.092 15.5996 111.307C15.6895 111.518 15.7988 111.691 15.9277 111.828C16.0566 111.965 16.2051 112.066 16.373 112.133C16.5449 112.195 16.7344 112.227 16.9414 112.227C17.207 112.227 17.4395 112.176 17.6387 112.074C17.8379 111.973 18.0039 111.814 18.1367 111.6C18.2734 111.381 18.375 111.102 18.4414 110.762C18.5078 110.418 18.541 110.008 18.541 109.531ZM22.127 111.711V112.584C22.127 112.939 22.0371 113.314 21.8574 113.709C21.6777 114.107 21.4258 114.439 21.1016 114.705L20.4863 114.277C20.6113 114.105 20.7168 113.93 20.8027 113.75C20.8887 113.574 20.9531 113.391 20.9961 113.199C21.043 113.012 21.0664 112.812 21.0664 112.602V111.711H22.127ZM28.748 108.055V109.355C28.748 110.055 28.6855 110.645 28.5605 111.125C28.4355 111.605 28.2559 111.992 28.0215 112.285C27.7871 112.578 27.5039 112.791 27.1719 112.924C26.8438 113.053 26.4727 113.117 26.0586 113.117C25.7305 113.117 25.4277 113.076 25.1504 112.994C24.873 112.912 24.623 112.781 24.4004 112.602C24.1816 112.418 23.9941 112.18 23.8379 111.887C23.6816 111.594 23.5625 111.238 23.4805 110.82C23.3984 110.402 23.3574 109.914 23.3574 109.355V108.055C23.3574 107.355 23.4199 106.77 23.5449 106.297C23.6738 105.824 23.8555 105.445 24.0898 105.16C24.3242 104.871 24.6055 104.664 24.9336 104.539C25.2656 104.414 25.6367 104.352 26.0469 104.352C26.3789 104.352 26.6836 104.393 26.9609 104.475C27.2422 104.553 27.4922 104.68 27.7109 104.855C27.9297 105.027 28.1152 105.258 28.2676 105.547C28.4238 105.832 28.543 106.182 28.625 106.596C28.707 107.01 28.748 107.496 28.748 108.055ZM27.6582 109.531V107.873C27.6582 107.49 27.6348 107.154 27.5879 106.865C27.5449 106.572 27.4805 106.322 27.3945 106.115C27.3086 105.908 27.1992 105.74 27.0664 105.611C26.9375 105.482 26.7871 105.389 26.6152 105.33C26.4473 105.268 26.2578 105.236 26.0469 105.236C25.7891 105.236 25.5605 105.285 25.3613 105.383C25.1621 105.477 24.9941 105.627 24.8574 105.834C24.7246 106.041 24.623 106.312 24.5527 106.648C24.4824 106.984 24.4473 107.393 24.4473 107.873V109.531C24.4473 109.914 24.4688 110.252 24.5117 110.545C24.5586 110.838 24.627 111.092 24.7168 111.307C24.8066 111.518 24.916 111.691 25.0449 111.828C25.1738 111.965 25.3223 112.066 25.4902 112.133C25.6621 112.195 25.8516 112.227 26.0586 112.227C26.3242 112.227 26.5566 112.176 26.7559 112.074C26.9551 111.973 27.1211 111.814 27.2539 111.6C27.3906 111.381 27.4922 111.102 27.5586 110.762C27.625 110.418 27.6582 110.008 27.6582 109.531ZM35.498 108.055V109.355C35.498 110.055 35.4355 110.645 35.3105 111.125C35.1855 111.605 35.0059 111.992 34.7715 112.285C34.5371 112.578 34.2539 112.791 33.9219 112.924C33.5938 113.053 33.2227 113.117 32.8086 113.117C32.4805 113.117 32.1777 113.076 31.9004 112.994C31.623 112.912 31.373 112.781 31.1504 112.602C30.9316 112.418 30.7441 112.18 30.5879 111.887C30.4316 111.594 30.3125 111.238 30.2305 110.82C30.1484 110.402 30.1074 109.914 30.1074 109.355V108.055C30.1074 107.355 30.1699 106.77 30.2949 106.297C30.4238 105.824 30.6055 105.445 30.8398 105.16C31.0742 104.871 31.3555 104.664 31.6836 104.539C32.0156 104.414 32.3867 104.352 32.7969 104.352C33.1289 104.352 33.4336 104.393 33.7109 104.475C33.9922 104.553 34.2422 104.68 34.4609 104.855C34.6797 105.027 34.8652 105.258 35.0176 105.547C35.1738 105.832 35.293 106.182 35.375 106.596C35.457 107.01 35.498 107.496 35.498 108.055ZM34.4082 109.531V107.873C34.4082 107.49 34.3848 107.154 34.3379 106.865C34.2949 106.572 34.2305 106.322 34.1445 106.115C34.0586 105.908 33.9492 105.74 33.8164 105.611C33.6875 105.482 33.5371 105.389 33.3652 105.33C33.1973 105.268 33.0078 105.236 32.7969 105.236C32.5391 105.236 32.3105 105.285 32.1113 105.383C31.9121 105.477 31.7441 105.627 31.6074 105.834C31.4746 106.041 31.373 106.312 31.3027 106.648C31.2324 106.984 31.1973 107.393 31.1973 107.873V109.531C31.1973 109.914 31.2188 110.252 31.2617 110.545C31.3086 110.838 31.377 111.092 31.4668 111.307C31.5566 111.518 31.666 111.691 31.7949 111.828C31.9238 111.965 32.0723 112.066 32.2402 112.133C32.4121 112.195 32.6016 112.227 32.8086 112.227C33.0742 112.227 33.3066 112.176 33.5059 112.074C33.7051 111.973 33.8711 111.814 34.0039 111.6C34.1406 111.381 34.2422 111.102 34.3086 110.762C34.375 110.418 34.4082 110.008 34.4082 109.531ZM42.248 108.055V109.355C42.248 110.055 42.1855 110.645 42.0605 111.125C41.9355 111.605 41.7559 111.992 41.5215 112.285C41.2871 112.578 41.0039 112.791 40.6719 112.924C40.3438 113.053 39.9727 113.117 39.5586 113.117C39.2305 113.117 38.9277 113.076 38.6504 112.994C38.373 112.912 38.123 112.781 37.9004 112.602C37.6816 112.418 37.4941 112.18 37.3379 111.887C37.1816 111.594 37.0625 111.238 36.9805 110.82C36.8984 110.402 36.8574 109.914 36.8574 109.355V108.055C36.8574 107.355 36.9199 106.77 37.0449 106.297C37.1738 105.824 37.3555 105.445 37.5898 105.16C37.8242 104.871 38.1055 104.664 38.4336 104.539C38.7656 104.414 39.1367 104.352 39.5469 104.352C39.8789 104.352 40.1836 104.393 40.4609 104.475C40.7422 104.553 40.9922 104.68 41.2109 104.855C41.4297 105.027 41.6152 105.258 41.7676 105.547C41.9238 105.832 42.043 106.182 42.125 106.596C42.207 107.01 42.248 107.496 42.248 108.055ZM41.1582 109.531V107.873C41.1582 107.49 41.1348 107.154 41.0879 106.865C41.0449 106.572 40.9805 106.322 40.8945 106.115C40.8086 105.908 40.6992 105.74 40.5664 105.611C40.4375 105.482 40.2871 105.389 40.1152 105.33C39.9473 105.268 39.7578 105.236 39.5469 105.236C39.2891 105.236 39.0605 105.285 38.8613 105.383C38.6621 105.477 38.4941 105.627 38.3574 105.834C38.2246 106.041 38.123 106.312 38.0527 106.648C37.9824 106.984 37.9473 107.393 37.9473 107.873V109.531C37.9473 109.914 37.9688 110.252 38.0117 110.545C38.0586 110.838 38.127 111.092 38.2168 111.307C38.3066 111.518 38.416 111.691 38.5449 111.828C38.6738 111.965 38.8223 112.066 38.9902 112.133C39.1621 112.195 39.3516 112.227 39.5586 112.227C39.8242 112.227 40.0566 112.176 40.2559 112.074C40.4551 111.973 40.6211 111.814 40.7539 111.6C40.8906 111.381 40.9922 111.102 41.0586 110.762C41.125 110.418 41.1582 110.008 41.1582 109.531Z" fill="#606368"/>
<path d="M2.14648 132.939L1.2793 132.717L1.70703 128.469H6.08398V129.471H2.62695L2.36914 131.791C2.52539 131.701 2.72266 131.617 2.96094 131.539C3.20312 131.461 3.48047 131.422 3.79297 131.422C4.1875 131.422 4.54102 131.49 4.85352 131.627C5.16602 131.76 5.43164 131.951 5.65039 132.201C5.87305 132.451 6.04297 132.752 6.16016 133.104C6.27734 133.455 6.33594 133.848 6.33594 134.281C6.33594 134.691 6.2793 135.068 6.16602 135.412C6.05664 135.756 5.89062 136.057 5.66797 136.314C5.44531 136.568 5.16406 136.766 4.82422 136.906C4.48828 137.047 4.0918 137.117 3.63477 137.117C3.29102 137.117 2.96484 137.07 2.65625 136.977C2.35156 136.879 2.07812 136.732 1.83594 136.537C1.59766 136.338 1.40234 136.092 1.25 135.799C1.10156 135.502 1.00781 135.154 0.96875 134.756H2C2.04688 135.076 2.14062 135.346 2.28125 135.564C2.42188 135.783 2.60547 135.949 2.83203 136.062C3.0625 136.172 3.33008 136.227 3.63477 136.227C3.89258 136.227 4.12109 136.182 4.32031 136.092C4.51953 136.002 4.6875 135.873 4.82422 135.705C4.96094 135.537 5.06445 135.334 5.13477 135.096C5.20898 134.857 5.24609 134.59 5.24609 134.293C5.24609 134.023 5.20898 133.773 5.13477 133.543C5.06055 133.312 4.94922 133.111 4.80078 132.939C4.65625 132.768 4.47852 132.635 4.26758 132.541C4.05664 132.443 3.81445 132.395 3.54102 132.395C3.17773 132.395 2.90234 132.443 2.71484 132.541C2.53125 132.639 2.3418 132.771 2.14648 132.939ZM9.10742 132.201H9.88086C10.2598 132.201 10.5723 132.139 10.8184 132.014C11.0684 131.885 11.2539 131.711 11.375 131.492C11.5 131.27 11.5625 131.02 11.5625 130.742C11.5625 130.414 11.5078 130.139 11.3984 129.916C11.2891 129.693 11.125 129.525 10.9062 129.412C10.6875 129.299 10.4102 129.242 10.0742 129.242C9.76953 129.242 9.5 129.303 9.26562 129.424C9.03516 129.541 8.85352 129.709 8.7207 129.928C8.5918 130.146 8.52734 130.404 8.52734 130.701H7.44336C7.44336 130.268 7.55273 129.873 7.77148 129.518C7.99023 129.162 8.29688 128.879 8.69141 128.668C9.08984 128.457 9.55078 128.352 10.0742 128.352C10.5898 128.352 11.041 128.443 11.4277 128.627C11.8145 128.807 12.1152 129.076 12.3301 129.436C12.5449 129.791 12.6523 130.234 12.6523 130.766C12.6523 130.98 12.6016 131.211 12.5 131.457C12.4023 131.699 12.248 131.926 12.0371 132.137C11.8301 132.348 11.5605 132.521 11.2285 132.658C10.8965 132.791 10.498 132.857 10.0332 132.857H9.10742V132.201ZM9.10742 133.092V132.441H10.0332C10.5762 132.441 11.0254 132.506 11.3809 132.635C11.7363 132.764 12.0156 132.936 12.2188 133.15C12.4258 133.365 12.5703 133.602 12.6523 133.859C12.7383 134.113 12.7812 134.367 12.7812 134.621C12.7812 135.02 12.7129 135.373 12.5762 135.682C12.4434 135.99 12.2539 136.252 12.0078 136.467C11.7656 136.682 11.4805 136.844 11.1523 136.953C10.8242 137.062 10.4668 137.117 10.0801 137.117C9.70898 137.117 9.35938 137.064 9.03125 136.959C8.70703 136.854 8.41992 136.701 8.16992 136.502C7.91992 136.299 7.72461 136.051 7.58398 135.758C7.44336 135.461 7.37305 135.123 7.37305 134.744H8.45703C8.45703 135.041 8.52148 135.301 8.65039 135.523C8.7832 135.746 8.9707 135.92 9.21289 136.045C9.45898 136.166 9.74805 136.227 10.0801 136.227C10.4121 136.227 10.6973 136.17 10.9355 136.057C11.1777 135.939 11.3633 135.764 11.4922 135.529C11.625 135.295 11.6914 135 11.6914 134.645C11.6914 134.289 11.6172 133.998 11.4688 133.771C11.3203 133.541 11.1094 133.371 10.8359 133.262C10.5664 133.148 10.248 133.092 9.88086 133.092H9.10742ZM19.6309 132.055V133.355C19.6309 134.055 19.5684 134.645 19.4434 135.125C19.3184 135.605 19.1387 135.992 18.9043 136.285C18.6699 136.578 18.3867 136.791 18.0547 136.924C17.7266 137.053 17.3555 137.117 16.9414 137.117C16.6133 137.117 16.3105 137.076 16.0332 136.994C15.7559 136.912 15.5059 136.781 15.2832 136.602C15.0645 136.418 14.877 136.18 14.7207 135.887C14.5645 135.594 14.4453 135.238 14.3633 134.82C14.2812 134.402 14.2402 133.914 14.2402 133.355V132.055C14.2402 131.355 14.3027 130.77 14.4277 130.297C14.5566 129.824 14.7383 129.445 14.9727 129.16C15.207 128.871 15.4883 128.664 15.8164 128.539C16.1484 128.414 16.5195 128.352 16.9297 128.352C17.2617 128.352 17.5664 128.393 17.8438 128.475C18.125 128.553 18.375 128.68 18.5938 128.855C18.8125 129.027 18.998 129.258 19.1504 129.547C19.3066 129.832 19.4258 130.182 19.5078 130.596C19.5898 131.01 19.6309 131.496 19.6309 132.055ZM18.541 133.531V131.873C18.541 131.49 18.5176 131.154 18.4707 130.865C18.4277 130.572 18.3633 130.322 18.2773 130.115C18.1914 129.908 18.082 129.74 17.9492 129.611C17.8203 129.482 17.6699 129.389 17.498 129.33C17.3301 129.268 17.1406 129.236 16.9297 129.236C16.6719 129.236 16.4434 129.285 16.2441 129.383C16.0449 129.477 15.877 129.627 15.7402 129.834C15.6074 130.041 15.5059 130.312 15.4355 130.648C15.3652 130.984 15.3301 131.393 15.3301 131.873V133.531C15.3301 133.914 15.3516 134.252 15.3945 134.545C15.4414 134.838 15.5098 135.092 15.5996 135.307C15.6895 135.518 15.7988 135.691 15.9277 135.828C16.0566 135.965 16.2051 136.066 16.373 136.133C16.5449 136.195 16.7344 136.227 16.9414 136.227C17.207 136.227 17.4395 136.176 17.6387 136.074C17.8379 135.973 18.0039 135.814 18.1367 135.6C18.2734 135.381 18.375 135.102 18.4414 134.762C18.5078 134.418 18.541 134.008 18.541 133.531ZM22.127 135.711V136.584C22.127 136.939 22.0371 137.314 21.8574 137.709C21.6777 138.107 21.4258 138.439 21.1016 138.705L20.4863 138.277C20.6113 138.105 20.7168 137.93 20.8027 137.75C20.8887 137.574 20.9531 137.391 20.9961 137.199C21.043 137.012 21.0664 136.812 21.0664 136.602V135.711H22.127ZM28.748 132.055V133.355C28.748 134.055 28.6855 134.645 28.5605 135.125C28.4355 135.605 28.2559 135.992 28.0215 136.285C27.7871 136.578 27.5039 136.791 27.1719 136.924C26.8438 137.053 26.4727 137.117 26.0586 137.117C25.7305 137.117 25.4277 137.076 25.1504 136.994C24.873 136.912 24.623 136.781 24.4004 136.602C24.1816 136.418 23.9941 136.18 23.8379 135.887C23.6816 135.594 23.5625 135.238 23.4805 134.82C23.3984 134.402 23.3574 133.914 23.3574 133.355V132.055C23.3574 131.355 23.4199 130.77 23.5449 130.297C23.6738 129.824 23.8555 129.445 24.0898 129.16C24.3242 128.871 24.6055 128.664 24.9336 128.539C25.2656 128.414 25.6367 128.352 26.0469 128.352C26.3789 128.352 26.6836 128.393 26.9609 128.475C27.2422 128.553 27.4922 128.68 27.7109 128.855C27.9297 129.027 28.1152 129.258 28.2676 129.547C28.4238 129.832 28.543 130.182 28.625 130.596C28.707 131.01 28.748 131.496 28.748 132.055ZM27.6582 133.531V131.873C27.6582 131.49 27.6348 131.154 27.5879 130.865C27.5449 130.572 27.4805 130.322 27.3945 130.115C27.3086 129.908 27.1992 129.74 27.0664 129.611C26.9375 129.482 26.7871 129.389 26.6152 129.33C26.4473 129.268 26.2578 129.236 26.0469 129.236C25.7891 129.236 25.5605 129.285 25.3613 129.383C25.1621 129.477 24.9941 129.627 24.8574 129.834C24.7246 130.041 24.623 130.312 24.5527 130.648C24.4824 130.984 24.4473 131.393 24.4473 131.873V133.531C24.4473 133.914 24.4688 134.252 24.5117 134.545C24.5586 134.838 24.627 135.092 24.7168 135.307C24.8066 135.518 24.916 135.691 25.0449 135.828C25.1738 135.965 25.3223 136.066 25.4902 136.133C25.6621 136.195 25.8516 136.227 26.0586 136.227C26.3242 136.227 26.5566 136.176 26.7559 136.074C26.9551 135.973 27.1211 135.814 27.2539 135.6C27.3906 135.381 27.4922 135.102 27.5586 134.762C27.625 134.418 27.6582 134.008 27.6582 133.531ZM35.498 132.055V133.355C35.498 134.055 35.4355 134.645 35.3105 135.125C35.1855 135.605 35.0059 135.992 34.7715 136.285C34.5371 136.578 34.2539 136.791 33.9219 136.924C33.5938 137.053 33.2227 137.117 32.8086 137.117C32.4805 137.117 32.1777 137.076 31.9004 136.994C31.623 136.912 31.373 136.781 31.1504 136.602C30.9316 136.418 30.7441 136.18 30.5879 135.887C30.4316 135.594 30.3125 135.238 30.2305 134.82C30.1484 134.402 30.1074 133.914 30.1074 133.355V132.055C30.1074 131.355 30.1699 130.77 30.2949 130.297C30.4238 129.824 30.6055 129.445 30.8398 129.16C31.0742 128.871 31.3555 128.664 31.6836 128.539C32.0156 128.414 32.3867 128.352 32.7969 128.352C33.1289 128.352 33.4336 128.393 33.7109 128.475C33.9922 128.553 34.2422 128.68 34.4609 128.855C34.6797 129.027 34.8652 129.258 35.0176 129.547C35.1738 129.832 35.293 130.182 35.375 130.596C35.457 131.01 35.498 131.496 35.498 132.055ZM34.4082 133.531V131.873C34.4082 131.49 34.3848 131.154 34.3379 130.865C34.2949 130.572 34.2305 130.322 34.1445 130.115C34.0586 129.908 33.9492 129.74 33.8164 129.611C33.6875 129.482 33.5371 129.389 33.3652 129.33C33.1973 129.268 33.0078 129.236 32.7969 129.236C32.5391 129.236 32.3105 129.285 32.1113 129.383C31.9121 129.477 31.7441 129.627 31.6074 129.834C31.4746 130.041 31.373 130.312 31.3027 130.648C31.2324 130.984 31.1973 131.393 31.1973 131.873V133.531C31.1973 133.914 31.2188 134.252 31.2617 134.545C31.3086 134.838 31.377 135.092 31.4668 135.307C31.5566 135.518 31.666 135.691 31.7949 135.828C31.9238 135.965 32.0723 136.066 32.2402 136.133C32.4121 136.195 32.6016 136.227 32.8086 136.227C33.0742 136.227 33.3066 136.176 33.5059 136.074C33.7051 135.973 33.8711 135.814 34.0039 135.6C34.1406 135.381 34.2422 135.102 34.3086 134.762C34.375 134.418 34.4082 134.008 34.4082 133.531ZM42.248 132.055V133.355C42.248 134.055 42.1855 134.645 42.0605 135.125C41.9355 135.605 41.7559 135.992 41.5215 136.285C41.2871 136.578 41.0039 136.791 40.6719 136.924C40.3438 137.053 39.9727 137.117 39.5586 137.117C39.2305 137.117 38.9277 137.076 38.6504 136.994C38.373 136.912 38.123 136.781 37.9004 136.602C37.6816 136.418 37.4941 136.18 37.3379 135.887C37.1816 135.594 37.0625 135.238 36.9805 134.82C36.8984 134.402 36.8574 133.914 36.8574 133.355V132.055C36.8574 131.355 36.9199 130.77 37.0449 130.297C37.1738 129.824 37.3555 129.445 37.5898 129.16C37.8242 128.871 38.1055 128.664 38.4336 128.539C38.7656 128.414 39.1367 128.352 39.5469 128.352C39.8789 128.352 40.1836 128.393 40.4609 128.475C40.7422 128.553 40.9922 128.68 41.2109 128.855C41.4297 129.027 41.6152 129.258 41.7676 129.547C41.9238 129.832 42.043 130.182 42.125 130.596C42.207 131.01 42.248 131.496 42.248 132.055ZM41.1582 133.531V131.873C41.1582 131.49 41.1348 131.154 41.0879 130.865C41.0449 130.572 40.9805 130.322 40.8945 130.115C40.8086 129.908 40.6992 129.74 40.5664 129.611C40.4375 129.482 40.2871 129.389 40.1152 129.33C39.9473 129.268 39.7578 129.236 39.5469 129.236C39.2891 129.236 39.0605 129.285 38.8613 129.383C38.6621 129.477 38.4941 129.627 38.3574 129.834C38.2246 130.041 38.123 130.312 38.0527 130.648C37.9824 130.984 37.9473 131.393 37.9473 131.873V133.531C37.9473 133.914 37.9688 134.252 38.0117 134.545C38.0586 134.838 38.127 135.092 38.2168 135.307C38.3066 135.518 38.416 135.691 38.5449 135.828C38.6738 135.965 38.8223 136.066 38.9902 136.133C39.1621 136.195 39.3516 136.227 39.5586 136.227C39.8242 136.227 40.0566 136.176 40.2559 136.074C40.4551 135.973 40.6211 135.814 40.7539 135.6C40.8906 135.381 40.9922 135.102 41.0586 134.762C41.125 134.418 41.1582 134.008 41.1582 133.531Z" fill="#606368"/>
<path d="M2.14648 156.939L1.2793 156.717L1.70703 152.469H6.08398V153.471H2.62695L2.36914 155.791C2.52539 155.701 2.72266 155.617 2.96094 155.539C3.20312 155.461 3.48047 155.422 3.79297 155.422C4.1875 155.422 4.54102 155.49 4.85352 155.627C5.16602 155.76 5.43164 155.951 5.65039 156.201C5.87305 156.451 6.04297 156.752 6.16016 157.104C6.27734 157.455 6.33594 157.848 6.33594 158.281C6.33594 158.691 6.2793 159.068 6.16602 159.412C6.05664 159.756 5.89062 160.057 5.66797 160.314C5.44531 160.568 5.16406 160.766 4.82422 160.906C4.48828 161.047 4.0918 161.117 3.63477 161.117C3.29102 161.117 2.96484 161.07 2.65625 160.977C2.35156 160.879 2.07812 160.732 1.83594 160.537C1.59766 160.338 1.40234 160.092 1.25 159.799C1.10156 159.502 1.00781 159.154 0.96875 158.756H2C2.04688 159.076 2.14062 159.346 2.28125 159.564C2.42188 159.783 2.60547 159.949 2.83203 160.062C3.0625 160.172 3.33008 160.227 3.63477 160.227C3.89258 160.227 4.12109 160.182 4.32031 160.092C4.51953 160.002 4.6875 159.873 4.82422 159.705C4.96094 159.537 5.06445 159.334 5.13477 159.096C5.20898 158.857 5.24609 158.59 5.24609 158.293C5.24609 158.023 5.20898 157.773 5.13477 157.543C5.06055 157.312 4.94922 157.111 4.80078 156.939C4.65625 156.768 4.47852 156.635 4.26758 156.541C4.05664 156.443 3.81445 156.395 3.54102 156.395C3.17773 156.395 2.90234 156.443 2.71484 156.541C2.53125 156.639 2.3418 156.771 2.14648 156.939ZM9.10742 156.201H9.88086C10.2598 156.201 10.5723 156.139 10.8184 156.014C11.0684 155.885 11.2539 155.711 11.375 155.492C11.5 155.27 11.5625 155.02 11.5625 154.742C11.5625 154.414 11.5078 154.139 11.3984 153.916C11.2891 153.693 11.125 153.525 10.9062 153.412C10.6875 153.299 10.4102 153.242 10.0742 153.242C9.76953 153.242 9.5 153.303 9.26562 153.424C9.03516 153.541 8.85352 153.709 8.7207 153.928C8.5918 154.146 8.52734 154.404 8.52734 154.701H7.44336C7.44336 154.268 7.55273 153.873 7.77148 153.518C7.99023 153.162 8.29688 152.879 8.69141 152.668C9.08984 152.457 9.55078 152.352 10.0742 152.352C10.5898 152.352 11.041 152.443 11.4277 152.627C11.8145 152.807 12.1152 153.076 12.3301 153.436C12.5449 153.791 12.6523 154.234 12.6523 154.766C12.6523 154.98 12.6016 155.211 12.5 155.457C12.4023 155.699 12.248 155.926 12.0371 156.137C11.8301 156.348 11.5605 156.521 11.2285 156.658C10.8965 156.791 10.498 156.857 10.0332 156.857H9.10742V156.201ZM9.10742 157.092V156.441H10.0332C10.5762 156.441 11.0254 156.506 11.3809 156.635C11.7363 156.764 12.0156 156.936 12.2188 157.15C12.4258 157.365 12.5703 157.602 12.6523 157.859C12.7383 158.113 12.7812 158.367 12.7812 158.621C12.7812 159.02 12.7129 159.373 12.5762 159.682C12.4434 159.99 12.2539 160.252 12.0078 160.467C11.7656 160.682 11.4805 160.844 11.1523 160.953C10.8242 161.062 10.4668 161.117 10.0801 161.117C9.70898 161.117 9.35938 161.064 9.03125 160.959C8.70703 160.854 8.41992 160.701 8.16992 160.502C7.91992 160.299 7.72461 160.051 7.58398 159.758C7.44336 159.461 7.37305 159.123 7.37305 158.744H8.45703C8.45703 159.041 8.52148 159.301 8.65039 159.523C8.7832 159.746 8.9707 159.92 9.21289 160.045C9.45898 160.166 9.74805 160.227 10.0801 160.227C10.4121 160.227 10.6973 160.17 10.9355 160.057C11.1777 159.939 11.3633 159.764 11.4922 159.529C11.625 159.295 11.6914 159 11.6914 158.645C11.6914 158.289 11.6172 157.998 11.4688 157.771C11.3203 157.541 11.1094 157.371 10.8359 157.262C10.5664 157.148 10.248 157.092 9.88086 157.092H9.10742ZM19.6309 156.055V157.355C19.6309 158.055 19.5684 158.645 19.4434 159.125C19.3184 159.605 19.1387 159.992 18.9043 160.285C18.6699 160.578 18.3867 160.791 18.0547 160.924C17.7266 161.053 17.3555 161.117 16.9414 161.117C16.6133 161.117 16.3105 161.076 16.0332 160.994C15.7559 160.912 15.5059 160.781 15.2832 160.602C15.0645 160.418 14.877 160.18 14.7207 159.887C14.5645 159.594 14.4453 159.238 14.3633 158.82C14.2812 158.402 14.2402 157.914 14.2402 157.355V156.055C14.2402 155.355 14.3027 154.77 14.4277 154.297C14.5566 153.824 14.7383 153.445 14.9727 153.16C15.207 152.871 15.4883 152.664 15.8164 152.539C16.1484 152.414 16.5195 152.352 16.9297 152.352C17.2617 152.352 17.5664 152.393 17.8438 152.475C18.125 152.553 18.375 152.68 18.5938 152.855C18.8125 153.027 18.998 153.258 19.1504 153.547C19.3066 153.832 19.4258 154.182 19.5078 154.596C19.5898 155.01 19.6309 155.496 19.6309 156.055ZM18.541 157.531V155.873C18.541 155.49 18.5176 155.154 18.4707 154.865C18.4277 154.572 18.3633 154.322 18.2773 154.115C18.1914 153.908 18.082 153.74 17.9492 153.611C17.8203 153.482 17.6699 153.389 17.498 153.33C17.3301 153.268 17.1406 153.236 16.9297 153.236C16.6719 153.236 16.4434 153.285 16.2441 153.383C16.0449 153.477 15.877 153.627 15.7402 153.834C15.6074 154.041 15.5059 154.312 15.4355 154.648C15.3652 154.984 15.3301 155.393 15.3301 155.873V157.531C15.3301 157.914 15.3516 158.252 15.3945 158.545C15.4414 158.838 15.5098 159.092 15.5996 159.307C15.6895 159.518 15.7988 159.691 15.9277 159.828C16.0566 159.965 16.2051 160.066 16.373 160.133C16.5449 160.195 16.7344 160.227 16.9414 160.227C17.207 160.227 17.4395 160.176 17.6387 160.074C17.8379 159.973 18.0039 159.814 18.1367 159.6C18.2734 159.381 18.375 159.102 18.4414 158.762C18.5078 158.418 18.541 158.008 18.541 157.531ZM22.127 159.711V160.584C22.127 160.939 22.0371 161.314 21.8574 161.709C21.6777 162.107 21.4258 162.439 21.1016 162.705L20.4863 162.277C20.6113 162.105 20.7168 161.93 20.8027 161.75C20.8887 161.574 20.9531 161.391 20.9961 161.199C21.043 161.012 21.0664 160.812 21.0664 160.602V159.711H22.127ZM28.748 156.055V157.355C28.748 158.055 28.6855 158.645 28.5605 159.125C28.4355 159.605 28.2559 159.992 28.0215 160.285C27.7871 160.578 27.5039 160.791 27.1719 160.924C26.8438 161.053 26.4727 161.117 26.0586 161.117C25.7305 161.117 25.4277 161.076 25.1504 160.994C24.873 160.912 24.623 160.781 24.4004 160.602C24.1816 160.418 23.9941 160.18 23.8379 159.887C23.6816 159.594 23.5625 159.238 23.4805 158.82C23.3984 158.402 23.3574 157.914 23.3574 157.355V156.055C23.3574 155.355 23.4199 154.77 23.5449 154.297C23.6738 153.824 23.8555 153.445 24.0898 153.16C24.3242 152.871 24.6055 152.664 24.9336 152.539C25.2656 152.414 25.6367 152.352 26.0469 152.352C26.3789 152.352 26.6836 152.393 26.9609 152.475C27.2422 152.553 27.4922 152.68 27.7109 152.855C27.9297 153.027 28.1152 153.258 28.2676 153.547C28.4238 153.832 28.543 154.182 28.625 154.596C28.707 155.01 28.748 155.496 28.748 156.055ZM27.6582 157.531V155.873C27.6582 155.49 27.6348 155.154 27.5879 154.865C27.5449 154.572 27.4805 154.322 27.3945 154.115C27.3086 153.908 27.1992 153.74 27.0664 153.611C26.9375 153.482 26.7871 153.389 26.6152 153.33C26.4473 153.268 26.2578 153.236 26.0469 153.236C25.7891 153.236 25.5605 153.285 25.3613 153.383C25.1621 153.477 24.9941 153.627 24.8574 153.834C24.7246 154.041 24.623 154.312 24.5527 154.648C24.4824 154.984 24.4473 155.393 24.4473 155.873V157.531C24.4473 157.914 24.4688 158.252 24.5117 158.545C24.5586 158.838 24.627 159.092 24.7168 159.307C24.8066 159.518 24.916 159.691 25.0449 159.828C25.1738 159.965 25.3223 160.066 25.4902 160.133C25.6621 160.195 25.8516 160.227 26.0586 160.227C26.3242 160.227 26.5566 160.176 26.7559 160.074C26.9551 159.973 27.1211 159.814 27.2539 159.6C27.3906 159.381 27.4922 159.102 27.5586 158.762C27.625 158.418 27.6582 158.008 27.6582 157.531ZM35.498 156.055V157.355C35.498 158.055 35.4355 158.645 35.3105 159.125C35.1855 159.605 35.0059 159.992 34.7715 160.285C34.5371 160.578 34.2539 160.791 33.9219 160.924C33.5938 161.053 33.2227 161.117 32.8086 161.117C32.4805 161.117 32.1777 161.076 31.9004 160.994C31.623 160.912 31.373 160.781 31.1504 160.602C30.9316 160.418 30.7441 160.18 30.5879 159.887C30.4316 159.594 30.3125 159.238 30.2305 158.82C30.1484 158.402 30.1074 157.914 30.1074 157.355V156.055C30.1074 155.355 30.1699 154.77 30.2949 154.297C30.4238 153.824 30.6055 153.445 30.8398 153.16C31.0742 152.871 31.3555 152.664 31.6836 152.539C32.0156 152.414 32.3867 152.352 32.7969 152.352C33.1289 152.352 33.4336 152.393 33.7109 152.475C33.9922 152.553 34.2422 152.68 34.4609 152.855C34.6797 153.027 34.8652 153.258 35.0176 153.547C35.1738 153.832 35.293 154.182 35.375 154.596C35.457 155.01 35.498 155.496 35.498 156.055ZM34.4082 157.531V155.873C34.4082 155.49 34.3848 155.154 34.3379 154.865C34.2949 154.572 34.2305 154.322 34.1445 154.115C34.0586 153.908 33.9492 153.74 33.8164 153.611C33.6875 153.482 33.5371 153.389 33.3652 153.33C33.1973 153.268 33.0078 153.236 32.7969 153.236C32.5391 153.236 32.3105 153.285 32.1113 153.383C31.9121 153.477 31.7441 153.627 31.6074 153.834C31.4746 154.041 31.373 154.312 31.3027 154.648C31.2324 154.984 31.1973 155.393 31.1973 155.873V157.531C31.1973 157.914 31.2188 158.252 31.2617 158.545C31.3086 158.838 31.377 159.092 31.4668 159.307C31.5566 159.518 31.666 159.691 31.7949 159.828C31.9238 159.965 32.0723 160.066 32.2402 160.133C32.4121 160.195 32.6016 160.227 32.8086 160.227C33.0742 160.227 33.3066 160.176 33.5059 160.074C33.7051 159.973 33.8711 159.814 34.0039 159.6C34.1406 159.381 34.2422 159.102 34.3086 158.762C34.375 158.418 34.4082 158.008 34.4082 157.531ZM42.248 156.055V157.355C42.248 158.055 42.1855 158.645 42.0605 159.125C41.9355 159.605 41.7559 159.992 41.5215 160.285C41.2871 160.578 41.0039 160.791 40.6719 160.924C40.3438 161.053 39.9727 161.117 39.5586 161.117C39.2305 161.117 38.9277 161.076 38.6504 160.994C38.373 160.912 38.123 160.781 37.9004 160.602C37.6816 160.418 37.4941 160.18 37.3379 159.887C37.1816 159.594 37.0625 159.238 36.9805 158.82C36.8984 158.402 36.8574 157.914 36.8574 157.355V156.055C36.8574 155.355 36.9199 154.77 37.0449 154.297C37.1738 153.824 37.3555 153.445 37.5898 153.16C37.8242 152.871 38.1055 152.664 38.4336 152.539C38.7656 152.414 39.1367 152.352 39.5469 152.352C39.8789 152.352 40.1836 152.393 40.4609 152.475C40.7422 152.553 40.9922 152.68 41.2109 152.855C41.4297 153.027 41.6152 153.258 41.7676 153.547C41.9238 153.832 42.043 154.182 42.125 154.596C42.207 155.01 42.248 155.496 42.248 156.055ZM41.1582 157.531V155.873C41.1582 155.49 41.1348 155.154 41.0879 154.865C41.0449 154.572 40.9805 154.322 40.8945 154.115C40.8086 153.908 40.6992 153.74 40.5664 153.611C40.4375 153.482 40.2871 153.389 40.1152 153.33C39.9473 153.268 39.7578 153.236 39.5469 153.236C39.2891 153.236 39.0605 153.285 38.8613 153.383C38.6621 153.477 38.4941 153.627 38.3574 153.834C38.2246 154.041 38.123 154.312 38.0527 154.648C37.9824 154.984 37.9473 155.393 37.9473 155.873V157.531C37.9473 157.914 37.9688 158.252 38.0117 158.545C38.0586 158.838 38.127 159.092 38.2168 159.307C38.3066 159.518 38.416 159.691 38.5449 159.828C38.6738 159.965 38.8223 160.066 38.9902 160.133C39.1621 160.195 39.3516 160.227 39.5586 160.227C39.8242 160.227 40.0566 160.176 40.2559 160.074C40.4551 159.973 40.6211 159.814 40.7539 159.6C40.8906 159.381 40.9922 159.102 41.0586 158.762C41.125 158.418 41.1582 158.008 41.1582 157.531Z" fill="#606368"/>
<path d="M86.3184 171.422V180H85.2344V172.775L83.0488 173.572V172.594L86.1484 171.422H86.3184ZM94.8613 175.055V176.355C94.8613 177.055 94.7988 177.645 94.6738 178.125C94.5488 178.605 94.3691 178.992 94.1348 179.285C93.9004 179.578 93.6172 179.791 93.2852 179.924C92.957 180.053 92.5859 180.117 92.1719 180.117C91.8438 180.117 91.541 180.076 91.2637 179.994C90.9863 179.912 90.7363 179.781 90.5137 179.602C90.2949 179.418 90.1074 179.18 89.9512 178.887C89.7949 178.594 89.6758 178.238 89.5938 177.82C89.5117 177.402 89.4707 176.914 89.4707 176.355V175.055C89.4707 174.355 89.5332 173.77 89.6582 173.297C89.7871 172.824 89.9688 172.445 90.2031 172.16C90.4375 171.871 90.7188 171.664 91.0469 171.539C91.3789 171.414 91.75 171.352 92.1602 171.352C92.4922 171.352 92.7969 171.393 93.0742 171.475C93.3555 171.553 93.6055 171.68 93.8242 171.855C94.043 172.027 94.2285 172.258 94.3809 172.547C94.5371 172.832 94.6562 173.182 94.7383 173.596C94.8203 174.01 94.8613 174.496 94.8613 175.055ZM93.7715 176.531V174.873C93.7715 174.49 93.748 174.154 93.7012 173.865C93.6582 173.572 93.5938 173.322 93.5078 173.115C93.4219 172.908 93.3125 172.74 93.1797 172.611C93.0508 172.482 92.9004 172.389 92.7285 172.33C92.5605 172.268 92.3711 172.236 92.1602 172.236C91.9023 172.236 91.6738 172.285 91.4746 172.383C91.2754 172.477 91.1074 172.627 90.9707 172.834C90.8379 173.041 90.7363 173.312 90.666 173.648C90.5957 173.984 90.5605 174.393 90.5605 174.873V176.531C90.5605 176.914 90.582 177.252 90.625 177.545C90.6719 177.838 90.7402 178.092 90.8301 178.307C90.9199 178.518 91.0293 178.691 91.1582 178.828C91.2871 178.965 91.4355 179.066 91.6035 179.133C91.7754 179.195 91.9648 179.227 92.1719 179.227C92.4375 179.227 92.6699 179.176 92.8691 179.074C93.0684 178.973 93.2344 178.814 93.3672 178.6C93.5039 178.381 93.6055 178.102 93.6719 177.762C93.7383 177.418 93.7715 177.008 93.7715 176.531ZM96.3262 179.426C96.3262 179.242 96.3828 179.088 96.4961 178.963C96.6133 178.834 96.7812 178.77 97 178.77C97.2188 178.77 97.3848 178.834 97.498 178.963C97.6152 179.088 97.6738 179.242 97.6738 179.426C97.6738 179.605 97.6152 179.758 97.498 179.883C97.3848 180.008 97.2188 180.07 97 180.07C96.7812 180.07 96.6133 180.008 96.4961 179.883C96.3828 179.758 96.3262 179.605 96.3262 179.426ZM96.332 174.252C96.332 174.068 96.3887 173.914 96.502 173.789C96.6191 173.66 96.7871 173.596 97.0059 173.596C97.2246 173.596 97.3906 173.66 97.5039 173.789C97.6211 173.914 97.6797 174.068 97.6797 174.252C97.6797 174.432 97.6211 174.584 97.5039 174.709C97.3906 174.834 97.2246 174.896 97.0059 174.896C96.7871 174.896 96.6191 174.834 96.502 174.709C96.3887 174.584 96.332 174.432 96.332 174.252ZM104.518 175.055V176.355C104.518 177.055 104.455 177.645 104.33 178.125C104.205 178.605 104.025 178.992 103.791 179.285C103.557 179.578 103.273 179.791 102.941 179.924C102.613 180.053 102.242 180.117 101.828 180.117C101.5 180.117 101.197 180.076 100.92 179.994C100.643 179.912 100.393 179.781 100.17 179.602C99.9512 179.418 99.7637 179.18 99.6074 178.887C99.4512 178.594 99.332 178.238 99.25 177.82C99.168 177.402 99.127 176.914 99.127 176.355V175.055C99.127 174.355 99.1895 173.77 99.3145 173.297C99.4434 172.824 99.625 172.445 99.8594 172.16C100.094 171.871 100.375 171.664 100.703 171.539C101.035 171.414 101.406 171.352 101.816 171.352C102.148 171.352 102.453 171.393 102.73 171.475C103.012 171.553 103.262 171.68 103.48 171.855C103.699 172.027 103.885 172.258 104.037 172.547C104.193 172.832 104.312 173.182 104.395 173.596C104.477 174.01 104.518 174.496 104.518 175.055ZM103.428 176.531V174.873C103.428 174.49 103.404 174.154 103.357 173.865C103.314 173.572 103.25 173.322 103.164 173.115C103.078 172.908 102.969 172.74 102.836 172.611C102.707 172.482 102.557 172.389 102.385 172.33C102.217 172.268 102.027 172.236 101.816 172.236C101.559 172.236 101.33 172.285 101.131 172.383C100.932 172.477 100.764 172.627 100.627 172.834C100.494 173.041 100.393 173.312 100.322 173.648C100.252 173.984 100.217 174.393 100.217 174.873V176.531C100.217 176.914 100.238 177.252 100.281 177.545C100.328 177.838 100.396 178.092 100.486 178.307C100.576 178.518 100.686 178.691 100.814 178.828C100.943 178.965 101.092 179.066 101.26 179.133C101.432 179.195 101.621 179.227 101.828 179.227C102.094 179.227 102.326 179.176 102.525 179.074C102.725 178.973 102.891 178.814 103.023 178.6C103.16 178.381 103.262 178.102 103.328 177.762C103.395 177.418 103.428 177.008 103.428 176.531ZM111.268 175.055V176.355C111.268 177.055 111.205 177.645 111.08 178.125C110.955 178.605 110.775 178.992 110.541 179.285C110.307 179.578 110.023 179.791 109.691 179.924C109.363 180.053 108.992 180.117 108.578 180.117C108.25 180.117 107.947 180.076 107.67 179.994C107.393 179.912 107.143 179.781 106.92 179.602C106.701 179.418 106.514 179.18 106.357 178.887C106.201 178.594 106.082 178.238 106 177.82C105.918 177.402 105.877 176.914 105.877 176.355V175.055C105.877 174.355 105.939 173.77 106.064 173.297C106.193 172.824 106.375 172.445 106.609 172.16C106.844 171.871 107.125 171.664 107.453 171.539C107.785 171.414 108.156 171.352 108.566 171.352C108.898 171.352 109.203 171.393 109.48 171.475C109.762 171.553 110.012 171.68 110.23 171.855C110.449 172.027 110.635 172.258 110.787 172.547C110.943 172.832 111.062 173.182 111.145 173.596C111.227 174.01 111.268 174.496 111.268 175.055ZM110.178 176.531V174.873C110.178 174.49 110.154 174.154 110.107 173.865C110.064 173.572 110 173.322 109.914 173.115C109.828 172.908 109.719 172.74 109.586 172.611C109.457 172.482 109.307 172.389 109.135 172.33C108.967 172.268 108.777 172.236 108.566 172.236C108.309 172.236 108.08 172.285 107.881 172.383C107.682 172.477 107.514 172.627 107.377 172.834C107.244 173.041 107.143 173.312 107.072 173.648C107.002 173.984 106.967 174.393 106.967 174.873V176.531C106.967 176.914 106.988 177.252 107.031 177.545C107.078 177.838 107.146 178.092 107.236 178.307C107.326 178.518 107.436 178.691 107.564 178.828C107.693 178.965 107.842 179.066 108.01 179.133C108.182 179.195 108.371 179.227 108.578 179.227C108.844 179.227 109.076 179.176 109.275 179.074C109.475 178.973 109.641 178.814 109.773 178.6C109.91 178.381 110.012 178.102 110.078 177.762C110.145 177.418 110.178 177.008 110.178 176.531Z" fill="#606368"/>
<path d="M162.318 171.422V180H161.234V172.775L159.049 173.572V172.594L162.148 171.422H162.318ZM171.096 179.109V180H165.512V179.221L168.307 176.109C168.65 175.727 168.916 175.402 169.104 175.137C169.295 174.867 169.428 174.627 169.502 174.416C169.58 174.201 169.619 173.982 169.619 173.76C169.619 173.479 169.561 173.225 169.443 172.998C169.33 172.768 169.162 172.584 168.939 172.447C168.717 172.311 168.447 172.242 168.131 172.242C167.752 172.242 167.436 172.316 167.182 172.465C166.932 172.609 166.744 172.812 166.619 173.074C166.494 173.336 166.432 173.637 166.432 173.977H165.348C165.348 173.496 165.453 173.057 165.664 172.658C165.875 172.26 166.188 171.943 166.602 171.709C167.016 171.471 167.525 171.352 168.131 171.352C168.67 171.352 169.131 171.447 169.514 171.639C169.896 171.826 170.189 172.092 170.393 172.436C170.6 172.775 170.703 173.174 170.703 173.631C170.703 173.881 170.66 174.135 170.574 174.393C170.492 174.646 170.377 174.9 170.229 175.154C170.084 175.408 169.914 175.658 169.719 175.904C169.527 176.15 169.322 176.393 169.104 176.631L166.818 179.109H171.096ZM172.326 179.426C172.326 179.242 172.383 179.088 172.496 178.963C172.613 178.834 172.781 178.77 173 178.77C173.219 178.77 173.385 178.834 173.498 178.963C173.615 179.088 173.674 179.242 173.674 179.426C173.674 179.605 173.615 179.758 173.498 179.883C173.385 180.008 173.219 180.07 173 180.07C172.781 180.07 172.613 180.008 172.496 179.883C172.383 179.758 172.326 179.605 172.326 179.426ZM172.332 174.252C172.332 174.068 172.389 173.914 172.502 173.789C172.619 173.66 172.787 173.596 173.006 173.596C173.225 173.596 173.391 173.66 173.504 173.789C173.621 173.914 173.68 174.068 173.68 174.252C173.68 174.432 173.621 174.584 173.504 174.709C173.391 174.834 173.225 174.896 173.006 174.896C172.787 174.896 172.619 174.834 172.502 174.709C172.389 174.584 172.332 174.432 172.332 174.252ZM180.518 175.055V176.355C180.518 177.055 180.455 177.645 180.33 178.125C180.205 178.605 180.025 178.992 179.791 179.285C179.557 179.578 179.273 179.791 178.941 179.924C178.613 180.053 178.242 180.117 177.828 180.117C177.5 180.117 177.197 180.076 176.92 179.994C176.643 179.912 176.393 179.781 176.17 179.602C175.951 179.418 175.764 179.18 175.607 178.887C175.451 178.594 175.332 178.238 175.25 177.82C175.168 177.402 175.127 176.914 175.127 176.355V175.055C175.127 174.355 175.189 173.77 175.314 173.297C175.443 172.824 175.625 172.445 175.859 172.16C176.094 171.871 176.375 171.664 176.703 171.539C177.035 171.414 177.406 171.352 177.816 171.352C178.148 171.352 178.453 171.393 178.73 171.475C179.012 171.553 179.262 171.68 179.48 171.855C179.699 172.027 179.885 172.258 180.037 172.547C180.193 172.832 180.312 173.182 180.395 173.596C180.477 174.01 180.518 174.496 180.518 175.055ZM179.428 176.531V174.873C179.428 174.49 179.404 174.154 179.357 173.865C179.314 173.572 179.25 173.322 179.164 173.115C179.078 172.908 178.969 172.74 178.836 172.611C178.707 172.482 178.557 172.389 178.385 172.33C178.217 172.268 178.027 172.236 177.816 172.236C177.559 172.236 177.33 172.285 177.131 172.383C176.932 172.477 176.764 172.627 176.627 172.834C176.494 173.041 176.393 173.312 176.322 173.648C176.252 173.984 176.217 174.393 176.217 174.873V176.531C176.217 176.914 176.238 177.252 176.281 177.545C176.328 177.838 176.396 178.092 176.486 178.307C176.576 178.518 176.686 178.691 176.814 178.828C176.943 178.965 177.092 179.066 177.26 179.133C177.432 179.195 177.621 179.227 177.828 179.227C178.094 179.227 178.326 179.176 178.525 179.074C178.725 178.973 178.891 178.814 179.023 178.6C179.16 178.381 179.262 178.102 179.328 177.762C179.395 177.418 179.428 177.008 179.428 176.531ZM187.268 175.055V176.355C187.268 177.055 187.205 177.645 187.08 178.125C186.955 178.605 186.775 178.992 186.541 179.285C186.307 179.578 186.023 179.791 185.691 179.924C185.363 180.053 184.992 180.117 184.578 180.117C184.25 180.117 183.947 180.076 183.67 179.994C183.393 179.912 183.143 179.781 182.92 179.602C182.701 179.418 182.514 179.18 182.357 178.887C182.201 178.594 182.082 178.238 182 177.82C181.918 177.402 181.877 176.914 181.877 176.355V175.055C181.877 174.355 181.939 173.77 182.064 173.297C182.193 172.824 182.375 172.445 182.609 172.16C182.844 171.871 183.125 171.664 183.453 171.539C183.785 171.414 184.156 171.352 184.566 171.352C184.898 171.352 185.203 171.393 185.48 171.475C185.762 171.553 186.012 171.68 186.23 171.855C186.449 172.027 186.635 172.258 186.787 172.547C186.943 172.832 187.062 173.182 187.145 173.596C187.227 174.01 187.268 174.496 187.268 175.055ZM186.178 176.531V174.873C186.178 174.49 186.154 174.154 186.107 173.865C186.064 173.572 186 173.322 185.914 173.115C185.828 172.908 185.719 172.74 185.586 172.611C185.457 172.482 185.307 172.389 185.135 172.33C184.967 172.268 184.777 172.236 184.566 172.236C184.309 172.236 184.08 172.285 183.881 172.383C183.682 172.477 183.514 172.627 183.377 172.834C183.244 173.041 183.143 173.312 183.072 173.648C183.002 173.984 182.967 174.393 182.967 174.873V176.531C182.967 176.914 182.988 177.252 183.031 177.545C183.078 177.838 183.146 178.092 183.236 178.307C183.326 178.518 183.436 178.691 183.564 178.828C183.693 178.965 183.842 179.066 184.01 179.133C184.182 179.195 184.371 179.227 184.578 179.227C184.844 179.227 185.076 179.176 185.275 179.074C185.475 178.973 185.641 178.814 185.773 178.6C185.91 178.381 186.012 178.102 186.078 177.762C186.145 177.418 186.178 177.008 186.178 176.531Z" fill="#606368"/>
<path d="M234.318 171.422V180H233.234V172.775L231.049 173.572V172.594L234.148 171.422H234.318ZM243.271 177.129V178.02H237.107V177.381L240.928 171.469H241.812L240.863 173.18L238.338 177.129H243.271ZM242.082 171.469V180H240.998V171.469H242.082ZM244.326 179.426C244.326 179.242 244.383 179.088 244.496 178.963C244.613 178.834 244.781 178.77 245 178.77C245.219 178.77 245.385 178.834 245.498 178.963C245.615 179.088 245.674 179.242 245.674 179.426C245.674 179.605 245.615 179.758 245.498 179.883C245.385 180.008 245.219 180.07 245 180.07C244.781 180.07 244.613 180.008 244.496 179.883C244.383 179.758 244.326 179.605 244.326 179.426ZM244.332 174.252C244.332 174.068 244.389 173.914 244.502 173.789C244.619 173.66 244.787 173.596 245.006 173.596C245.225 173.596 245.391 173.66 245.504 173.789C245.621 173.914 245.68 174.068 245.68 174.252C245.68 174.432 245.621 174.584 245.504 174.709C245.391 174.834 245.225 174.896 245.006 174.896C244.787 174.896 244.619 174.834 244.502 174.709C244.389 174.584 244.332 174.432 244.332 174.252ZM252.518 175.055V176.355C252.518 177.055 252.455 177.645 252.33 178.125C252.205 178.605 252.025 178.992 251.791 179.285C251.557 179.578 251.273 179.791 250.941 179.924C250.613 180.053 250.242 180.117 249.828 180.117C249.5 180.117 249.197 180.076 248.92 179.994C248.643 179.912 248.393 179.781 248.17 179.602C247.951 179.418 247.764 179.18 247.607 178.887C247.451 178.594 247.332 178.238 247.25 177.82C247.168 177.402 247.127 176.914 247.127 176.355V175.055C247.127 174.355 247.189 173.77 247.314 173.297C247.443 172.824 247.625 172.445 247.859 172.16C248.094 171.871 248.375 171.664 248.703 171.539C249.035 171.414 249.406 171.352 249.816 171.352C250.148 171.352 250.453 171.393 250.73 171.475C251.012 171.553 251.262 171.68 251.48 171.855C251.699 172.027 251.885 172.258 252.037 172.547C252.193 172.832 252.312 173.182 252.395 173.596C252.477 174.01 252.518 174.496 252.518 175.055ZM251.428 176.531V174.873C251.428 174.49 251.404 174.154 251.357 173.865C251.314 173.572 251.25 173.322 251.164 173.115C251.078 172.908 250.969 172.74 250.836 172.611C250.707 172.482 250.557 172.389 250.385 172.33C250.217 172.268 250.027 172.236 249.816 172.236C249.559 172.236 249.33 172.285 249.131 172.383C248.932 172.477 248.764 172.627 248.627 172.834C248.494 173.041 248.393 173.312 248.322 173.648C248.252 173.984 248.217 174.393 248.217 174.873V176.531C248.217 176.914 248.238 177.252 248.281 177.545C248.328 177.838 248.396 178.092 248.486 178.307C248.576 178.518 248.686 178.691 248.814 178.828C248.943 178.965 249.092 179.066 249.26 179.133C249.432 179.195 249.621 179.227 249.828 179.227C250.094 179.227 250.326 179.176 250.525 179.074C250.725 178.973 250.891 178.814 251.023 178.6C251.16 178.381 251.262 178.102 251.328 177.762C251.395 177.418 251.428 177.008 251.428 176.531ZM259.268 175.055V176.355C259.268 177.055 259.205 177.645 259.08 178.125C258.955 178.605 258.775 178.992 258.541 179.285C258.307 179.578 258.023 179.791 257.691 179.924C257.363 180.053 256.992 180.117 256.578 180.117C256.25 180.117 255.947 180.076 255.67 179.994C255.393 179.912 255.143 179.781 254.92 179.602C254.701 179.418 254.514 179.18 254.357 178.887C254.201 178.594 254.082 178.238 254 177.82C253.918 177.402 253.877 176.914 253.877 176.355V175.055C253.877 174.355 253.939 173.77 254.064 173.297C254.193 172.824 254.375 172.445 254.609 172.16C254.844 171.871 255.125 171.664 255.453 171.539C255.785 171.414 256.156 171.352 256.566 171.352C256.898 171.352 257.203 171.393 257.48 171.475C257.762 171.553 258.012 171.68 258.23 171.855C258.449 172.027 258.635 172.258 258.787 172.547C258.943 172.832 259.062 173.182 259.145 173.596C259.227 174.01 259.268 174.496 259.268 175.055ZM258.178 176.531V174.873C258.178 174.49 258.154 174.154 258.107 173.865C258.064 173.572 258 173.322 257.914 173.115C257.828 172.908 257.719 172.74 257.586 172.611C257.457 172.482 257.307 172.389 257.135 172.33C256.967 172.268 256.777 172.236 256.566 172.236C256.309 172.236 256.08 172.285 255.881 172.383C255.682 172.477 255.514 172.627 255.377 172.834C255.244 173.041 255.143 173.312 255.072 173.648C255.002 173.984 254.967 174.393 254.967 174.873V176.531C254.967 176.914 254.988 177.252 255.031 177.545C255.078 177.838 255.146 178.092 255.236 178.307C255.326 178.518 255.436 178.691 255.564 178.828C255.693 178.965 255.842 179.066 256.01 179.133C256.182 179.195 256.371 179.227 256.578 179.227C256.844 179.227 257.076 179.176 257.275 179.074C257.475 178.973 257.641 178.814 257.773 178.6C257.91 178.381 258.012 178.102 258.078 177.762C258.145 177.418 258.178 177.008 258.178 176.531Z" fill="#606368"/>
<path d="M306.318 171.422V180H305.234V172.775L303.049 173.572V172.594L306.148 171.422H306.318ZM313.666 171.457H313.76V172.377H313.666C313.092 172.377 312.611 172.471 312.225 172.658C311.838 172.842 311.531 173.09 311.305 173.402C311.078 173.711 310.914 174.059 310.812 174.445C310.715 174.832 310.666 175.225 310.666 175.623V176.877C310.666 177.256 310.711 177.592 310.801 177.885C310.891 178.174 311.014 178.418 311.17 178.617C311.326 178.816 311.502 178.967 311.697 179.068C311.896 179.17 312.104 179.221 312.318 179.221C312.568 179.221 312.791 179.174 312.986 179.08C313.182 178.982 313.346 178.848 313.479 178.676C313.615 178.5 313.719 178.293 313.789 178.055C313.859 177.816 313.895 177.555 313.895 177.27C313.895 177.016 313.863 176.771 313.801 176.537C313.738 176.299 313.643 176.088 313.514 175.904C313.385 175.717 313.223 175.57 313.027 175.465C312.836 175.355 312.607 175.301 312.342 175.301C312.041 175.301 311.76 175.375 311.498 175.523C311.24 175.668 311.027 175.859 310.859 176.098C310.695 176.332 310.602 176.588 310.578 176.865L310.004 176.859C310.059 176.422 310.16 176.049 310.309 175.74C310.461 175.428 310.648 175.174 310.871 174.979C311.098 174.779 311.35 174.635 311.627 174.545C311.908 174.451 312.205 174.404 312.518 174.404C312.943 174.404 313.311 174.484 313.619 174.645C313.928 174.805 314.182 175.02 314.381 175.289C314.58 175.555 314.727 175.855 314.82 176.191C314.918 176.523 314.967 176.865 314.967 177.217C314.967 177.619 314.91 177.996 314.797 178.348C314.684 178.699 314.514 179.008 314.287 179.273C314.064 179.539 313.789 179.746 313.461 179.895C313.133 180.043 312.752 180.117 312.318 180.117C311.857 180.117 311.455 180.023 311.111 179.836C310.768 179.645 310.482 179.391 310.256 179.074C310.029 178.758 309.859 178.406 309.746 178.02C309.633 177.633 309.576 177.24 309.576 176.842V176.332C309.576 175.73 309.637 175.141 309.758 174.562C309.879 173.984 310.088 173.461 310.385 172.992C310.686 172.523 311.102 172.15 311.633 171.873C312.164 171.596 312.842 171.457 313.666 171.457ZM316.326 179.426C316.326 179.242 316.383 179.088 316.496 178.963C316.613 178.834 316.781 178.77 317 178.77C317.219 178.77 317.385 178.834 317.498 178.963C317.615 179.088 317.674 179.242 317.674 179.426C317.674 179.605 317.615 179.758 317.498 179.883C317.385 180.008 317.219 180.07 317 180.07C316.781 180.07 316.613 180.008 316.496 179.883C316.383 179.758 316.326 179.605 316.326 179.426ZM316.332 174.252C316.332 174.068 316.389 173.914 316.502 173.789C316.619 173.66 316.787 173.596 317.006 173.596C317.225 173.596 317.391 173.66 317.504 173.789C317.621 173.914 317.68 174.068 317.68 174.252C317.68 174.432 317.621 174.584 317.504 174.709C317.391 174.834 317.225 174.896 317.006 174.896C316.787 174.896 316.619 174.834 316.502 174.709C316.389 174.584 316.332 174.432 316.332 174.252ZM324.518 175.055V176.355C324.518 177.055 324.455 177.645 324.33 178.125C324.205 178.605 324.025 178.992 323.791 179.285C323.557 179.578 323.273 179.791 322.941 179.924C322.613 180.053 322.242 180.117 321.828 180.117C321.5 180.117 321.197 180.076 320.92 179.994C320.643 179.912 320.393 179.781 320.17 179.602C319.951 179.418 319.764 179.18 319.607 178.887C319.451 178.594 319.332 178.238 319.25 177.82C319.168 177.402 319.127 176.914 319.127 176.355V175.055C319.127 174.355 319.189 173.77 319.314 173.297C319.443 172.824 319.625 172.445 319.859 172.16C320.094 171.871 320.375 171.664 320.703 171.539C321.035 171.414 321.406 171.352 321.816 171.352C322.148 171.352 322.453 171.393 322.73 171.475C323.012 171.553 323.262 171.68 323.48 171.855C323.699 172.027 323.885 172.258 324.037 172.547C324.193 172.832 324.312 173.182 324.395 173.596C324.477 174.01 324.518 174.496 324.518 175.055ZM323.428 176.531V174.873C323.428 174.49 323.404 174.154 323.357 173.865C323.314 173.572 323.25 173.322 323.164 173.115C323.078 172.908 322.969 172.74 322.836 172.611C322.707 172.482 322.557 172.389 322.385 172.33C322.217 172.268 322.027 172.236 321.816 172.236C321.559 172.236 321.33 172.285 321.131 172.383C320.932 172.477 320.764 172.627 320.627 172.834C320.494 173.041 320.393 173.312 320.322 173.648C320.252 173.984 320.217 174.393 320.217 174.873V176.531C320.217 176.914 320.238 177.252 320.281 177.545C320.328 177.838 320.396 178.092 320.486 178.307C320.576 178.518 320.686 178.691 320.814 178.828C320.943 178.965 321.092 179.066 321.26 179.133C321.432 179.195 321.621 179.227 321.828 179.227C322.094 179.227 322.326 179.176 322.525 179.074C322.725 178.973 322.891 178.814 323.023 178.6C323.16 178.381 323.262 178.102 323.328 177.762C323.395 177.418 323.428 177.008 323.428 176.531ZM331.268 175.055V176.355C331.268 177.055 331.205 177.645 331.08 178.125C330.955 178.605 330.775 178.992 330.541 179.285C330.307 179.578 330.023 179.791 329.691 179.924C329.363 180.053 328.992 180.117 328.578 180.117C328.25 180.117 327.947 180.076 327.67 179.994C327.393 179.912 327.143 179.781 326.92 179.602C326.701 179.418 326.514 179.18 326.357 178.887C326.201 178.594 326.082 178.238 326 177.82C325.918 177.402 325.877 176.914 325.877 176.355V175.055C325.877 174.355 325.939 173.77 326.064 173.297C326.193 172.824 326.375 172.445 326.609 172.16C326.844 171.871 327.125 171.664 327.453 171.539C327.785 171.414 328.156 171.352 328.566 171.352C328.898 171.352 329.203 171.393 329.48 171.475C329.762 171.553 330.012 171.68 330.23 171.855C330.449 172.027 330.635 172.258 330.787 172.547C330.943 172.832 331.062 173.182 331.145 173.596C331.227 174.01 331.268 174.496 331.268 175.055ZM330.178 176.531V174.873C330.178 174.49 330.154 174.154 330.107 173.865C330.064 173.572 330 173.322 329.914 173.115C329.828 172.908 329.719 172.74 329.586 172.611C329.457 172.482 329.307 172.389 329.135 172.33C328.967 172.268 328.777 172.236 328.566 172.236C328.309 172.236 328.08 172.285 327.881 172.383C327.682 172.477 327.514 172.627 327.377 172.834C327.244 173.041 327.143 173.312 327.072 173.648C327.002 173.984 326.967 174.393 326.967 174.873V176.531C326.967 176.914 326.988 177.252 327.031 177.545C327.078 177.838 327.146 178.092 327.236 178.307C327.326 178.518 327.436 178.691 327.564 178.828C327.693 178.965 327.842 179.066 328.01 179.133C328.182 179.195 328.371 179.227 328.578 179.227C328.844 179.227 329.076 179.176 329.275 179.074C329.475 178.973 329.641 178.814 329.773 178.6C329.91 178.381 330.012 178.102 330.078 177.762C330.145 177.418 330.178 177.008 330.178 176.531Z" fill="#606368"/>
<line x1="53" y1="155.5" x2="345" y2="155.5" stroke="#D5D5D5"/>
<line x1="53" y1="132.5" x2="345" y2="132.5" stroke="#EFEFEF"/>
<line x1="53" y1="109.5" x2="345" y2="109.5" stroke="#EFEFEF"/>
<line x1="53" y1="86.5" x2="345" y2="86.5" stroke="#EFEFEF"/>
<line x1="53" y1="63.5" x2="345" y2="63.5" stroke="#EFEFEF"/>
<line x1="53" y1="40.5" x2="345" y2="40.5" stroke="#EFEFEF"/>
<line x1="53" y1="17.5" x2="345" y2="17.5" stroke="#EFEFEF"/>
<path d="M53 115C53.3148 117.528 53.6223 122.379 54 122C54.3777 121.621 55.5279 109.003 56 103C56.3148 103.158 57.6223 103.379 58 103C58.3777 102.621 58.6852 100.264 59 99L60 103L61 102C61.6295 109.583 62 124.379 62 124C62 123.621 62.6852 120.58 63 119L66 129L67 124C67.4721 124 69 123.758 69 123C69 122.242 68.8426 118.58 69 117L70 122V116L72 125L74 119C74.3148 119.632 75 120.379 75 120C75 119.621 75.5279 115.054 76 113L78 114V105L79 110L80 105L82 107V104L84 106V101L85 102V97H89V95H90L91 89L93 93L94 90H95V87L96 93V89H98L99 97V89H101L102 84L104 87H105V90L107 83L109 82V80L110 82V79L112 82V76L114 88H117V93L118 89L120 93L121 87H123V82H124L125 88L126 82H127V76L129 80H135L137 72L138 73V64L140 73L141 64L142 65L143 55H145V52L147 60L149 50L151 55L152 41L153 47H155V50L156 47V49L158 50L159 57L160 49L162 60L164 50H165V42L168 35H169V29L170 33L171 29L172 35L174 29C174.472 32.0016 175 38.3791 175 38C175 37.6209 175.685 33.7378 176 32L177 35L179 29L181 45H183V47H184L185 53L186 49L188 60L190 55L191 57L192 55L194 67L196 62L197 65V62L199 75L201 64L204 73L205 69V73L206 69L208 72V69H211L213 64V69L214 64" stroke="#D12126" stroke-linecap="round" stroke-linejoin="round"/>
<circle cx="218.5" cy="69.5" r="4.5" fill="#D12126"/>
</svg>
