<svg width="345" height="203" viewBox="0 0 345 203" fill="none" xmlns="http://www.w3.org/2000/svg">
<line y1="159.5" x2="292" y2="159.5" stroke="#D5D5D5"/>
<line y1="136.5" x2="292" y2="136.5" stroke="#EFEFEF"/>
<line y1="113.5" x2="292" y2="113.5" stroke="#EFEFEF"/>
<line y1="90.5" x2="292" y2="90.5" stroke="#EFEFEF"/>
<line y1="67.5" x2="292" y2="67.5" stroke="#EFEFEF"/>
<line y1="44.5" x2="292" y2="44.5" stroke="#EFEFEF"/>
<line y1="21.5" x2="292" y2="21.5" stroke="#EFEFEF"/>
<line x1="31.5" y1="160" x2="31.5" y2="173" stroke="#D5D5D5"/>
<line x1="91.5" y1="160" x2="91.5" y2="173" stroke="#D5D5D5"/>
<line x1="211.5" y1="160" x2="211.5" y2="173" stroke="#D5D5D5"/>
<line x1="151.5" y1="160" x2="151.5" y2="173" stroke="#D5D5D5"/>
<line x1="271.5" y1="160" x2="271.5" y2="173" stroke="#D5D5D5"/>
<path d="M21 53C21 50.2386 23.2386 48 26 48H39C41.7614 48 44 50.2386 44 53V160H21V53Z" fill="#3478F5"/>
<path d="M79 27C79 24.2386 81.2386 22 84 22H97C99.7614 22 102 24.2386 102 27V160H79V27Z" fill="#3478F5"/>
<path d="M139 39C139 36.2386 141.239 34 144 34H157C159.761 34 162 36.2386 162 39V160H139V39Z" fill="#3478F5"/>
<path d="M199 27C199 24.2386 201.239 22 204 22H217C219.761 22 222 24.2386 222 27V160H199V27Z" fill="#3478F5"/>
<path d="M11.7471 187.258V188H7.09375V187.351L9.42285 184.758C9.70931 184.439 9.93066 184.169 10.0869 183.947C10.2464 183.723 10.3571 183.522 10.4189 183.347C10.484 183.168 10.5166 182.985 10.5166 182.8C10.5166 182.565 10.4678 182.354 10.3701 182.165C10.2757 181.973 10.1357 181.82 9.9502 181.706C9.76465 181.592 9.54004 181.535 9.27637 181.535C8.96061 181.535 8.69694 181.597 8.48535 181.721C8.27702 181.841 8.12077 182.01 8.0166 182.229C7.91243 182.447 7.86035 182.697 7.86035 182.98H6.95703C6.95703 182.58 7.04492 182.214 7.2207 181.882C7.39648 181.55 7.6569 181.286 8.00195 181.091C8.34701 180.892 8.77181 180.793 9.27637 180.793C9.72559 180.793 10.1097 180.873 10.4287 181.032C10.7477 181.188 10.9919 181.41 11.1611 181.696C11.3337 181.979 11.4199 182.312 11.4199 182.692C11.4199 182.901 11.3841 183.112 11.3125 183.327C11.2441 183.539 11.1481 183.75 11.0244 183.962C10.904 184.174 10.7624 184.382 10.5996 184.587C10.4401 184.792 10.2692 184.994 10.0869 185.192L8.18262 187.258H11.7471ZM17.1768 183.879V184.963C17.1768 185.546 17.1247 186.037 17.0205 186.438C16.9163 186.838 16.7666 187.16 16.5713 187.404C16.376 187.648 16.14 187.826 15.8633 187.937C15.5898 188.044 15.2806 188.098 14.9355 188.098C14.6621 188.098 14.4098 188.063 14.1787 187.995C13.9476 187.927 13.7393 187.818 13.5537 187.668C13.3714 187.515 13.2152 187.316 13.085 187.072C12.9548 186.828 12.8555 186.532 12.7871 186.184C12.7188 185.835 12.6846 185.428 12.6846 184.963V183.879C12.6846 183.296 12.7367 182.808 12.8408 182.414C12.9482 182.02 13.0996 181.704 13.2949 181.467C13.4902 181.226 13.7246 181.053 13.998 180.949C14.2747 180.845 14.584 180.793 14.9258 180.793C15.2025 180.793 15.4564 180.827 15.6875 180.896C15.9219 180.961 16.1302 181.066 16.3125 181.213C16.4948 181.356 16.6494 181.548 16.7764 181.789C16.9066 182.027 17.0059 182.318 17.0742 182.663C17.1426 183.008 17.1768 183.413 17.1768 183.879ZM16.2686 185.109V183.728C16.2686 183.409 16.249 183.129 16.21 182.888C16.1742 182.644 16.1204 182.435 16.0488 182.263C15.9772 182.09 15.8861 181.95 15.7754 181.843C15.668 181.735 15.5426 181.657 15.3994 181.608C15.2594 181.556 15.1016 181.53 14.9258 181.53C14.7109 181.53 14.5205 181.571 14.3545 181.652C14.1885 181.73 14.0485 181.856 13.9346 182.028C13.8239 182.201 13.7393 182.427 13.6807 182.707C13.6221 182.987 13.5928 183.327 13.5928 183.728V185.109C13.5928 185.428 13.6107 185.71 13.6465 185.954C13.6855 186.198 13.7425 186.41 13.8174 186.589C13.8923 186.765 13.9834 186.91 14.0908 187.023C14.1982 187.137 14.3219 187.222 14.4619 187.277C14.6051 187.329 14.763 187.355 14.9355 187.355C15.1569 187.355 15.3506 187.313 15.5166 187.229C15.6826 187.144 15.821 187.012 15.9316 186.833C16.0456 186.651 16.1302 186.418 16.1855 186.135C16.2409 185.848 16.2686 185.507 16.2686 185.109ZM22.9971 187.258V188H18.3438V187.351L20.6729 184.758C20.9593 184.439 21.1807 184.169 21.3369 183.947C21.4964 183.723 21.6071 183.522 21.6689 183.347C21.734 183.168 21.7666 182.985 21.7666 182.8C21.7666 182.565 21.7178 182.354 21.6201 182.165C21.5257 181.973 21.3857 181.82 21.2002 181.706C21.0146 181.592 20.79 181.535 20.5264 181.535C20.2106 181.535 19.9469 181.597 19.7354 181.721C19.527 181.841 19.3708 182.01 19.2666 182.229C19.1624 182.447 19.1104 182.697 19.1104 182.98H18.207C18.207 182.58 18.2949 182.214 18.4707 181.882C18.6465 181.55 18.9069 181.286 19.252 181.091C19.597 180.892 20.0218 180.793 20.5264 180.793C20.9756 180.793 21.3597 180.873 21.6787 181.032C21.9977 181.188 22.2419 181.41 22.4111 181.696C22.5837 181.979 22.6699 182.312 22.6699 182.692C22.6699 182.901 22.6341 183.112 22.5625 183.327C22.4941 183.539 22.3981 183.75 22.2744 183.962C22.154 184.174 22.0124 184.382 21.8496 184.587C21.6901 184.792 21.5192 184.994 21.3369 185.192L19.4326 187.258H22.9971ZM28.6221 187.258V188H23.9688V187.351L26.2979 184.758C26.5843 184.439 26.8057 184.169 26.9619 183.947C27.1214 183.723 27.2321 183.522 27.2939 183.347C27.359 183.168 27.3916 182.985 27.3916 182.8C27.3916 182.565 27.3428 182.354 27.2451 182.165C27.1507 181.973 27.0107 181.82 26.8252 181.706C26.6396 181.592 26.415 181.535 26.1514 181.535C25.8356 181.535 25.5719 181.597 25.3604 181.721C25.152 181.841 24.9958 182.01 24.8916 182.229C24.7874 182.447 24.7354 182.697 24.7354 182.98H23.832C23.832 182.58 23.9199 182.214 24.0957 181.882C24.2715 181.55 24.5319 181.286 24.877 181.091C25.222 180.892 25.6468 180.793 26.1514 180.793C26.6006 180.793 26.9847 180.873 27.3037 181.032C27.6227 181.188 27.8669 181.41 28.0361 181.696C28.2087 181.979 28.2949 182.312 28.2949 182.692C28.2949 182.901 28.2591 183.112 28.1875 183.327C28.1191 183.539 28.0231 183.75 27.8994 183.962C27.779 184.174 27.6374 184.382 27.4746 184.587C27.3151 184.792 27.1442 184.994 26.9619 185.192L25.0576 187.258H28.6221ZM36.088 186.42V183.31H33.558V182.66H36.088V181.6H33.558V180.94H36.088V179.78H36.918V186.42H36.088ZM34.608 184.08L34.698 184.76C33.258 185.02 32.048 185.09 30.728 185.09H30.048V180.42H30.868V184.4C32.098 184.39 33.268 184.32 34.608 184.08ZM31.988 187.87H37.148V188.54H31.168V185.85H31.988V187.87ZM44.7354 180.881H44.8135V181.647H44.7354C44.2568 181.647 43.8564 181.726 43.5342 181.882C43.2119 182.035 42.9564 182.242 42.7676 182.502C42.5788 182.759 42.4421 183.049 42.3574 183.371C42.276 183.693 42.2354 184.021 42.2354 184.353V185.397C42.2354 185.713 42.2728 185.993 42.3477 186.237C42.4225 186.478 42.5251 186.682 42.6553 186.848C42.7855 187.014 42.932 187.139 43.0947 187.224C43.2607 187.308 43.4333 187.351 43.6123 187.351C43.8206 187.351 44.0062 187.312 44.1689 187.233C44.3317 187.152 44.4684 187.04 44.5791 186.896C44.693 186.75 44.7793 186.577 44.8379 186.379C44.8965 186.18 44.9258 185.962 44.9258 185.725C44.9258 185.513 44.8997 185.31 44.8477 185.114C44.7956 184.916 44.7158 184.74 44.6084 184.587C44.501 184.431 44.3659 184.309 44.2031 184.221C44.0436 184.13 43.8532 184.084 43.6318 184.084C43.3812 184.084 43.1468 184.146 42.9287 184.27C42.7139 184.39 42.5365 184.549 42.3965 184.748C42.2598 184.943 42.1816 185.157 42.1621 185.388L41.6836 185.383C41.7292 185.018 41.8138 184.707 41.9375 184.45C42.0645 184.19 42.2207 183.978 42.4062 183.815C42.5951 183.649 42.805 183.529 43.0361 183.454C43.2705 183.376 43.5179 183.337 43.7783 183.337C44.1331 183.337 44.4391 183.404 44.6963 183.537C44.9535 183.671 45.165 183.85 45.3311 184.074C45.4971 184.296 45.6191 184.546 45.6973 184.826C45.7786 185.103 45.8193 185.388 45.8193 185.681C45.8193 186.016 45.7721 186.33 45.6777 186.623C45.5833 186.916 45.4417 187.173 45.2529 187.395C45.0674 187.616 44.8379 187.788 44.5645 187.912C44.291 188.036 43.9736 188.098 43.6123 188.098C43.2282 188.098 42.8929 188.02 42.6064 187.863C42.32 187.704 42.0824 187.492 41.8936 187.229C41.7048 186.965 41.5632 186.672 41.4688 186.35C41.3743 186.027 41.3271 185.7 41.3271 185.368V184.943C41.3271 184.442 41.3776 183.951 41.4785 183.469C41.5794 182.987 41.7536 182.551 42.001 182.16C42.2516 181.77 42.5983 181.459 43.041 181.228C43.4837 180.996 44.0485 180.881 44.7354 180.881ZM51.5727 184.04H53.3527V179.78H54.1727V185.05H53.3527V184.58H51.5727V184.04ZM49.7027 180.52C48.8327 180.52 48.2627 180.82 48.2627 181.3C48.2627 181.76 48.8327 182.07 49.7027 182.07C50.5827 182.07 51.1427 181.76 51.1427 181.3C51.1427 180.82 50.5827 180.52 49.7027 180.52ZM49.7027 182.63C48.3727 182.63 47.4927 182.12 47.4927 181.3C47.4927 180.46 48.3727 179.95 49.7027 179.95C51.0327 179.95 51.9127 180.46 51.9127 181.3C51.9127 182.12 51.0327 182.63 49.7027 182.63ZM49.2427 185.08V183.74C48.4127 183.76 47.6227 183.77 46.9027 183.77L46.8027 183.15C48.5327 183.15 50.7227 183.14 52.6427 182.92L52.6927 183.46C51.8227 183.58 50.9327 183.65 50.0627 183.7V185.08H49.2427ZM48.9927 188.03H54.4827V188.64H48.1827V186.69H53.3727V185.97H48.1627V185.38H54.1727V187.25H48.9927V188.03Z" fill="#606368"/>
<path d="M71.7471 187.258V188H67.0938V187.351L69.4229 184.758C69.7093 184.439 69.9307 184.169 70.0869 183.947C70.2464 183.723 70.3571 183.522 70.4189 183.347C70.484 183.168 70.5166 182.985 70.5166 182.8C70.5166 182.565 70.4678 182.354 70.3701 182.165C70.2757 181.973 70.1357 181.82 69.9502 181.706C69.7646 181.592 69.54 181.535 69.2764 181.535C68.9606 181.535 68.6969 181.597 68.4854 181.721C68.277 181.841 68.1208 182.01 68.0166 182.229C67.9124 182.447 67.8604 182.697 67.8604 182.98H66.957C66.957 182.58 67.0449 182.214 67.2207 181.882C67.3965 181.55 67.6569 181.286 68.002 181.091C68.347 180.892 68.7718 180.793 69.2764 180.793C69.7256 180.793 70.1097 180.873 70.4287 181.032C70.7477 181.188 70.9919 181.41 71.1611 181.696C71.3337 181.979 71.4199 182.312 71.4199 182.692C71.4199 182.901 71.3841 183.112 71.3125 183.327C71.2441 183.539 71.1481 183.75 71.0244 183.962C70.904 184.174 70.7624 184.382 70.5996 184.587C70.4401 184.792 70.2692 184.994 70.0869 185.192L68.1826 187.258H71.7471ZM77.1768 183.879V184.963C77.1768 185.546 77.1247 186.037 77.0205 186.438C76.9163 186.838 76.7666 187.16 76.5713 187.404C76.376 187.648 76.14 187.826 75.8633 187.937C75.5898 188.044 75.2806 188.098 74.9355 188.098C74.6621 188.098 74.4098 188.063 74.1787 187.995C73.9476 187.927 73.7393 187.818 73.5537 187.668C73.3714 187.515 73.2152 187.316 73.085 187.072C72.9548 186.828 72.8555 186.532 72.7871 186.184C72.7188 185.835 72.6846 185.428 72.6846 184.963V183.879C72.6846 183.296 72.7367 182.808 72.8408 182.414C72.9482 182.02 73.0996 181.704 73.2949 181.467C73.4902 181.226 73.7246 181.053 73.998 180.949C74.2747 180.845 74.584 180.793 74.9258 180.793C75.2025 180.793 75.4564 180.827 75.6875 180.896C75.9219 180.961 76.1302 181.066 76.3125 181.213C76.4948 181.356 76.6494 181.548 76.7764 181.789C76.9066 182.027 77.0059 182.318 77.0742 182.663C77.1426 183.008 77.1768 183.413 77.1768 183.879ZM76.2686 185.109V183.728C76.2686 183.409 76.249 183.129 76.21 182.888C76.1742 182.644 76.1204 182.435 76.0488 182.263C75.9772 182.09 75.8861 181.95 75.7754 181.843C75.668 181.735 75.5426 181.657 75.3994 181.608C75.2594 181.556 75.1016 181.53 74.9258 181.53C74.7109 181.53 74.5205 181.571 74.3545 181.652C74.1885 181.73 74.0485 181.856 73.9346 182.028C73.8239 182.201 73.7393 182.427 73.6807 182.707C73.6221 182.987 73.5928 183.327 73.5928 183.728V185.109C73.5928 185.428 73.6107 185.71 73.6465 185.954C73.6855 186.198 73.7425 186.41 73.8174 186.589C73.8923 186.765 73.9834 186.91 74.0908 187.023C74.1982 187.137 74.3219 187.222 74.4619 187.277C74.6051 187.329 74.763 187.355 74.9355 187.355C75.1569 187.355 75.3506 187.313 75.5166 187.229C75.6826 187.144 75.821 187.012 75.9316 186.833C76.0456 186.651 76.1302 186.418 76.1855 186.135C76.2409 185.848 76.2686 185.507 76.2686 185.109ZM82.9971 187.258V188H78.3438V187.351L80.6729 184.758C80.9593 184.439 81.1807 184.169 81.3369 183.947C81.4964 183.723 81.6071 183.522 81.6689 183.347C81.734 183.168 81.7666 182.985 81.7666 182.8C81.7666 182.565 81.7178 182.354 81.6201 182.165C81.5257 181.973 81.3857 181.82 81.2002 181.706C81.0146 181.592 80.79 181.535 80.5264 181.535C80.2106 181.535 79.9469 181.597 79.7354 181.721C79.527 181.841 79.3708 182.01 79.2666 182.229C79.1624 182.447 79.1104 182.697 79.1104 182.98H78.207C78.207 182.58 78.2949 182.214 78.4707 181.882C78.6465 181.55 78.9069 181.286 79.252 181.091C79.597 180.892 80.0218 180.793 80.5264 180.793C80.9756 180.793 81.3597 180.873 81.6787 181.032C81.9977 181.188 82.2419 181.41 82.4111 181.696C82.5837 181.979 82.6699 182.312 82.6699 182.692C82.6699 182.901 82.6341 183.112 82.5625 183.327C82.4941 183.539 82.3981 183.75 82.2744 183.962C82.154 184.174 82.0124 184.382 81.8496 184.587C81.6901 184.792 81.5192 184.994 81.3369 185.192L79.4326 187.258H82.9971ZM88.6221 187.258V188H83.9688V187.351L86.2979 184.758C86.5843 184.439 86.8057 184.169 86.9619 183.947C87.1214 183.723 87.2321 183.522 87.2939 183.347C87.359 183.168 87.3916 182.985 87.3916 182.8C87.3916 182.565 87.3428 182.354 87.2451 182.165C87.1507 181.973 87.0107 181.82 86.8252 181.706C86.6396 181.592 86.415 181.535 86.1514 181.535C85.8356 181.535 85.5719 181.597 85.3604 181.721C85.152 181.841 84.9958 182.01 84.8916 182.229C84.7874 182.447 84.7354 182.697 84.7354 182.98H83.832C83.832 182.58 83.9199 182.214 84.0957 181.882C84.2715 181.55 84.5319 181.286 84.877 181.091C85.222 180.892 85.6468 180.793 86.1514 180.793C86.6006 180.793 86.9847 180.873 87.3037 181.032C87.6227 181.188 87.8669 181.41 88.0361 181.696C88.2087 181.979 88.2949 182.312 88.2949 182.692C88.2949 182.901 88.2591 183.112 88.1875 183.327C88.1191 183.539 88.0231 183.75 87.8994 183.962C87.779 184.174 87.6374 184.382 87.4746 184.587C87.3151 184.792 87.1442 184.994 86.9619 185.192L85.0576 187.258H88.6221ZM96.088 186.42V183.31H93.558V182.66H96.088V181.6H93.558V180.94H96.088V179.78H96.918V186.42H96.088ZM94.608 184.08L94.698 184.76C93.258 185.02 92.048 185.09 90.728 185.09H90.048V180.42H90.868V184.4C92.098 184.39 93.268 184.32 94.608 184.08ZM91.988 187.87H97.148V188.54H91.168V185.85H91.988V187.87ZM102.167 187.243H102.26C102.781 187.243 103.204 187.17 103.529 187.023C103.855 186.877 104.105 186.68 104.281 186.433C104.457 186.185 104.577 185.907 104.643 185.598C104.708 185.285 104.74 184.965 104.74 184.636V183.547C104.74 183.225 104.703 182.938 104.628 182.688C104.556 182.437 104.455 182.227 104.325 182.058C104.198 181.888 104.053 181.76 103.891 181.672C103.728 181.584 103.555 181.54 103.373 181.54C103.165 181.54 102.978 181.582 102.812 181.667C102.649 181.748 102.51 181.864 102.396 182.014C102.286 182.163 102.201 182.339 102.143 182.541C102.084 182.743 102.055 182.963 102.055 183.2C102.055 183.412 102.081 183.617 102.133 183.815C102.185 184.014 102.265 184.193 102.372 184.353C102.479 184.512 102.613 184.639 102.772 184.733C102.935 184.825 103.126 184.87 103.344 184.87C103.546 184.87 103.734 184.831 103.91 184.753C104.089 184.672 104.247 184.562 104.384 184.426C104.524 184.286 104.634 184.128 104.716 183.952C104.8 183.776 104.849 183.592 104.862 183.4H105.292C105.292 183.671 105.238 183.938 105.131 184.201C105.027 184.462 104.88 184.699 104.691 184.914C104.503 185.129 104.281 185.301 104.027 185.432C103.773 185.559 103.497 185.622 103.197 185.622C102.846 185.622 102.541 185.554 102.284 185.417C102.027 185.28 101.815 185.098 101.649 184.87C101.487 184.642 101.365 184.388 101.283 184.108C101.205 183.825 101.166 183.539 101.166 183.249C101.166 182.91 101.213 182.593 101.308 182.297C101.402 182.001 101.542 181.74 101.728 181.516C101.913 181.288 102.143 181.11 102.416 180.983C102.693 180.856 103.012 180.793 103.373 180.793C103.78 180.793 104.127 180.874 104.413 181.037C104.7 181.2 104.932 181.418 105.111 181.691C105.294 181.965 105.427 182.272 105.512 182.614C105.596 182.956 105.639 183.308 105.639 183.669V183.996C105.639 184.364 105.614 184.738 105.565 185.119C105.52 185.497 105.43 185.858 105.297 186.203C105.167 186.548 104.976 186.857 104.726 187.131C104.475 187.401 104.148 187.616 103.744 187.775C103.344 187.932 102.849 188.01 102.26 188.01H102.167V187.243ZM111.573 184.04H113.353V179.78H114.173V185.05H113.353V184.58H111.573V184.04ZM109.703 180.52C108.833 180.52 108.263 180.82 108.263 181.3C108.263 181.76 108.833 182.07 109.703 182.07C110.583 182.07 111.143 181.76 111.143 181.3C111.143 180.82 110.583 180.52 109.703 180.52ZM109.703 182.63C108.373 182.63 107.493 182.12 107.493 181.3C107.493 180.46 108.373 179.95 109.703 179.95C111.033 179.95 111.913 180.46 111.913 181.3C111.913 182.12 111.033 182.63 109.703 182.63ZM109.243 185.08V183.74C108.413 183.76 107.623 183.77 106.903 183.77L106.803 183.15C108.533 183.15 110.723 183.14 112.643 182.92L112.693 183.46C111.823 183.58 110.933 183.65 110.063 183.7V185.08H109.243ZM108.993 188.03H114.483V188.64H108.183V186.69H113.373V185.97H108.163V185.38H114.173V187.25H108.993V188.03Z" fill="#606368"/>
<path d="M129.435 187.258V188H124.781V187.351L127.11 184.758C127.397 184.439 127.618 184.169 127.774 183.947C127.934 183.723 128.045 183.522 128.106 183.347C128.172 183.168 128.204 182.985 128.204 182.8C128.204 182.565 128.155 182.354 128.058 182.165C127.963 181.973 127.823 181.82 127.638 181.706C127.452 181.592 127.228 181.535 126.964 181.535C126.648 181.535 126.384 181.597 126.173 181.721C125.965 181.841 125.808 182.01 125.704 182.229C125.6 182.447 125.548 182.697 125.548 182.98H124.645C124.645 182.58 124.732 182.214 124.908 181.882C125.084 181.55 125.344 181.286 125.689 181.091C126.035 180.892 126.459 180.793 126.964 180.793C127.413 180.793 127.797 180.873 128.116 181.032C128.435 181.188 128.679 181.41 128.849 181.696C129.021 181.979 129.107 182.312 129.107 182.692C129.107 182.901 129.072 183.112 129 183.327C128.932 183.539 128.836 183.75 128.712 183.962C128.591 184.174 128.45 184.382 128.287 184.587C128.128 184.792 127.957 184.994 127.774 185.192L125.87 187.258H129.435ZM134.864 183.879V184.963C134.864 185.546 134.812 186.037 134.708 186.438C134.604 186.838 134.454 187.16 134.259 187.404C134.063 187.648 133.827 187.826 133.551 187.937C133.277 188.044 132.968 188.098 132.623 188.098C132.35 188.098 132.097 188.063 131.866 187.995C131.635 187.927 131.427 187.818 131.241 187.668C131.059 187.515 130.903 187.316 130.772 187.072C130.642 186.828 130.543 186.532 130.475 186.184C130.406 185.835 130.372 185.428 130.372 184.963V183.879C130.372 183.296 130.424 182.808 130.528 182.414C130.636 182.02 130.787 181.704 130.982 181.467C131.178 181.226 131.412 181.053 131.686 180.949C131.962 180.845 132.271 180.793 132.613 180.793C132.89 180.793 133.144 180.827 133.375 180.896C133.609 180.961 133.818 181.066 134 181.213C134.182 181.356 134.337 181.548 134.464 181.789C134.594 182.027 134.693 182.318 134.762 182.663C134.83 183.008 134.864 183.413 134.864 183.879ZM133.956 185.109V183.728C133.956 183.409 133.937 183.129 133.897 182.888C133.862 182.644 133.808 182.435 133.736 182.263C133.665 182.09 133.574 181.95 133.463 181.843C133.355 181.735 133.23 181.657 133.087 181.608C132.947 181.556 132.789 181.53 132.613 181.53C132.398 181.53 132.208 181.571 132.042 181.652C131.876 181.73 131.736 181.856 131.622 182.028C131.511 182.201 131.427 182.427 131.368 182.707C131.31 182.987 131.28 183.327 131.28 183.728V185.109C131.28 185.428 131.298 185.71 131.334 185.954C131.373 186.198 131.43 186.41 131.505 186.589C131.58 186.765 131.671 186.91 131.778 187.023C131.886 187.137 132.009 187.222 132.149 187.277C132.293 187.329 132.451 187.355 132.623 187.355C132.844 187.355 133.038 187.313 133.204 187.229C133.37 187.144 133.508 187.012 133.619 186.833C133.733 186.651 133.818 186.418 133.873 186.135C133.928 185.848 133.956 185.507 133.956 185.109ZM140.685 187.258V188H136.031V187.351L138.36 184.758C138.647 184.439 138.868 184.169 139.024 183.947C139.184 183.723 139.295 183.522 139.356 183.347C139.422 183.168 139.454 182.985 139.454 182.8C139.454 182.565 139.405 182.354 139.308 182.165C139.213 181.973 139.073 181.82 138.888 181.706C138.702 181.592 138.478 181.535 138.214 181.535C137.898 181.535 137.634 181.597 137.423 181.721C137.215 181.841 137.058 182.01 136.954 182.229C136.85 182.447 136.798 182.697 136.798 182.98H135.895C135.895 182.58 135.982 182.214 136.158 181.882C136.334 181.55 136.594 181.286 136.939 181.091C137.285 180.892 137.709 180.793 138.214 180.793C138.663 180.793 139.047 180.873 139.366 181.032C139.685 181.188 139.929 181.41 140.099 181.696C140.271 181.979 140.357 182.312 140.357 182.692C140.357 182.901 140.322 183.112 140.25 183.327C140.182 183.539 140.086 183.75 139.962 183.962C139.841 184.174 139.7 184.382 139.537 184.587C139.378 184.792 139.207 184.994 139.024 185.192L137.12 187.258H140.685ZM146.31 187.258V188H141.656V187.351L143.985 184.758C144.272 184.439 144.493 184.169 144.649 183.947C144.809 183.723 144.92 183.522 144.981 183.347C145.047 183.168 145.079 182.985 145.079 182.8C145.079 182.565 145.03 182.354 144.933 182.165C144.838 181.973 144.698 181.82 144.513 181.706C144.327 181.592 144.103 181.535 143.839 181.535C143.523 181.535 143.259 181.597 143.048 181.721C142.84 181.841 142.683 182.01 142.579 182.229C142.475 182.447 142.423 182.697 142.423 182.98H141.52C141.52 182.58 141.607 182.214 141.783 181.882C141.959 181.55 142.219 181.286 142.564 181.091C142.91 180.892 143.334 180.793 143.839 180.793C144.288 180.793 144.672 180.873 144.991 181.032C145.31 181.188 145.554 181.41 145.724 181.696C145.896 181.979 145.982 182.312 145.982 182.692C145.982 182.901 145.947 183.112 145.875 183.327C145.807 183.539 145.711 183.75 145.587 183.962C145.466 184.174 145.325 184.382 145.162 184.587C145.003 184.792 144.832 184.994 144.649 185.192L142.745 187.258H146.31ZM153.776 186.42V183.31H151.246V182.66H153.776V181.6H151.246V180.94H153.776V179.78H154.606V186.42H153.776ZM152.296 184.08L152.386 184.76C150.946 185.02 149.736 185.09 148.416 185.09H147.736V180.42H148.556V184.4C149.786 184.39 150.956 184.32 152.296 184.08ZM149.676 187.87H154.836V188.54H148.856V185.85H149.676V187.87ZM161.925 180.852V188H161.021V181.979L159.2 182.644V181.828L161.783 180.852H161.925ZM169.239 187.258V188H164.586V187.351L166.915 184.758C167.201 184.439 167.423 184.169 167.579 183.947C167.739 183.723 167.849 183.522 167.911 183.347C167.976 183.168 168.009 182.985 168.009 182.8C168.009 182.565 167.96 182.354 167.862 182.165C167.768 181.973 167.628 181.82 167.442 181.706C167.257 181.592 167.032 181.535 166.769 181.535C166.453 181.535 166.189 181.597 165.978 181.721C165.769 181.841 165.613 182.01 165.509 182.229C165.405 182.447 165.353 182.697 165.353 182.98H164.449C164.449 182.58 164.537 182.214 164.713 181.882C164.889 181.55 165.149 181.286 165.494 181.091C165.839 180.892 166.264 180.793 166.769 180.793C167.218 180.793 167.602 180.873 167.921 181.032C168.24 181.188 168.484 181.41 168.653 181.696C168.826 181.979 168.912 182.312 168.912 182.692C168.912 182.901 168.876 183.112 168.805 183.327C168.736 183.539 168.64 183.75 168.517 183.962C168.396 184.174 168.255 184.382 168.092 184.587C167.932 184.792 167.761 184.994 167.579 185.192L165.675 187.258H169.239ZM174.885 184.04H176.665V179.78H177.485V185.05H176.665V184.58H174.885V184.04ZM173.015 180.52C172.145 180.52 171.575 180.82 171.575 181.3C171.575 181.76 172.145 182.07 173.015 182.07C173.895 182.07 174.455 181.76 174.455 181.3C174.455 180.82 173.895 180.52 173.015 180.52ZM173.015 182.63C171.685 182.63 170.805 182.12 170.805 181.3C170.805 180.46 171.685 179.95 173.015 179.95C174.345 179.95 175.225 180.46 175.225 181.3C175.225 182.12 174.345 182.63 173.015 182.63ZM172.555 185.08V183.74C171.725 183.76 170.935 183.77 170.215 183.77L170.115 183.15C171.845 183.15 174.035 183.14 175.955 182.92L176.005 183.46C175.135 183.58 174.245 183.65 173.375 183.7V185.08H172.555ZM172.305 188.03H177.795V188.64H171.495V186.69H176.685V185.97H171.475V185.38H177.485V187.25H172.305V188.03Z" fill="#606368"/>
<path d="M190.747 187.258V188H186.094V187.351L188.423 184.758C188.709 184.439 188.931 184.169 189.087 183.947C189.246 183.723 189.357 183.522 189.419 183.347C189.484 183.168 189.517 182.985 189.517 182.8C189.517 182.565 189.468 182.354 189.37 182.165C189.276 181.973 189.136 181.82 188.95 181.706C188.765 181.592 188.54 181.535 188.276 181.535C187.961 181.535 187.697 181.597 187.485 181.721C187.277 181.841 187.121 182.01 187.017 182.229C186.912 182.447 186.86 182.697 186.86 182.98H185.957C185.957 182.58 186.045 182.214 186.221 181.882C186.396 181.55 186.657 181.286 187.002 181.091C187.347 180.892 187.772 180.793 188.276 180.793C188.726 180.793 189.11 180.873 189.429 181.032C189.748 181.188 189.992 181.41 190.161 181.696C190.334 181.979 190.42 182.312 190.42 182.692C190.42 182.901 190.384 183.112 190.312 183.327C190.244 183.539 190.148 183.75 190.024 183.962C189.904 184.174 189.762 184.382 189.6 184.587C189.44 184.792 189.269 184.994 189.087 185.192L187.183 187.258H190.747ZM196.177 183.879V184.963C196.177 185.546 196.125 186.037 196.021 186.438C195.916 186.838 195.767 187.16 195.571 187.404C195.376 187.648 195.14 187.826 194.863 187.937C194.59 188.044 194.281 188.098 193.936 188.098C193.662 188.098 193.41 188.063 193.179 187.995C192.948 187.927 192.739 187.818 192.554 187.668C192.371 187.515 192.215 187.316 192.085 187.072C191.955 186.828 191.855 186.532 191.787 186.184C191.719 185.835 191.685 185.428 191.685 184.963V183.879C191.685 183.296 191.737 182.808 191.841 182.414C191.948 182.02 192.1 181.704 192.295 181.467C192.49 181.226 192.725 181.053 192.998 180.949C193.275 180.845 193.584 180.793 193.926 180.793C194.202 180.793 194.456 180.827 194.688 180.896C194.922 180.961 195.13 181.066 195.312 181.213C195.495 181.356 195.649 181.548 195.776 181.789C195.907 182.027 196.006 182.318 196.074 182.663C196.143 183.008 196.177 183.413 196.177 183.879ZM195.269 185.109V183.728C195.269 183.409 195.249 183.129 195.21 182.888C195.174 182.644 195.12 182.435 195.049 182.263C194.977 182.09 194.886 181.95 194.775 181.843C194.668 181.735 194.543 181.657 194.399 181.608C194.259 181.556 194.102 181.53 193.926 181.53C193.711 181.53 193.521 181.571 193.354 181.652C193.188 181.73 193.049 181.856 192.935 182.028C192.824 182.201 192.739 182.427 192.681 182.707C192.622 182.987 192.593 183.327 192.593 183.728V185.109C192.593 185.428 192.611 185.71 192.646 185.954C192.686 186.198 192.743 186.41 192.817 186.589C192.892 186.765 192.983 186.91 193.091 187.023C193.198 187.137 193.322 187.222 193.462 187.277C193.605 187.329 193.763 187.355 193.936 187.355C194.157 187.355 194.351 187.313 194.517 187.229C194.683 187.144 194.821 187.012 194.932 186.833C195.046 186.651 195.13 186.418 195.186 186.135C195.241 185.848 195.269 185.507 195.269 185.109ZM201.997 187.258V188H197.344V187.351L199.673 184.758C199.959 184.439 200.181 184.169 200.337 183.947C200.496 183.723 200.607 183.522 200.669 183.347C200.734 183.168 200.767 182.985 200.767 182.8C200.767 182.565 200.718 182.354 200.62 182.165C200.526 181.973 200.386 181.82 200.2 181.706C200.015 181.592 199.79 181.535 199.526 181.535C199.211 181.535 198.947 181.597 198.735 181.721C198.527 181.841 198.371 182.01 198.267 182.229C198.162 182.447 198.11 182.697 198.11 182.98H197.207C197.207 182.58 197.295 182.214 197.471 181.882C197.646 181.55 197.907 181.286 198.252 181.091C198.597 180.892 199.022 180.793 199.526 180.793C199.976 180.793 200.36 180.873 200.679 181.032C200.998 181.188 201.242 181.41 201.411 181.696C201.584 181.979 201.67 182.312 201.67 182.692C201.67 182.901 201.634 183.112 201.562 183.327C201.494 183.539 201.398 183.75 201.274 183.962C201.154 184.174 201.012 184.382 200.85 184.587C200.69 184.792 200.519 184.994 200.337 185.192L198.433 187.258H201.997ZM204.282 184.001H204.927C205.243 184.001 205.503 183.949 205.708 183.845C205.916 183.737 206.071 183.592 206.172 183.41C206.276 183.225 206.328 183.016 206.328 182.785C206.328 182.512 206.283 182.282 206.191 182.097C206.1 181.911 205.964 181.771 205.781 181.677C205.599 181.582 205.368 181.535 205.088 181.535C204.834 181.535 204.609 181.586 204.414 181.687C204.222 181.784 204.071 181.924 203.96 182.106C203.853 182.289 203.799 182.504 203.799 182.751H202.896C202.896 182.39 202.987 182.061 203.169 181.765C203.351 181.468 203.607 181.232 203.936 181.057C204.268 180.881 204.652 180.793 205.088 180.793C205.518 180.793 205.894 180.869 206.216 181.022C206.538 181.172 206.789 181.397 206.968 181.696C207.147 181.993 207.236 182.362 207.236 182.805C207.236 182.984 207.194 183.176 207.109 183.381C207.028 183.583 206.899 183.771 206.724 183.947C206.551 184.123 206.326 184.268 206.05 184.382C205.773 184.493 205.441 184.548 205.054 184.548H204.282V184.001ZM204.282 184.743V184.201H205.054C205.506 184.201 205.881 184.255 206.177 184.362C206.473 184.47 206.706 184.613 206.875 184.792C207.048 184.971 207.168 185.168 207.236 185.383C207.308 185.594 207.344 185.806 207.344 186.018C207.344 186.35 207.287 186.644 207.173 186.901C207.062 187.159 206.904 187.377 206.699 187.556C206.497 187.735 206.26 187.87 205.986 187.961C205.713 188.052 205.415 188.098 205.093 188.098C204.784 188.098 204.492 188.054 204.219 187.966C203.949 187.878 203.709 187.751 203.501 187.585C203.293 187.416 203.13 187.209 203.013 186.965C202.896 186.717 202.837 186.436 202.837 186.12H203.74C203.74 186.368 203.794 186.584 203.901 186.77C204.012 186.955 204.168 187.1 204.37 187.204C204.575 187.305 204.816 187.355 205.093 187.355C205.369 187.355 205.607 187.308 205.806 187.214C206.007 187.116 206.162 186.97 206.27 186.774C206.38 186.579 206.436 186.333 206.436 186.037C206.436 185.741 206.374 185.498 206.25 185.31C206.126 185.118 205.951 184.976 205.723 184.885C205.498 184.79 205.233 184.743 204.927 184.743H204.282ZM215.088 186.42V183.31H212.558V182.66H215.088V181.6H212.558V180.94H215.088V179.78H215.918V186.42H215.088ZM213.608 184.08L213.698 184.76C212.258 185.02 211.048 185.09 209.728 185.09H209.048V180.42H209.868V184.4C211.098 184.39 212.268 184.32 213.608 184.08ZM210.988 187.87H216.148V188.54H210.168V185.85H210.988V187.87ZM221.587 184.001H222.231C222.547 184.001 222.808 183.949 223.013 183.845C223.221 183.737 223.376 183.592 223.477 183.41C223.581 183.225 223.633 183.016 223.633 182.785C223.633 182.512 223.587 182.282 223.496 182.097C223.405 181.911 223.268 181.771 223.086 181.677C222.904 181.582 222.673 181.535 222.393 181.535C222.139 181.535 221.914 181.586 221.719 181.687C221.527 181.784 221.375 181.924 221.265 182.106C221.157 182.289 221.104 182.504 221.104 182.751H220.2C220.2 182.39 220.291 182.061 220.474 181.765C220.656 181.468 220.911 181.232 221.24 181.057C221.572 180.881 221.956 180.793 222.393 180.793C222.822 180.793 223.198 180.869 223.521 181.022C223.843 181.172 224.093 181.397 224.272 181.696C224.451 181.993 224.541 182.362 224.541 182.805C224.541 182.984 224.499 183.176 224.414 183.381C224.333 183.583 224.204 183.771 224.028 183.947C223.856 184.123 223.631 184.268 223.354 184.382C223.078 184.493 222.746 184.548 222.358 184.548H221.587V184.001ZM221.587 184.743V184.201H222.358C222.811 184.201 223.185 184.255 223.481 184.362C223.778 184.47 224.01 184.613 224.18 184.792C224.352 184.971 224.473 185.168 224.541 185.383C224.613 185.594 224.648 185.806 224.648 186.018C224.648 186.35 224.591 186.644 224.478 186.901C224.367 187.159 224.209 187.377 224.004 187.556C223.802 187.735 223.564 187.87 223.291 187.961C223.018 188.052 222.72 188.098 222.397 188.098C222.088 188.098 221.797 188.054 221.523 187.966C221.253 187.878 221.014 187.751 220.806 187.585C220.597 187.416 220.435 187.209 220.317 186.965C220.2 186.717 220.142 186.436 220.142 186.12H221.045C221.045 186.368 221.099 186.584 221.206 186.77C221.317 186.955 221.473 187.1 221.675 187.204C221.88 187.305 222.121 187.355 222.397 187.355C222.674 187.355 222.912 187.308 223.11 187.214C223.312 187.116 223.467 186.97 223.574 186.774C223.685 186.579 223.74 186.333 223.74 186.037C223.74 185.741 223.678 185.498 223.555 185.31C223.431 185.118 223.255 184.976 223.027 184.885C222.803 184.79 222.537 184.743 222.231 184.743H221.587ZM230.573 184.04H232.353V179.78H233.173V185.05H232.353V184.58H230.573V184.04ZM228.703 180.52C227.833 180.52 227.263 180.82 227.263 181.3C227.263 181.76 227.833 182.07 228.703 182.07C229.583 182.07 230.143 181.76 230.143 181.3C230.143 180.82 229.583 180.52 228.703 180.52ZM228.703 182.63C227.373 182.63 226.493 182.12 226.493 181.3C226.493 180.46 227.373 179.95 228.703 179.95C230.033 179.95 230.913 180.46 230.913 181.3C230.913 182.12 230.033 182.63 228.703 182.63ZM228.243 185.08V183.74C227.413 183.76 226.623 183.77 225.903 183.77L225.803 183.15C227.533 183.15 229.723 183.14 231.643 182.92L231.693 183.46C230.823 183.58 229.933 183.65 229.063 183.7V185.08H228.243ZM227.993 188.03H233.483V188.64H227.183V186.69H232.373V185.97H227.163V185.38H233.173V187.25H227.993V188.03Z" fill="#606368"/>
<path d="M251.747 187.258V188H247.094V187.351L249.423 184.758C249.709 184.439 249.931 184.169 250.087 183.947C250.246 183.723 250.357 183.522 250.419 183.347C250.484 183.168 250.517 182.985 250.517 182.8C250.517 182.565 250.468 182.354 250.37 182.165C250.276 181.973 250.136 181.82 249.95 181.706C249.765 181.592 249.54 181.535 249.276 181.535C248.961 181.535 248.697 181.597 248.485 181.721C248.277 181.841 248.121 182.01 248.017 182.229C247.912 182.447 247.86 182.697 247.86 182.98H246.957C246.957 182.58 247.045 182.214 247.221 181.882C247.396 181.55 247.657 181.286 248.002 181.091C248.347 180.892 248.772 180.793 249.276 180.793C249.726 180.793 250.11 180.873 250.429 181.032C250.748 181.188 250.992 181.41 251.161 181.696C251.334 181.979 251.42 182.312 251.42 182.692C251.42 182.901 251.384 183.112 251.312 183.327C251.244 183.539 251.148 183.75 251.024 183.962C250.904 184.174 250.762 184.382 250.6 184.587C250.44 184.792 250.269 184.994 250.087 185.192L248.183 187.258H251.747ZM257.177 183.879V184.963C257.177 185.546 257.125 186.037 257.021 186.438C256.916 186.838 256.767 187.16 256.571 187.404C256.376 187.648 256.14 187.826 255.863 187.937C255.59 188.044 255.281 188.098 254.936 188.098C254.662 188.098 254.41 188.063 254.179 187.995C253.948 187.927 253.739 187.818 253.554 187.668C253.371 187.515 253.215 187.316 253.085 187.072C252.955 186.828 252.855 186.532 252.787 186.184C252.719 185.835 252.685 185.428 252.685 184.963V183.879C252.685 183.296 252.737 182.808 252.841 182.414C252.948 182.02 253.1 181.704 253.295 181.467C253.49 181.226 253.725 181.053 253.998 180.949C254.275 180.845 254.584 180.793 254.926 180.793C255.202 180.793 255.456 180.827 255.688 180.896C255.922 180.961 256.13 181.066 256.312 181.213C256.495 181.356 256.649 181.548 256.776 181.789C256.907 182.027 257.006 182.318 257.074 182.663C257.143 183.008 257.177 183.413 257.177 183.879ZM256.269 185.109V183.728C256.269 183.409 256.249 183.129 256.21 182.888C256.174 182.644 256.12 182.435 256.049 182.263C255.977 182.09 255.886 181.95 255.775 181.843C255.668 181.735 255.543 181.657 255.399 181.608C255.259 181.556 255.102 181.53 254.926 181.53C254.711 181.53 254.521 181.571 254.354 181.652C254.188 181.73 254.049 181.856 253.935 182.028C253.824 182.201 253.739 182.427 253.681 182.707C253.622 182.987 253.593 183.327 253.593 183.728V185.109C253.593 185.428 253.611 185.71 253.646 185.954C253.686 186.198 253.743 186.41 253.817 186.589C253.892 186.765 253.983 186.91 254.091 187.023C254.198 187.137 254.322 187.222 254.462 187.277C254.605 187.329 254.763 187.355 254.936 187.355C255.157 187.355 255.351 187.313 255.517 187.229C255.683 187.144 255.821 187.012 255.932 186.833C256.046 186.651 256.13 186.418 256.186 186.135C256.241 185.848 256.269 185.507 256.269 185.109ZM262.997 187.258V188H258.344V187.351L260.673 184.758C260.959 184.439 261.181 184.169 261.337 183.947C261.496 183.723 261.607 183.522 261.669 183.347C261.734 183.168 261.767 182.985 261.767 182.8C261.767 182.565 261.718 182.354 261.62 182.165C261.526 181.973 261.386 181.82 261.2 181.706C261.015 181.592 260.79 181.535 260.526 181.535C260.211 181.535 259.947 181.597 259.735 181.721C259.527 181.841 259.371 182.01 259.267 182.229C259.162 182.447 259.11 182.697 259.11 182.98H258.207C258.207 182.58 258.295 182.214 258.471 181.882C258.646 181.55 258.907 181.286 259.252 181.091C259.597 180.892 260.022 180.793 260.526 180.793C260.976 180.793 261.36 180.873 261.679 181.032C261.998 181.188 262.242 181.41 262.411 181.696C262.584 181.979 262.67 182.312 262.67 182.692C262.67 182.901 262.634 183.112 262.562 183.327C262.494 183.539 262.398 183.75 262.274 183.962C262.154 184.174 262.012 184.382 261.85 184.587C261.69 184.792 261.519 184.994 261.337 185.192L259.433 187.258H262.997ZM265.282 184.001H265.927C266.243 184.001 266.503 183.949 266.708 183.845C266.916 183.737 267.071 183.592 267.172 183.41C267.276 183.225 267.328 183.016 267.328 182.785C267.328 182.512 267.283 182.282 267.191 182.097C267.1 181.911 266.964 181.771 266.781 181.677C266.599 181.582 266.368 181.535 266.088 181.535C265.834 181.535 265.609 181.586 265.414 181.687C265.222 181.784 265.071 181.924 264.96 182.106C264.853 182.289 264.799 182.504 264.799 182.751H263.896C263.896 182.39 263.987 182.061 264.169 181.765C264.351 181.468 264.607 181.232 264.936 181.057C265.268 180.881 265.652 180.793 266.088 180.793C266.518 180.793 266.894 180.869 267.216 181.022C267.538 181.172 267.789 181.397 267.968 181.696C268.147 181.993 268.236 182.362 268.236 182.805C268.236 182.984 268.194 183.176 268.109 183.381C268.028 183.583 267.899 183.771 267.724 183.947C267.551 184.123 267.326 184.268 267.05 184.382C266.773 184.493 266.441 184.548 266.054 184.548H265.282V184.001ZM265.282 184.743V184.201H266.054C266.506 184.201 266.881 184.255 267.177 184.362C267.473 184.47 267.706 184.613 267.875 184.792C268.048 184.971 268.168 185.168 268.236 185.383C268.308 185.594 268.344 185.806 268.344 186.018C268.344 186.35 268.287 186.644 268.173 186.901C268.062 187.159 267.904 187.377 267.699 187.556C267.497 187.735 267.26 187.87 266.986 187.961C266.713 188.052 266.415 188.098 266.093 188.098C265.784 188.098 265.492 188.054 265.219 187.966C264.949 187.878 264.709 187.751 264.501 187.585C264.293 187.416 264.13 187.209 264.013 186.965C263.896 186.717 263.837 186.436 263.837 186.12H264.74C264.74 186.368 264.794 186.584 264.901 186.77C265.012 186.955 265.168 187.1 265.37 187.204C265.575 187.305 265.816 187.355 266.093 187.355C266.369 187.355 266.607 187.308 266.806 187.214C267.007 187.116 267.162 186.97 267.27 186.774C267.38 186.579 267.436 186.333 267.436 186.037C267.436 185.741 267.374 185.498 267.25 185.31C267.126 185.118 266.951 184.976 266.723 184.885C266.498 184.79 266.233 184.743 265.927 184.743H265.282ZM276.088 186.42V183.31H273.558V182.66H276.088V181.6H273.558V180.94H276.088V179.78H276.918V186.42H276.088ZM274.608 184.08L274.698 184.76C273.258 185.02 272.048 185.09 270.728 185.09H270.048V180.42H270.868V184.4C272.098 184.39 273.268 184.32 274.608 184.08ZM271.988 187.87H277.148V188.54H271.168V185.85H271.988V187.87ZM284.735 180.881H284.813V181.647H284.735C284.257 181.647 283.856 181.726 283.534 181.882C283.212 182.035 282.956 182.242 282.768 182.502C282.579 182.759 282.442 183.049 282.357 183.371C282.276 183.693 282.235 184.021 282.235 184.353V185.397C282.235 185.713 282.273 185.993 282.348 186.237C282.423 186.478 282.525 186.682 282.655 186.848C282.785 187.014 282.932 187.139 283.095 187.224C283.261 187.308 283.433 187.351 283.612 187.351C283.821 187.351 284.006 187.312 284.169 187.233C284.332 187.152 284.468 187.04 284.579 186.896C284.693 186.75 284.779 186.577 284.838 186.379C284.896 186.18 284.926 185.962 284.926 185.725C284.926 185.513 284.9 185.31 284.848 185.114C284.796 184.916 284.716 184.74 284.608 184.587C284.501 184.431 284.366 184.309 284.203 184.221C284.044 184.13 283.853 184.084 283.632 184.084C283.381 184.084 283.147 184.146 282.929 184.27C282.714 184.39 282.536 184.549 282.396 184.748C282.26 184.943 282.182 185.157 282.162 185.388L281.684 185.383C281.729 185.018 281.814 184.707 281.938 184.45C282.064 184.19 282.221 183.978 282.406 183.815C282.595 183.649 282.805 183.529 283.036 183.454C283.271 183.376 283.518 183.337 283.778 183.337C284.133 183.337 284.439 183.404 284.696 183.537C284.953 183.671 285.165 183.85 285.331 184.074C285.497 184.296 285.619 184.546 285.697 184.826C285.779 185.103 285.819 185.388 285.819 185.681C285.819 186.016 285.772 186.33 285.678 186.623C285.583 186.916 285.442 187.173 285.253 187.395C285.067 187.616 284.838 187.788 284.564 187.912C284.291 188.036 283.974 188.098 283.612 188.098C283.228 188.098 282.893 188.02 282.606 187.863C282.32 187.704 282.082 187.492 281.894 187.229C281.705 186.965 281.563 186.672 281.469 186.35C281.374 186.027 281.327 185.7 281.327 185.368V184.943C281.327 184.442 281.378 183.951 281.479 183.469C281.579 182.987 281.754 182.551 282.001 182.16C282.252 181.77 282.598 181.459 283.041 181.228C283.484 180.996 284.049 180.881 284.735 180.881ZM291.573 184.04H293.353V179.78H294.173V185.05H293.353V184.58H291.573V184.04ZM289.703 180.52C288.833 180.52 288.263 180.82 288.263 181.3C288.263 181.76 288.833 182.07 289.703 182.07C290.583 182.07 291.143 181.76 291.143 181.3C291.143 180.82 290.583 180.52 289.703 180.52ZM289.703 182.63C288.373 182.63 287.493 182.12 287.493 181.3C287.493 180.46 288.373 179.95 289.703 179.95C291.033 179.95 291.913 180.46 291.913 181.3C291.913 182.12 291.033 182.63 289.703 182.63ZM289.243 185.08V183.74C288.413 183.76 287.623 183.77 286.903 183.77L286.803 183.15C288.533 183.15 290.723 183.14 292.643 182.92L292.693 183.46C291.823 183.58 290.933 183.65 290.063 183.7V185.08H289.243ZM288.993 188.03H294.483V188.64H288.183V186.69H293.373V185.97H288.163V185.38H294.173V187.25H288.993V188.03Z" fill="#606368"/>
<path d="M312.054 149.879V150.963C312.054 151.546 312.002 152.037 311.897 152.438C311.793 152.838 311.644 153.16 311.448 153.404C311.253 153.648 311.017 153.826 310.74 153.937C310.467 154.044 310.158 154.098 309.812 154.098C309.539 154.098 309.287 154.063 309.056 153.995C308.825 153.927 308.616 153.818 308.431 153.668C308.248 153.515 308.092 153.316 307.962 153.072C307.832 152.828 307.732 152.532 307.664 152.184C307.596 151.835 307.562 151.428 307.562 150.963V149.879C307.562 149.296 307.614 148.808 307.718 148.414C307.825 148.02 307.977 147.704 308.172 147.467C308.367 147.226 308.602 147.053 308.875 146.949C309.152 146.845 309.461 146.793 309.803 146.793C310.079 146.793 310.333 146.827 310.564 146.896C310.799 146.961 311.007 147.066 311.189 147.213C311.372 147.356 311.526 147.548 311.653 147.789C311.784 148.027 311.883 148.318 311.951 148.663C312.02 149.008 312.054 149.413 312.054 149.879ZM311.146 151.109V149.728C311.146 149.409 311.126 149.129 311.087 148.888C311.051 148.644 310.997 148.435 310.926 148.263C310.854 148.09 310.763 147.95 310.652 147.843C310.545 147.735 310.42 147.657 310.276 147.608C310.136 147.556 309.979 147.53 309.803 147.53C309.588 147.53 309.397 147.571 309.231 147.652C309.065 147.73 308.925 147.856 308.812 148.028C308.701 148.201 308.616 148.427 308.558 148.707C308.499 148.987 308.47 149.327 308.47 149.728V151.109C308.47 151.428 308.488 151.71 308.523 151.954C308.562 152.198 308.619 152.41 308.694 152.589C308.769 152.765 308.86 152.91 308.968 153.023C309.075 153.137 309.199 153.222 309.339 153.277C309.482 153.329 309.64 153.355 309.812 153.355C310.034 153.355 310.228 153.313 310.394 153.229C310.56 153.144 310.698 153.012 310.809 152.833C310.923 152.651 311.007 152.418 311.062 152.135C311.118 151.848 311.146 151.507 311.146 151.109Z" fill="#606368"/>
<path d="M308.733 93.6162L308.011 93.4307L308.367 89.8906H312.015V90.7256H309.134L308.919 92.6592C309.049 92.5843 309.214 92.5143 309.412 92.4492C309.614 92.3841 309.845 92.3516 310.105 92.3516C310.434 92.3516 310.729 92.4085 310.989 92.5225C311.25 92.6331 311.471 92.7926 311.653 93.001C311.839 93.2093 311.98 93.46 312.078 93.7529C312.176 94.0459 312.225 94.373 312.225 94.7344C312.225 95.0762 312.177 95.3903 312.083 95.6768C311.992 95.9632 311.854 96.2139 311.668 96.4287C311.482 96.6403 311.248 96.8047 310.965 96.9219C310.685 97.0391 310.354 97.0977 309.974 97.0977C309.687 97.0977 309.415 97.0586 309.158 96.9805C308.904 96.8991 308.676 96.777 308.475 96.6143C308.276 96.4482 308.113 96.2432 307.986 95.999C307.863 95.7516 307.785 95.4619 307.752 95.1299H308.611C308.65 95.3968 308.729 95.6214 308.846 95.8037C308.963 95.986 309.116 96.1243 309.305 96.2188C309.497 96.3099 309.72 96.3555 309.974 96.3555C310.188 96.3555 310.379 96.318 310.545 96.2432C310.711 96.1683 310.851 96.0609 310.965 95.9209C311.079 95.7809 311.165 95.6117 311.224 95.4131C311.285 95.2145 311.316 94.9915 311.316 94.7441C311.316 94.5195 311.285 94.3112 311.224 94.1191C311.162 93.9271 311.069 93.7594 310.945 93.6162C310.825 93.473 310.677 93.3623 310.501 93.2842C310.325 93.2028 310.123 93.1621 309.896 93.1621C309.593 93.1621 309.363 93.2028 309.207 93.2842C309.054 93.3656 308.896 93.4762 308.733 93.6162ZM313.125 95.93H321.315V96.62H313.125V95.93ZM316.805 93.74H317.625V96.16H316.805V93.74ZM316.785 89.88H317.485V90.44C317.485 92.29 315.635 93.69 313.855 94.06L313.515 93.4C315.075 93.14 316.785 91.87 316.785 90.44V89.88ZM316.935 89.88H317.635V90.44C317.635 91.87 319.355 93.11 320.935 93.37L320.605 94.03C318.795 93.67 316.935 92.29 316.935 90.44V89.88ZM313.795 89.56H320.625V90.24H313.795V89.56Z" fill="#606368"/>
<path d="M310.56 32.8516V40H309.656V33.9795L307.835 34.6436V33.8281L310.418 32.8516H310.56ZM317.679 35.8789V36.9629C317.679 37.5456 317.627 38.0371 317.522 38.4375C317.418 38.8379 317.269 39.1602 317.073 39.4043C316.878 39.6484 316.642 39.8258 316.365 39.9365C316.092 40.0439 315.783 40.0977 315.438 40.0977C315.164 40.0977 314.912 40.0635 314.681 39.9951C314.45 39.9268 314.241 39.8177 314.056 39.668C313.873 39.515 313.717 39.3164 313.587 39.0723C313.457 38.8281 313.357 38.5319 313.289 38.1836C313.221 37.8353 313.187 37.4284 313.187 36.9629V35.8789C313.187 35.2962 313.239 34.8079 313.343 34.4141C313.45 34.0202 313.602 33.7044 313.797 33.4668C313.992 33.2259 314.227 33.0534 314.5 32.9492C314.777 32.8451 315.086 32.793 315.428 32.793C315.704 32.793 315.958 32.8271 316.189 32.8955C316.424 32.9606 316.632 33.0664 316.814 33.2129C316.997 33.3561 317.151 33.5482 317.278 33.7891C317.409 34.0267 317.508 34.318 317.576 34.6631C317.645 35.0081 317.679 35.4134 317.679 35.8789ZM316.771 37.1094V35.7275C316.771 35.4085 316.751 35.1286 316.712 34.8877C316.676 34.6436 316.622 34.4352 316.551 34.2627C316.479 34.0902 316.388 33.9502 316.277 33.8428C316.17 33.7354 316.045 33.6572 315.901 33.6084C315.761 33.5563 315.604 33.5303 315.428 33.5303C315.213 33.5303 315.022 33.571 314.856 33.6523C314.69 33.7305 314.55 33.8558 314.437 34.0283C314.326 34.2008 314.241 34.4271 314.183 34.707C314.124 34.987 314.095 35.3271 314.095 35.7275V37.1094C314.095 37.4284 314.113 37.71 314.148 37.9541C314.188 38.1982 314.244 38.4098 314.319 38.5889C314.394 38.7646 314.485 38.9095 314.593 39.0234C314.7 39.1374 314.824 39.222 314.964 39.2773C315.107 39.3294 315.265 39.3555 315.438 39.3555C315.659 39.3555 315.853 39.3132 316.019 39.2285C316.185 39.1439 316.323 39.012 316.434 38.833C316.548 38.6507 316.632 38.418 316.688 38.1348C316.743 37.8483 316.771 37.5065 316.771 37.1094ZM318.75 38.93H326.94V39.62H318.75V38.93ZM322.43 36.74H323.25V39.16H322.43V36.74ZM322.41 32.88H323.11V33.44C323.11 35.29 321.26 36.69 319.48 37.06L319.14 36.4C320.7 36.14 322.41 34.87 322.41 33.44V32.88ZM322.56 32.88H323.26V33.44C323.26 34.87 324.98 36.11 326.56 36.37L326.23 37.03C324.42 36.67 322.56 35.29 322.56 33.44V32.88ZM319.42 32.56H326.25V33.24H319.42V32.56Z" fill="#606368"/>
<path d="M259 36C259 33.2386 261.239 31 264 31H277C279.761 31 282 33.2386 282 36V160H259V36Z" fill="#3478F5"/>
</svg>
