<svg width="24" height="24" viewBox="0 0 24 24" fill="none" xmlns="http://www.w3.org/2000/svg">
<path d="M18.3247 19.6753C18.6976 20.0483 19.3024 20.0483 19.6753 19.6753C20.0483 19.3024 20.0483 18.6976 19.6753 18.3247L18.3247 19.6753ZM14.5449 10.25C14.5449 12.622 12.622 14.5449 10.25 14.5449V16.4551C13.677 16.4551 16.4551 13.677 16.4551 10.25H14.5449ZM10.25 14.5449C7.87797 14.5449 5.95506 12.622 5.95506 10.25H4.04494C4.04494 13.677 6.82304 16.4551 10.25 16.4551V14.5449ZM5.95506 10.25C5.95506 7.87797 7.87797 5.95506 10.25 5.95506V4.04494C6.82304 4.04494 4.04494 6.82304 4.04494 10.25H5.95506ZM10.25 5.95506C12.622 5.95506 14.5449 7.87797 14.5449 10.25H16.4551C16.4551 6.82304 13.677 4.04494 10.25 4.04494V5.95506ZM13.0747 14.4253L18.3247 19.6753L19.6753 18.3247L14.4253 13.0747L13.0747 14.4253Z" fill="#3478F5"/>
</svg>
