<svg width="8" height="11" viewBox="0 0 8 11" fill="none" xmlns="http://www.w3.org/2000/svg">
<path id="arrow.up" d="M4 10.5C4.33505 10.5 4.57217 10.2578 4.57217 9.91022L4.57217 3.40679L4.53093 2.26935L5.86598 3.79121L7.04124 4.98131C7.14433 5.08662 7.28866 5.15508 7.44845 5.15508C7.76289 5.15508 8 4.91285 8 4.5811C8 4.42838 7.9433 4.2862 7.81959 4.15982L4.42268 0.684308C4.30928 0.563191 4.15464 0.5 4 0.5C3.84021 0.5 3.68557 0.563191 3.57217 0.684308L0.180412 4.15982C0.056701 4.2862 0 4.42838 0 4.5811C0 4.91285 0.231959 5.15508 0.546392 5.15508C0.71134 5.15508 0.85567 5.08662 0.958763 4.98131L2.12887 3.79121L3.46907 2.26409L3.42268 3.40679L3.42268 9.91022C3.42268 10.2578 3.65979 10.5 4 10.5Z" fill="#D12126"/>
</svg>
