<svg width="8" height="11" viewBox="0 0 8 11" fill="none" xmlns="http://www.w3.org/2000/svg">
<path id="arrow.down" d="M4 0.5C3.66495 0.5 3.42784 0.742233 3.42784 1.08978L3.42783 7.59321L3.46907 8.73065L2.13402 7.20879L0.958762 6.01869C0.855669 5.91338 0.71134 5.84492 0.551546 5.84492C0.237113 5.84492 -8.1376e-07 6.08715 -8.42763e-07 6.4189C-8.56113e-07 6.57162 0.0567002 6.7138 0.180412 6.84018L3.57732 10.3157C3.69072 10.4368 3.84536 10.5 4 10.5C4.15979 10.5 4.31443 10.4368 4.42783 10.3157L7.81959 6.84018C7.9433 6.7138 8 6.57162 8 6.4189C8 6.08715 7.76804 5.84492 7.45361 5.84492C7.28866 5.84492 7.14433 5.91338 7.04124 6.01869L5.87113 7.20879L4.53093 8.73591L4.57732 7.59321L4.57732 1.08978C4.57732 0.742233 4.34021 0.5 4 0.5Z" fill="#3478F5"/>
</svg>
