<svg width="11" height="12" viewBox="0 0 11 12" fill="none" xmlns="http://www.w3.org/2000/svg">
<path id="arrow.down" d="M5.5 6.9334e-07C5.0393 6.53064e-07 4.71327 0.29068 4.71327 0.707741L4.71327 8.51185L4.76997 9.87678L2.93428 8.05055L1.3183 6.62243C1.17655 6.49605 0.978093 6.4139 0.758376 6.4139C0.326031 6.4139 -3.73388e-07 6.70458 -4.08191e-07 7.10269C-4.24211e-07 7.28594 0.0779635 7.45656 0.248067 7.60821L4.91881 11.7788C5.07474 11.9242 5.28737 12 5.5 12C5.71972 12 5.93234 11.9242 6.08827 11.7788L10.7519 7.60822C10.922 7.45656 11 7.28594 11 7.10269C11 6.70458 10.6811 6.4139 10.2487 6.4139C10.0219 6.4139 9.82345 6.49605 9.6817 6.62243L8.07281 8.05055L6.23003 9.8831L6.29381 8.51185L6.29382 0.707742C6.29382 0.29068 5.96778 7.34235e-07 5.5 6.9334e-07Z" fill="#3478F5"/>
</svg>
