<svg width="16" height="16" viewBox="0 0 16 16" fill="none" xmlns="http://www.w3.org/2000/svg">
<path d="M8 3C7.66495 3 7.42784 3.26646 7.42784 3.64876L7.42783 10.8025L7.46907 12.0537L6.13402 10.3797L4.95876 9.07056C4.85567 8.95471 4.71134 8.87941 4.55155 8.87941C4.23711 8.87941 4 9.14587 4 9.51079C4 9.67878 4.0567 9.83518 4.18041 9.9742L7.57732 13.7973C7.69072 13.9305 7.84536 14 8 14C8.15979 14 8.31443 13.9305 8.42783 13.7973L11.8196 9.9742C11.9433 9.83518 12 9.67878 12 9.5108C12 9.14587 11.768 8.87941 11.4536 8.87941C11.2887 8.87941 11.1443 8.95471 11.0412 9.07056L9.87113 10.3797L8.53093 12.0595L8.57732 10.8025L8.57732 3.64876C8.57732 3.26646 8.34021 3 8 3Z" fill="#3478F5"/>
</svg>
