<svg width="16" height="16" viewBox="0 0 16 16" fill="none" xmlns="http://www.w3.org/2000/svg">
<path d="M8 14C8.33505 14 8.57217 13.7335 8.57217 13.3512V6.19747L8.53093 4.94629L9.86598 6.62033L11.0412 7.92944C11.1443 8.04529 11.2887 8.12059 11.4485 8.12059C11.7629 8.12059 12 7.85413 12 7.4892C12 7.32122 11.9433 7.16482 11.8196 7.0258L8.42268 3.20274C8.30928 3.06951 8.15464 3 8 3C7.84021 3 7.68557 3.06951 7.57217 3.20274L4.18041 7.0258C4.0567 7.16482 4 7.32122 4 7.4892C4 7.85413 4.23196 8.12059 4.54639 8.12059C4.71134 8.12059 4.85567 8.04529 4.95876 7.92944L6.12887 6.62033L7.46907 4.94049L7.42268 6.19747L7.42268 13.3512C7.42268 13.7335 7.65979 14 8 14Z" fill="#D12126"/>
</svg>
