<svg width="24" height="24" viewBox="0 0 24 24" fill="none" xmlns="http://www.w3.org/2000/svg">
<path d="M12 20C12.5026 20 12.8582 19.6367 12.8582 19.1153L12.8582 9.36019L12.7964 7.65403L14.799 9.93681L16.5619 11.722C16.7165 11.8799 16.933 11.9826 17.1727 11.9826C17.6443 11.9826 18 11.6193 18 11.1216C18 10.8926 17.9149 10.6793 17.7294 10.4897L12.634 5.27646C12.4639 5.09479 12.232 5 12 5C11.7603 5 11.5284 5.09479 11.3582 5.27646L6.27062 10.4897C6.08505 10.6793 6 10.8926 6 11.1216C6 11.6193 6.34794 11.9826 6.81959 11.9826C7.06701 11.9826 7.28351 11.8799 7.43814 11.722L9.1933 9.93681L11.2036 7.64613L11.134 9.36019L11.134 19.1153C11.134 19.6367 11.4897 20 12 20Z" fill="#D12126"/>
</svg>
