<svg width="24" height="24" viewBox="0 0 24 24" fill="none" xmlns="http://www.w3.org/2000/svg">
<g clip-path="url(#clip0_309_1580)">
<path d="M12.4788 15.4607C12.181 15.7485 12.1728 16.2233 12.4607 16.5212C12.7485 16.819 13.2233 16.8272 13.5212 16.5393L12.4788 15.4607ZM22.0282 8.0128C22.0353 7.59865 21.7053 7.25717 21.2912 7.25009L14.5422 7.1347C14.128 7.12761 13.7865 7.45761 13.7794 7.87177C13.7724 8.28592 14.1024 8.6274 14.5165 8.63448L20.5156 8.73705L20.4131 14.7362C20.406 15.1503 20.736 15.4918 21.1501 15.4989C21.5643 15.506 21.9058 15.176 21.9128 14.7618L22.0282 8.0128ZM13.5212 16.5393L21.7995 8.5393L20.7572 7.46066L12.4788 15.4607L13.5212 16.5393Z" fill="#363636"/>
<path d="M3 19L7.8 14L11 17" stroke="#363636" stroke-width="2" stroke-linecap="round" stroke-linejoin="round"/>
<line x1="3" y1="9" x2="3" y2="15" stroke="#363636" stroke-width="2"/>
<line x1="7" y1="5" x2="7" y2="12" stroke="#363636" stroke-width="2"/>
<line x1="12" y1="2" x2="12" y2="12" stroke="#363636" stroke-width="2"/>
<path d="M10.5 18L19.9938 9.25668" stroke="#363636" stroke-width="2"/>
</g>
<defs>
<clipPath id="clip0_309_1580">
<rect width="24" height="24" fill="white"/>
</clipPath>
</defs>
</svg>
